<svg width="32" height="32" viewBox="0 0 32 32" fill="none" xmlns="http://www.w3.org/2000/svg">
<path d="M16 22.6C18.796 22.6 21.16 20.848 22.132 18.4H9.868C10.828 20.848 13.204 22.6 16 22.6ZM11.8 14.8C12.2774 14.8 12.7352 14.6104 13.0728 14.2728C13.4104 13.9352 13.6 13.4774 13.6 13C13.6 12.5226 13.4104 12.0648 13.0728 11.7272C12.7352 11.3896 12.2774 11.2 11.8 11.2C11.3226 11.2 10.8648 11.3896 10.5272 11.7272C10.1896 12.0648 10 12.5226 10 13C10 13.4774 10.1896 13.9352 10.5272 14.2728C10.8648 14.6104 11.3226 14.8 11.8 14.8ZM20.2 14.8C20.6774 14.8 21.1352 14.6104 21.4728 14.2728C21.8104 13.9352 22 13.4774 22 13C22 12.5226 21.8104 12.0648 21.4728 11.7272C21.1352 11.3896 20.6774 11.2 20.2 11.2C19.7226 11.2 19.2648 11.3896 18.9272 11.7272C18.5896 12.0648 18.4 12.5226 18.4 13C18.4 13.4774 18.5896 13.9352 18.9272 14.2728C19.2648 14.6104 19.7226 14.8 20.2 14.8ZM16 25.6C13.4539 25.6 11.0121 24.5886 9.21178 22.7882C7.41143 20.9879 6.4 18.5461 6.4 16C6.4 13.4539 7.41143 11.0121 9.21178 9.21178C11.0121 7.41143 13.4539 6.4 16 6.4C18.5461 6.4 20.9879 7.41143 22.7882 9.21178C24.5886 11.0121 25.6 13.4539 25.6 16C25.6 18.5461 24.5886 20.9879 22.7882 22.7882C20.9879 24.5886 18.5461 25.6 16 25.6ZM16 4C9.364 4 4 9.4 4 16C4 19.1826 5.26428 22.2348 7.51472 24.4853C8.62902 25.5996 9.95189 26.4835 11.4078 27.0866C12.8637 27.6896 14.4241 28 16 28C19.1826 28 22.2348 26.7357 24.4853 24.4853C26.7357 22.2348 28 19.1826 28 16C28 14.4241 27.6896 12.8637 27.0866 11.4078C26.4835 9.95189 25.5996 8.62902 24.4853 7.51472C23.371 6.40042 22.0481 5.5165 20.5922 4.91345C19.1363 4.31039 17.5759 4 16 4Z" fill="#27B53C"/>
</svg>
