<svg width="32" height="32" viewBox="0 0 32 32" fill="none" xmlns="http://www.w3.org/2000/svg">
<path d="M25.3333 4H6.66667C5.2 4 4 5.2 4 6.66667V25.3333C4 26.8 5.2 28 6.66667 28H25.3333C26.8 28 28 26.8 28 25.3333V6.66667C28 5.2 26.8 4 25.3333 4ZM13.3333 14H10V18H11.3333V16H13.3333V18.2667C13.3333 19.2 12.6667 20 11.6 20H9.73333C8.66667 20 8 19.0667 8 18.2667V13.8667C8 12.9333 8.66667 12 9.73333 12H11.4667C12.6667 12 13.3333 12.9333 13.3333 13.7333V14ZM17.3333 20H15.3333V12H17.3333V20ZM23.3333 14H21.3333V15.3333H23.3333V17.3333H21.3333V20H19.3333V12H23.3333V14Z" fill="#27B53C"/>
</svg>
