<svg width="54" height="54" viewBox="0 0 54 54" fill="none" xmlns="http://www.w3.org/2000/svg">
<g clip-path="url(#clip0_378_40859)">
<path d="M26.7383 26H37.9883V37.25H26.7383V26ZM42.4883 5.75H40.2383V1.25H35.7383V5.75H17.7383V1.25H13.2383V5.75H10.9883C8.51328 5.75 6.48828 7.775 6.48828 10.25V41.75C6.48828 44.225 8.51328 46.25 10.9883 46.25H42.4883C44.9633 46.25 46.9883 44.225 46.9883 41.75V10.25C46.9883 7.775 44.9633 5.75 42.4883 5.75ZM42.4883 10.25V14.75H10.9883V10.25H42.4883ZM10.9883 41.75V19.25H42.4883V41.75H10.9883Z" fill="#EB3030"/>
</g>
<defs>
<clipPath id="clip0_378_40859">
<rect width="54" height="54" fill="white" transform="translate(0.00927734)"/>
</clipPath>
</defs>
</svg>
