<svg width="24" height="24" viewBox="0 0 24 24" fill="none" xmlns="http://www.w3.org/2000/svg">
<g clip-path="url(#clip0_376_37431)">
<path d="M10.9429 4C12.519 4 14.0306 4.62612 15.1451 5.74062C16.2596 6.85512 16.8857 8.36671 16.8857 9.94286C16.8857 11.4149 16.3463 12.768 15.4594 13.8103L15.7063 14.0571H16.4286L21 18.6286L19.6286 20L15.0571 15.4286V14.7063L14.8103 14.4594C13.768 15.3463 12.4149 15.8857 10.9429 15.8857C9.36671 15.8857 7.85512 15.2596 6.74062 14.1451C5.62612 13.0306 5 11.519 5 9.94286C5 8.36671 5.62612 6.85512 6.74062 5.74062C7.85512 4.62612 9.36671 4 10.9429 4ZM10.9429 5.82857C8.65714 5.82857 6.82857 7.65714 6.82857 9.94286C6.82857 12.2286 8.65714 14.0571 10.9429 14.0571C13.2286 14.0571 15.0571 12.2286 15.0571 9.94286C15.0571 7.65714 13.2286 5.82857 10.9429 5.82857Z" fill="#0C3712"/>
</g>
<defs>
<clipPath id="clip0_376_37431">
<rect width="24" height="24" fill="white"/>
</clipPath>
</defs>
</svg>
