<svg width="54" height="54" viewBox="0 0 54 54" fill="none" xmlns="http://www.w3.org/2000/svg">
<path d="M33.9844 4.07251L27.6169 10.44C25.8844 12.195 25.8844 15.0525 27.6169 16.8075L30.7894 19.98L20.5519 30.2175L14.2069 23.85L11.0119 27C-0.125569 38.25 7.88443 46.125 7.88443 46.125C7.88443 46.125 15.7594 54 27.0094 42.9525L30.1819 39.78L23.8819 33.48L34.0969 23.265L37.2244 26.3925C38.9794 28.125 41.8369 28.125 43.5919 26.3925L49.9594 20.025L33.9844 4.07251ZM40.3519 23.13L37.2469 20.025L34.0069 16.785L30.8569 13.635L34.0294 10.4625L43.5469 19.98L40.3519 23.13Z" fill="#5B4F45"/>
</svg>
