<svg width="55" height="54" viewBox="0 0 55 54" fill="none" xmlns="http://www.w3.org/2000/svg">
<path d="M47.0492 31.3875L41.8067 32.7825L37.3067 30.24V23.76L41.8067 21.2175L47.0492 22.6125L48.2192 18.27L44.2367 17.2125L45.2717 13.23L40.9292 12.06L39.5342 17.3025L35.0342 19.845L29.5217 16.605V11.52L33.3692 7.6725L30.1742 4.5L27.2717 7.4025L24.3692 4.5L21.1742 7.6725L25.0217 11.52V16.605L19.3967 19.845L14.8967 17.3025L13.5917 12.06L9.27168 13.23L10.3292 17.2125L6.34668 18.27L7.51668 22.6125L12.7592 21.2175L17.2592 23.76V30.2625L12.7592 32.805L7.51668 31.41L6.34668 35.7525L10.3292 36.81L9.27168 40.77L13.6142 41.94L15.0092 36.6975L19.5092 34.155L25.0217 37.395V42.48L21.1742 46.3275L24.3692 49.5L27.2717 46.5975L30.1742 49.5L33.3467 46.3275L29.5217 42.48V37.395L35.1467 34.1325L39.6467 36.675L41.0417 41.9175L45.2717 40.77L44.2142 36.7875L48.1967 35.73L47.0492 31.3875ZM21.6467 23.76L27.2717 20.4975L32.8967 23.76V30.24L27.2717 33.5025L21.6467 30.24V23.76Z" fill="#49CFD8"/>
</svg>
