<svg width="54" height="54" viewBox="0 0 54 54" fill="none" xmlns="http://www.w3.org/2000/svg">
<path d="M4.50928 49.5V45C4.50928 45 15.7593 40.5 27.0093 40.5C38.2593 40.5 49.5093 45 49.5093 45V49.5H4.50928ZM25.4343 20.475C22.7343 11.7 9.00928 13.725 9.00928 13.725C9.00928 13.725 9.45928 31.275 22.2843 28.575C21.3843 22.05 18.0093 20.25 18.0093 20.25C24.3093 20.25 24.7593 27.9 24.7593 27.9V38.25C25.4343 38.25 26.3343 38.25 27.0093 38.25C27.6843 38.25 28.5843 38.25 29.2593 38.25V28.8C29.2593 28.8 29.2593 20.025 36.0093 17.775C36.0093 17.775 31.5093 24.525 31.5093 29.025C47.2593 30.6 47.2593 8.99997 47.2593 8.99997C47.2593 8.99997 27.2343 6.74997 25.4343 20.475Z" fill="#27B53C"/>
</svg>
