<svg width="55" height="54" viewBox="0 0 55 54" fill="none" xmlns="http://www.w3.org/2000/svg">
<path d="M0.406738 0.13562H54.1355V53.8644H0.406738V0.13562ZM6.3766 6.10548V47.8945H48.1656V6.10548H6.3766Z" fill="#7C5C3F"/>
<path d="M12.6177 31.1296C12.1064 31.1296 11.6518 31.042 11.2541 30.8668C10.8587 30.6916 10.5462 30.4478 10.3166 30.1353C10.0869 29.8228 9.96502 29.4617 9.95082 29.0522H11.286C11.2979 29.2487 11.363 29.4203 11.4814 29.5671C11.5997 29.7115 11.7572 29.8239 11.9537 29.9044C12.1502 29.9849 12.3703 30.0252 12.6142 30.0252C12.8746 30.0252 13.1054 29.9802 13.3066 29.8902C13.5079 29.7979 13.6653 29.6701 13.7789 29.5067C13.8926 29.3434 13.9482 29.1552 13.9458 28.9421C13.9482 28.7219 13.8914 28.5278 13.7754 28.3597C13.6594 28.1916 13.4913 28.0602 13.2711 27.9655C13.0533 27.8708 12.7905 27.8235 12.4828 27.8235H11.84V26.8079H12.4828C12.7361 26.8079 12.9574 26.7641 13.1468 26.6765C13.3386 26.5889 13.4889 26.4658 13.5978 26.3071C13.7067 26.1462 13.76 25.9603 13.7576 25.7496C13.76 25.5436 13.7138 25.3649 13.6191 25.2134C13.5268 25.0595 13.3954 24.94 13.225 24.8547C13.0569 24.7695 12.8592 24.7269 12.6319 24.7269C12.4094 24.7269 12.2034 24.7671 12.014 24.8476C11.8246 24.9281 11.6719 25.0429 11.5559 25.1921C11.4399 25.3389 11.3784 25.5141 11.3713 25.7177H10.1035C10.113 25.3105 10.2302 24.953 10.4551 24.6452C10.6824 24.3351 10.9854 24.0936 11.3642 23.9208C11.743 23.7456 12.1679 23.658 12.639 23.658C13.1243 23.658 13.5458 23.7491 13.9032 23.9314C14.2631 24.1114 14.5413 24.354 14.7377 24.6594C14.9342 24.9648 15.0325 25.3022 15.0325 25.6715C15.0349 26.0811 14.9141 26.4243 14.6703 26.7013C14.4288 26.9783 14.1116 27.1594 13.7186 27.2446V27.3015C14.2299 27.3725 14.6217 27.5619 14.894 27.8696C15.1686 28.175 15.3047 28.555 15.3024 29.0096C15.3024 29.4168 15.1864 29.7813 14.9544 30.1033C14.7247 30.4229 14.4075 30.6739 14.0027 30.8561C13.6002 31.0384 13.1386 31.1296 12.6177 31.1296ZM19.2095 31.1686C18.6248 31.1686 18.1229 31.0207 17.7038 30.7248C17.2872 30.4265 16.9664 29.9968 16.7415 29.4357C16.5189 28.8722 16.4077 28.194 16.4077 27.4009C16.41 26.6078 16.5225 25.9331 16.745 25.3767C16.9699 24.818 17.2907 24.3919 17.7074 24.0983C18.1264 23.8048 18.6271 23.658 19.2095 23.658C19.7919 23.658 20.2926 23.8048 20.7116 24.0983C21.1307 24.3919 21.4515 24.818 21.674 25.3767C21.8989 25.9355 22.0114 26.6102 22.0114 27.4009C22.0114 28.1963 21.8989 28.8758 21.674 29.4392C21.4515 30.0003 21.1307 30.4288 20.7116 30.7248C20.295 31.0207 19.7943 31.1686 19.2095 31.1686ZM19.2095 30.0571C19.6641 30.0571 20.0227 29.8334 20.2855 29.386C20.5507 28.9362 20.6832 28.2745 20.6832 27.4009C20.6832 26.8232 20.6229 26.3379 20.5021 25.9449C20.3814 25.5519 20.2109 25.256 19.9908 25.0571C19.7706 24.8559 19.5102 24.7553 19.2095 24.7553C18.7573 24.7553 18.3999 24.9802 18.1371 25.43C17.8743 25.8775 17.7417 26.5344 17.7393 27.4009C17.737 27.9809 17.795 28.4686 17.9134 28.864C18.0341 29.2593 18.2045 29.5576 18.4247 29.7588C18.6449 29.9577 18.9065 30.0571 19.2095 30.0571ZM25.5847 31.1367C25.0402 31.1367 24.5726 31.0171 24.182 30.778C23.7937 30.5389 23.4943 30.2087 23.2836 29.7873C23.0752 29.3635 22.9711 28.8758 22.9711 28.3242C22.9711 27.7702 23.0776 27.2813 23.2907 26.8576C23.5037 26.4314 23.8044 26.1 24.1926 25.8632C24.5833 25.6241 25.0449 25.5046 25.5776 25.5046C26.0203 25.5046 26.4121 25.5863 26.753 25.7496C27.0963 25.9106 27.3697 26.1391 27.5733 26.435C27.7769 26.7285 27.8929 27.0718 27.9213 27.4648H26.6926C26.6429 27.202 26.5246 26.983 26.3375 26.8079C26.1529 26.6303 25.9055 26.5415 25.5953 26.5415C25.3326 26.5415 25.1017 26.6125 24.9029 26.7546C24.704 26.8943 24.5489 27.0955 24.4377 27.3583C24.3288 27.6211 24.2743 27.9359 24.2743 28.3029C24.2743 28.6746 24.3288 28.9942 24.4377 29.2617C24.5466 29.5268 24.6993 29.7316 24.8958 29.876C25.0946 30.0181 25.3278 30.0891 25.5953 30.0891C25.7847 30.0891 25.954 30.0536 26.1032 29.9826C26.2547 29.9092 26.3813 29.8038 26.4831 29.6665C26.5849 29.5292 26.6548 29.3623 26.6926 29.1658H27.9213C27.8906 29.5517 27.7769 29.8938 27.5804 30.1921C27.3839 30.488 27.1164 30.72 26.7779 30.8881C26.4393 31.0538 26.0416 31.1367 25.5847 31.1367ZM28.9769 31.0302V25.5756H30.2056V26.5025H30.2695C30.3832 26.19 30.5714 25.9461 30.8342 25.7709C31.0969 25.5934 31.4106 25.5046 31.7752 25.5046C32.1445 25.5046 32.4558 25.5945 32.7092 25.7745C32.9648 25.952 33.1448 26.1947 33.2489 26.5025H33.3058C33.4265 26.1994 33.6301 25.9579 33.9165 25.778C34.2054 25.5957 34.5475 25.5046 34.9428 25.5046C35.4447 25.5046 35.8543 25.6632 36.1715 25.9804C36.4888 26.2977 36.6474 26.7605 36.6474 27.3689V31.0302H35.3583V27.5678C35.3583 27.2293 35.2683 26.9819 35.0884 26.8256C34.9085 26.667 34.6883 26.5877 34.4279 26.5877C34.1178 26.5877 33.8751 26.6847 33.6999 26.8789C33.5271 27.0706 33.4407 27.3204 33.4407 27.6282V31.0302H32.18V27.5145C32.18 27.2328 32.0948 27.0079 31.9244 26.8398C31.7563 26.6717 31.5361 26.5877 31.2638 26.5877C31.0792 26.5877 30.9111 26.635 30.7596 26.7297C30.6081 26.8221 30.4873 26.9534 30.3974 27.1239C30.3074 27.292 30.2624 27.4885 30.2624 27.7134V31.0302H28.9769ZM37.9373 31.0302V30.0784L40.4622 27.6033C40.7037 27.3595 40.9049 27.1428 41.0659 26.9534C41.2269 26.7641 41.3476 26.5806 41.4281 26.403C41.5086 26.2255 41.5488 26.0361 41.5488 25.8348C41.5488 25.6052 41.4967 25.4087 41.3926 25.2454C41.2884 25.0796 41.1452 24.9518 40.9629 24.8618C40.7806 24.7719 40.5734 24.7269 40.3414 24.7269C40.1023 24.7269 39.8928 24.7766 39.7129 24.876C39.533 24.9731 39.3933 25.1116 39.2939 25.2915C39.1968 25.4714 39.1483 25.6857 39.1483 25.9343H37.8947C37.8947 25.4726 38.0001 25.0713 38.2108 24.7304C38.4215 24.3895 38.7115 24.1256 39.0808 23.9385C39.4525 23.7515 39.8786 23.658 40.3592 23.658C40.8469 23.658 41.2754 23.7491 41.6447 23.9314C42.014 24.1137 42.3005 24.3635 42.5041 24.6807C42.71 24.998 42.813 25.3602 42.813 25.7674C42.813 26.0396 42.7609 26.3071 42.6568 26.5699C42.5526 26.8327 42.3691 27.1239 42.1064 27.4435C41.8459 27.7631 41.4802 28.1502 41.0091 28.6047L39.7555 29.8796V29.9293H42.9231V31.0302H37.9373Z" fill="black"/>
</svg>
