<svg width="55" height="54" viewBox="0 0 55 54" fill="none" xmlns="http://www.w3.org/2000/svg">
<path d="M8.47187 42.9525L11.6444 46.125L15.6944 42.0975L12.4994 38.9025M27.4844 13.5C20.0369 13.5 13.9844 19.5525 13.9844 27C13.9844 34.4475 20.0369 40.5 27.4844 40.5C34.9319 40.5 40.9844 34.4475 40.9844 27C40.9844 19.53 34.9319 13.5 27.4844 13.5ZM45.4844 29.25H52.2344V24.75H45.4844M39.2744 42.0975L43.3244 46.125L46.4969 42.9525L42.4694 38.9025M46.4969 11.25L43.3244 8.1L39.2744 12.1275L42.4694 15.3225M29.7344 2.25H25.2344V9H29.7344M15.6944 12.1275L11.6444 8.1L8.47187 11.25L12.4994 15.3225L15.6944 12.1275ZM2.73438 29.25H9.48438V24.75H2.73438M29.7344 45H25.2344V51.75H29.7344" fill="#FAFF0B"/>
</svg>
