<svg width="55" height="54" viewBox="0 0 55 54" fill="none" xmlns="http://www.w3.org/2000/svg">
<path d="M33.9722 29.25V11.25C33.9722 9.45979 33.261 7.7429 31.9951 6.47703C30.7293 5.21116 29.0124 4.5 27.2222 4.5C25.432 4.5 23.7151 5.21116 22.4492 6.47703C21.1833 7.7429 20.4722 9.45979 20.4722 11.25V29.25C18.5832 30.6667 17.1879 32.6418 16.4839 34.8956C15.7799 37.1494 15.8028 39.5676 16.5495 41.8076C17.2962 44.0476 18.7287 45.9959 20.6442 47.3765C22.5597 48.7571 24.861 49.5 27.2222 49.5C29.5833 49.5 31.8847 48.7571 33.8002 47.3765C35.7156 45.9959 37.1482 44.0476 37.8949 41.8076C38.6415 39.5676 38.6645 37.1494 37.9604 34.8956C37.2564 32.6418 35.8611 30.6667 33.9722 29.25ZM27.2222 9C27.8189 9 28.3912 9.23705 28.8132 9.65901C29.2351 10.081 29.4722 10.6533 29.4722 11.25V27H24.9722V11.25C24.9722 10.6533 25.2092 10.081 25.6312 9.65901C26.0531 9.23705 26.6254 9 27.2222 9Z" fill="#27B53C"/>
</svg>
