<svg width="252" height="228" viewBox="0 0 252 228" fill="none" xmlns="http://www.w3.org/2000/svg">
<g id="Group 18">
<path id="Vector" d="M97.3419 68.5685C49.5934 67.7146 31.4934 55.2137 20.265 75.1372C10.454 92.5394 10.9798 125.661 20.265 146.383C33.7371 176.448 57.484 162.183 108.446 181.248C164.095 202.066 173.338 233.131 201.853 222.176C227.997 212.131 254.05 173.027 251.496 136.782C248.246 90.6648 200.138 69.9429 191.075 66.042C160.31 52.7934 153.598 69.574 97.3419 68.5685Z" fill="#F0F0F0"/>
<g id="Group 17">
<path id="Vector_2" d="M22.4566 165.5C22.8684 165.5 29.6666 184.781 30.2801 198.78C30.4119 201.797 30.3996 204.668 30.2801 207.368C31.0625 207.739 32.3348 208.168 33.1625 207.368C34.4719 206.107 33.9448 202.494 33.5743 200.39C27.8878 168.076 18.7507 149.933 18.7507 149.933C12.5743 137.668 3.82019 120.287 1.0449 122.021C-1.41333 123.556 0.600192 140.223 7.63312 152.617C11.2896 159.064 15.8684 163.889 19.1625 164.963" fill="#C5CFD7"/>
<path id="Vector_3" d="M28.3727 121.078C28.7582 121.094 34.2775 159.433 34.2272 187.124C34.2188 193.094 34.0763 198.764 33.8458 204.097C34.5624 204.852 35.7359 205.747 36.5489 204.199C37.8312 201.75 37.5002 194.59 37.2445 190.42C33.3471 126.362 26.2102 83.5422 26.2102 83.5422C20.9634 59.0829 12.9087 31.0705 10.2308 34.4039C7.85466 37.3568 4.30089 56.0764 10.344 80.8144C13.4871 93.6871 22.4511 113.446 25.4894 115.687" fill="#F1F3F6"/>
<path id="Vector_4" d="M40.1032 130.042C39.7526 130.053 35.1813 164.151 35.2235 188.975C35.232 194.325 35.363 199.409 35.57 204.195C34.9151 204.876 33.8505 205.674 33.1069 204.286C31.9409 202.089 32.2408 195.671 32.4732 191.932C36.022 134.504 42.5241 96.1192 42.5241 96.1192C47.3023 74.1934 57.2096 62.0845 59.6515 65.0679C61.8146 67.7162 61.7935 77.1396 56.2885 99.3153C53.4241 110.855 44.9871 115.269 42.2156 117.274" fill="#C5CFD7"/>
<path id="Vector_5" d="M44.54 157.661C44.1912 165.633 42.0315 165.359 34.8759 189.464C32.2371 198.363 30.4262 205.489 31.9346 206.713C32.3674 207.063 32.9388 206.826 33.1951 206.713C37.3339 204.918 36.5524 192.256 39.918 177.605C40.1869 176.441 42.3424 170.361 46.6409 158.2C56.0655 131.524 55.326 135.782 55.4647 135.022C55.6832 133.804 56.0487 131.351 57.5656 130.171C58.7589 129.238 59.7883 129.729 62.3556 128.726C63.0447 128.456 63.8094 128.074 64.7086 127.475C65.9481 126.651 68.6121 124.629 71.4315 119.929C75.6417 112.916 82.3772 91.8508 79.4149 89.7432C76.2005 87.4523 61.9858 107.828 60.927 117.234C60.8514 117.891 60.7127 119.665 59.6665 121.007C57.4983 123.794 54.1873 121.212 50.8427 122.624C46.0526 124.646 44.3089 133.534 43.6996 136.639C41.876 145.926 44.9602 148.023 44.54 157.661Z" fill="#F1F3F6"/>
<path id="Vector_6" d="M44.7765 206.897C44.9461 207.679 46.8979 217.155 42.1683 222.735C41.4511 223.585 40.3382 224.62 38.6907 225.375H27.8232C26.6452 224.535 25.8106 223.585 25.215 222.735C21.0854 216.838 23.172 208.101 23.4762 206.897H44.7765Z" fill="#EAEDF1"/>
</g>
<g id="Group">
<path id="Vector_7" d="M160.153 25.8177H101.364C98.7818 25.8177 96.6882 28.0392 96.6882 30.7796V156.666C96.6882 159.406 98.7818 161.627 101.364 161.627H160.153C162.736 161.627 164.83 159.406 164.83 156.666V30.7796C164.83 28.0392 162.736 25.8177 160.153 25.8177Z" fill="#E1E6EA"/>
<path id="Vector_8" d="M156.321 89.7057H105.557C104.442 89.7057 103.538 90.6648 103.538 91.848V106.309C103.538 107.492 104.442 108.451 105.557 108.451H156.321C157.436 108.451 158.34 107.492 158.34 106.309V91.848C158.34 90.6648 157.436 89.7057 156.321 89.7057Z" fill="white"/>
<path id="Vector_9" d="M156.321 38.8248H105.557C104.442 38.8248 103.538 39.784 103.538 40.9672V61.1665C103.538 62.3497 104.442 63.3088 105.557 63.3088H156.321C157.436 63.3088 158.34 62.3497 158.34 61.1665V40.9672C158.34 39.784 157.436 38.8248 156.321 38.8248Z" fill="white"/>
<path id="Vector_10" d="M129.136 32.1298H135.626C136.224 32.1298 136.707 32.6424 136.707 33.2774C136.707 33.9125 136.224 34.4251 135.626 34.4251H129.136C128.538 34.4251 128.054 33.9125 128.054 33.2774C128.054 32.6424 128.538 32.1298 129.136 32.1298Z" fill="#CACECC"/>
<path id="Vector_11" d="M124.629 34.234C125.127 34.234 125.531 33.8058 125.531 33.2776C125.531 32.7494 125.127 32.3212 124.629 32.3212C124.132 32.3212 123.728 32.7494 123.728 33.2776C123.728 33.8058 124.132 34.234 124.629 34.234Z" fill="#CACECC"/>
<path id="Vector_12" d="M130.758 152.828C134.641 152.828 137.789 149.66 137.789 145.751C137.789 141.842 134.641 138.673 130.758 138.673C126.876 138.673 123.728 141.842 123.728 145.751C123.728 149.66 126.876 152.828 130.758 152.828Z" fill="white"/>
<path id="Vector_13" d="M156.321 111.894H105.557C104.442 111.894 103.538 112.853 103.538 114.037V128.497C103.538 129.681 104.442 130.64 105.557 130.64H156.321C157.436 130.64 158.34 129.681 158.34 128.497V114.037C158.34 112.853 157.436 111.894 156.321 111.894Z" fill="white"/>
<path id="Vector_14" d="M156.321 67.1344H105.557C104.442 67.1344 103.538 68.0936 103.538 69.2768V83.7376C103.538 84.9208 104.442 85.88 105.557 85.88H156.321C157.436 85.88 158.34 84.9208 158.34 83.7376V69.2768C158.34 68.0936 157.436 67.1344 156.321 67.1344Z" fill="white"/>
<path id="Vector_15" d="M113.273 127.197C116.26 127.197 118.681 124.628 118.681 121.458C118.681 118.289 116.26 115.72 113.273 115.72C110.286 115.72 107.865 118.289 107.865 121.458C107.865 124.628 110.286 127.197 113.273 127.197Z" fill="#CACECC"/>
<path id="Vector_16" d="M113.273 82.0541C116.26 82.0541 118.681 79.485 118.681 76.3157C118.681 73.1465 116.26 70.5773 113.273 70.5773C110.286 70.5773 107.865 73.1465 107.865 76.3157C107.865 79.485 110.286 82.0541 113.273 82.0541Z" fill="#CACECC"/>
<path id="Vector_17" d="M149.506 104.817C152.493 104.817 154.914 102.248 154.914 99.0784C154.914 95.9092 152.493 93.34 149.506 93.34C146.519 93.34 144.098 95.9092 144.098 99.0784C144.098 102.248 146.519 104.817 149.506 104.817Z" fill="#CACECC"/>
<path id="Vector_18" d="M152.39 54.1272C154.083 54.1272 155.455 52.6713 155.455 50.8754C155.455 49.0795 154.083 47.6237 152.39 47.6237C150.698 47.6237 149.326 49.0795 149.326 50.8754C149.326 52.6713 150.698 54.1272 152.39 54.1272Z" fill="#CACECC"/>
<path id="Vector_19" d="M152.344 52.5969C153.214 52.5969 153.919 51.8484 153.919 50.9251C153.919 50.0018 153.214 49.2533 152.344 49.2533C151.474 49.2533 150.768 50.0018 150.768 50.9251C150.768 51.8484 151.474 52.5969 152.344 52.5969Z" fill="#F9F9F9"/>
<path id="Vector_20" d="M147.343 117.632H122.827C122.13 117.632 121.565 118.232 121.565 118.971C121.565 119.711 122.13 120.31 122.827 120.31H147.343C148.04 120.31 148.605 119.711 148.605 118.971C148.605 118.232 148.04 117.632 147.343 117.632Z" fill="#CACECC"/>
<path id="Vector_21" d="M138.69 122.224H122.827C122.13 122.224 121.565 122.823 121.565 123.562C121.565 124.302 122.13 124.901 122.827 124.901H138.69C139.387 124.901 139.952 124.302 139.952 123.562C139.952 122.823 139.387 122.224 138.69 122.224Z" fill="#CACECC"/>
<path id="Vector_22" d="M134.364 95.444H109.127C108.43 95.444 107.865 96.0434 107.865 96.7829C107.865 97.5224 108.43 98.1219 109.127 98.1219H134.364C135.061 98.1219 135.626 97.5224 135.626 96.7829C135.626 96.0434 135.061 95.444 134.364 95.444Z" fill="#CACECC"/>
<path id="Vector_23" d="M124.99 100.035H109.127C108.43 100.035 107.865 100.634 107.865 101.374C107.865 102.113 108.43 102.713 109.127 102.713H124.99C125.687 102.713 126.252 102.113 126.252 101.374C126.252 100.634 125.687 100.035 124.99 100.035Z" fill="#CACECC"/>
<path id="Vector_24" d="M148.064 72.8729H122.827C122.13 72.8729 121.565 73.4724 121.565 74.2119C121.565 74.9514 122.13 75.5509 122.827 75.5509H148.064C148.761 75.5509 149.326 74.9514 149.326 74.2119C149.326 73.4724 148.761 72.8729 148.064 72.8729Z" fill="#CACECC"/>
<path id="Vector_25" d="M138.69 77.4635H122.827C122.13 77.4635 121.565 78.063 121.565 78.8025C121.565 79.542 122.13 80.1414 122.827 80.1414H138.69C139.387 80.1414 139.952 79.542 139.952 78.8025C139.952 78.063 139.387 77.4635 138.69 77.4635Z" fill="#CACECC"/>
<path id="Vector_26" d="M134.364 46.4762H109.127C108.43 46.4762 107.865 47.0757 107.865 47.8152C107.865 48.5547 108.43 49.1541 109.127 49.1541H134.364C135.061 49.1541 135.626 48.5547 135.626 47.8152C135.626 47.0757 135.061 46.4762 134.364 46.4762Z" fill="#CACECC"/>
<path id="Vector_27" d="M124.99 52.9796H109.127C108.43 52.9796 107.865 53.5791 107.865 54.3186C107.865 55.0581 108.43 55.6576 109.127 55.6576H124.99C125.687 55.6576 126.252 55.0581 126.252 54.3186C126.252 53.5791 125.687 52.9796 124.99 52.9796Z" fill="#CACECC"/>
</g>
<g id="Group_2">
<path id="Vector_28" d="M75.049 208.547C73.7081 210.374 73.152 212.424 72.9373 214.149C74.9083 215.632 77.3685 217.223 80.3285 218.631C85.1997 220.95 89.6626 221.932 92.9992 222.366C92.6508 218.758 91.3133 216.416 90.5355 215.27C89.2543 213.384 87.2165 212.148 83.1442 209.668C78.7904 207.02 77.2101 206.766 76.1049 207.427C75.6967 207.67 75.4749 207.965 75.049 208.547Z" fill="#F0F0F0"/>
<path id="Vector_29" d="M62.378 92.0259C59.8298 92.601 58.3234 94.7634 57.806 95.5925C57.6511 95.6485 57.4047 95.7232 57.0985 95.7605C55.1099 95.9846 53.9555 94.0949 52.171 93.1463C50.3654 92.1865 47.9334 92.2051 46.1876 93.1463C43.3332 94.6887 41.7212 98.8043 42.668 101.363C43.217 102.841 44.3891 103.189 44.4278 104.724C44.463 106.169 43.4423 106.531 43.3719 108.085C43.3121 109.426 43.9914 111.039 45.1317 111.82C46.8317 112.985 48.1375 111.327 51.1151 112.193C52.9629 112.731 53.0896 113.549 54.6348 113.687C56.1095 113.818 57.3625 113.19 58.8583 112.193C62.378 109.848 63.4268 107.865 68.0094 103.23C70.7372 100.47 71.4657 99.9695 71.5291 98.7483C71.698 95.4543 66.8198 91.0212 62.378 92.0259Z" fill="black"/>
<path id="Vector_30" d="M59.5617 108.085C60.1424 108.929 59.7834 110.105 59.2097 112.193C57.9462 116.779 58.0095 117.134 58.1538 117.421C59.0936 119.274 63.9507 119.255 64.8411 117.421C65.538 115.98 63.6269 113.765 64.1372 113.313C64.7109 112.805 66.8016 115.894 69.0647 115.554C71.5355 115.181 72.7604 110.934 72.9363 110.326C74.0767 106.371 73.3763 100.742 70.4726 99.495C69.48 99.0693 67.9596 99.0357 66.9529 99.8685C65.1051 101.403 66.2983 104.798 64.4892 105.844C63.8592 106.206 62.9722 106.221 62.3774 105.844C61.2933 105.157 61.6911 103.495 60.9695 103.23C59.9453 102.853 57.6048 105.646 58.1538 106.964C58.4072 107.573 59.0795 107.383 59.5617 108.085Z" fill="#B38B66"/>
<path id="Vector_31" d="M29.2935 224.98C37.9764 224.857 46.6559 224.73 55.3388 224.606C53.8148 215.146 52.2873 205.683 50.7633 196.223C45.4838 195.973 40.2044 195.726 34.9249 195.476C33.0489 205.309 31.1694 215.146 29.2935 224.98Z" fill="#CACECC"/>
<path id="Vector_32" d="M68.7133 148.793C73.4789 153.457 81.4192 158.051 84.5517 159.25C85.6498 159.672 87.3076 160.112 89.4792 161.491C91.5136 162.783 91.7916 163.5 92.6469 163.358C92.6469 163.358 94.6566 162.809 96.5185 155.889C96.5185 155.889 96.9514 154.275 96.8705 153.648C96.7614 152.778 95.3993 151.765 90.1832 151.033C85.2064 146.294 79.4412 139.912 73.9928 131.613C70.6174 126.471 67.9707 121.518 65.8976 117.048C63.5113 117.026 61.0792 117.515 59.5622 119.289C54.8811 124.756 60.0585 140.319 68.7133 148.793Z" fill="#1D8729"/>
<path id="Vector_33" d="M61.3218 162.237C62.9971 163.739 66.7667 165.393 76.1043 161.491C76.1184 160.142 76.0761 158.043 75.7523 155.515C74.6401 146.81 71.3317 141.984 69.065 136.095C67.4847 131.994 65.7812 125.746 65.8973 117.048C62.6381 116.435 59.3508 116.499 57.4502 118.542C54.2227 122.011 57.9852 127.972 59.21 141.323C60.3856 154.156 57.8761 159.153 61.3218 162.237Z" fill="white"/>
<path id="Vector_34" d="M85.2557 177.923C81.4932 184.071 79.2406 189.587 77.8644 193.609C75.4992 200.526 74.2779 204.268 76.1046 207.427C78.1777 211.016 83.5522 212.757 87.3675 211.162C91.1476 209.586 91.2074 205.653 95.8146 194.729C101.003 182.431 104.371 179.249 102.854 176.803C100.436 172.911 89.1414 176.56 85.2557 177.923Z" fill="#037526"/>
<path id="Vector_35" d="M59.5622 177.176C64.5988 183.45 73.0107 183.503 76.8084 183.525C86.0721 183.581 90.2253 179.342 93.3508 182.031C95.1775 183.604 94.9909 186.113 94.7586 195.103C94.2377 215.333 94.7199 220.33 97.2224 221.619C98.1269 222.086 99.936 221.682 103.558 220.872C107.398 220.013 109.316 219.587 110.597 218.258C112.276 216.517 112.191 214.444 112.709 207.8C113.346 199.607 113.501 202.367 113.765 196.97C114.648 178.857 115.088 169.8 111.653 165.599C108.239 161.423 104.74 163.328 85.9595 161.117C66.2741 158.802 60.3611 155.56 57.0984 159.623C53.7899 163.746 55.6659 172.321 59.5622 177.176Z" fill="#00A037"/>
<path id="Vector_36" d="M73.2889 224.607C72.585 214.646 71.8811 204.689 71.1771 194.729H50.7632L54.9868 224.98C61.0863 224.857 67.1894 224.73 73.2889 224.607Z" fill="#F0F0F0"/>
<path id="Vector_37" d="M97.2222 219.752C95.3885 222.205 97.7432 226.866 97.9262 227.221C101.664 227.232 108.292 227.198 114.469 226.847C115.676 226.78 117.823 226.631 118.34 225.354C118.984 223.766 116.721 221.391 116.58 221.245C115.725 220.364 113.824 218.818 104.262 218.631C98.6583 218.523 97.7678 219.02 97.2222 219.752Z" fill="#F0F0F0"/>
<path id="Vector_38" d="M60.9701 116.301C59.7524 115.607 58.2495 116.152 57.0985 116.675C50.2176 119.797 45.8322 126.613 36.3326 139.83C35.9384 140.379 29.6699 149.095 28.2374 154.021C27.6884 155.904 26.7979 157.685 26.4776 159.623C26.2629 160.923 26.2207 161.999 25.4217 162.611C24.3694 163.422 22.9897 162.663 22.606 163.358C22.3033 163.911 23.1058 164.501 23.3099 165.972C23.5211 167.507 22.8172 168.123 22.958 168.96C23.2642 170.805 27.4138 172.265 29.9973 171.948C39.437 170.794 42.7771 144.181 45.8357 144.685C47.1626 144.905 48.1974 150.201 47.5955 156.262C46.1489 170.798 36.7057 175.473 29.9973 195.103C27.6321 202.027 27.6074 204.955 28.9414 206.307C31.3277 208.723 36.0088 204.021 45.8357 204.066C50.3479 204.085 50.4922 205.082 59.5623 205.933C66.1511 206.553 69.4771 206.833 71.1771 205.56C73.6761 203.685 74.5736 199.596 72.9369 184.646C71.156 168.4 68.0024 154.111 66.6016 148.046C63.6169 135.113 62.825 134.418 62.73 129.373C62.6209 123.558 63.55 117.776 60.9701 116.301Z" fill="#00A037"/>
<path id="Vector_39" d="M29.645 169.334C30.1835 171.167 27.3995 172.183 27.1813 175.309C26.9877 178.11 29.0256 180.093 28.2372 180.911C27.8254 181.337 26.949 181.131 26.4773 180.911C25.344 180.377 25.4954 179.227 24.7175 178.67C23.2287 177.602 21.0184 180.627 17.6782 180.538C15.4644 180.478 13.0816 179.059 13.1027 177.923C13.1379 176.03 19.8358 176.81 22.9577 171.948C24.2776 169.894 24.2212 167.982 25.7734 167.466C27.1989 166.996 29.2367 167.948 29.645 169.334Z" fill="#B38B66"/>
<path id="Vector_40" d="M93.351 155.889C91.9889 156.105 90.7359 159.112 91.5912 160.744C92.281 162.066 93.703 161.252 95.8148 162.611C98.7713 164.516 98.7607 167.907 101.094 168.213C101.224 168.232 102.206 168.348 102.502 167.84C102.865 167.22 101.83 166.323 102.15 165.599C102.523 164.758 104.424 164.841 104.966 164.852C106.254 164.874 106.937 165.315 107.43 164.852C107.711 164.587 107.838 164.109 107.782 163.731C107.595 162.48 105.416 162.29 101.446 160.744C98.7678 159.698 97.4268 159.179 96.1667 158.129C94.5688 156.8 94.1817 155.758 93.351 155.889Z" fill="#B38B66"/>
</g>
<g id="Group 10">
<path id="Vector_41" d="M181.292 203.26C182.723 205.319 184.487 207.843 183.436 209.745C182.611 211.242 180.327 211.82 178.611 211.366C176.397 210.777 175.485 208.561 174.858 207.043C174.354 205.816 173.952 204.849 174.322 203.801C174.997 201.877 177.85 200.807 179.683 201.639C179.951 201.764 180.434 202.034 181.292 203.26Z" fill="#FFD8C0"/>
<path id="Vector_42" d="M184.37 203.007C183.839 203.934 182.809 203.812 180.122 204.662C176.017 205.957 175.687 207.099 174.28 206.867C171.848 206.47 170.802 202.726 168.97 198.045C167.18 193.479 164.695 189.238 162.597 184.81C155.598 170.027 149.342 166.603 150.914 162.754C151.801 160.576 155.083 158.552 165.252 158.894C170.759 172.233 174.455 179.748 176.935 184.259C179.251 188.472 180.329 193.358 182.777 197.493C183.685 199.026 185.241 201.485 184.37 203.007Z" fill="#67CE69"/>
<path id="Vector_43" d="M184.383 155.687C167.378 157.504 154.945 159.04 152.21 159.541C151.473 159.678 150.077 159.986 149.096 161.192C148.354 162.106 148.131 163.201 148.058 163.944C148.048 166.983 148.126 171.573 148.577 177.155C149.278 185.792 149.989 185.742 150.653 193.669C151.431 202.949 150.612 205.663 152.729 207.43C155.811 210.006 161.063 208.234 164.145 206.879C163.491 200.753 162.957 194.324 162.588 187.614C162.318 182.698 162.147 177.92 162.069 173.302C170.782 172.207 178.426 172.46 184.902 173.302C192.245 174.254 195.851 175.68 198.394 173.302C202.742 169.234 202.182 155.831 195.28 152.935C190.335 150.865 184.834 155.313 184.383 155.687Z" fill="#A9FFA5"/>
<path id="Vector_44" d="M160.539 129.925C159.86 128.835 160.003 127.378 158.498 125.408C158.426 125.312 158.35 125.221 158.278 125.131C157.952 124.736 157.36 124.928 157.263 125.453C157.166 126.001 157.064 126.548 156.967 127.102C156.88 127.858 156.651 128.129 156.457 128.231C155.651 128.654 154.538 126.695 151.864 125.408C150.747 124.866 149.803 124.414 149.313 124.843C148.384 125.662 149.165 129.631 151.354 132.183C153.017 134.126 154.053 133.561 159.518 136.136C163.442 137.982 164.223 138.897 165.642 138.394C167.969 137.575 169.602 133.815 168.703 132.183C167.494 129.987 162.279 132.72 160.539 129.925Z" fill="#FFD8C0"/>
<path id="Vector_45" d="M172.193 123.287C171.247 123.176 169.373 122.779 167.556 122.377C167.556 122.377 167.546 122.377 167.541 122.377C167.062 122.271 165.199 120.969 165.576 120.646C165.825 120.429 167.8 120.879 168.055 120.662C168.503 120.329 168.589 120.069 168.579 119.889C168.543 119.148 166.884 119.032 165.056 117.534C164.293 116.909 163.651 116.38 163.738 115.872C163.906 114.903 166.721 114.072 169.165 114.766C171.023 115.295 171.053 116.253 174.749 119.334C177.401 121.546 178.272 121.795 178.485 123.007C178.842 124.997 177.07 127.516 175.696 127.442C173.848 127.336 174.622 123.578 172.193 123.298V123.287Z" fill="#FFD8C0"/>
<path id="Vector_46" d="M174.178 127.561C175.887 129.535 178.598 132.117 182.488 134.016C183.086 134.306 185.652 135.527 189.241 136.167C192.289 136.711 193.832 136.985 195.473 136.167C198.309 134.753 200.215 130.686 199.109 128.637C198.319 127.174 196.585 127.83 190.279 126.486C185.792 125.528 183.553 125.055 181.45 123.796C179.045 122.36 177.201 120.461 176.256 121.107C175.887 121.36 175.882 121.838 175.736 122.72C175.544 123.888 175.134 125.555 174.178 127.561Z" fill="#AA57AA"/>
<path id="Vector_47" d="M186.176 214.204C185.755 215.231 184.724 215.567 182.073 216.333C177.169 217.749 174.718 218.457 171.815 218.994C165.388 220.186 164.773 219.851 164.634 219.526C164.424 219.026 165.224 218.27 166.686 216.865C173.4 210.415 175.559 208.132 176.944 208.882C177.605 209.244 177.467 209.957 178.482 210.479C179.257 210.878 180.575 211.091 181.56 210.479C182.165 210.101 182.334 209.601 183.098 209.414C183.098 209.414 183.616 209.287 184.124 209.414C185.596 209.782 186.863 212.522 186.176 214.204Z" fill="#F0F0F0"/>
<path id="Vector_48" d="M154.423 210.63C153.45 210.443 153.083 210.907 148.73 213.463C145.211 215.531 144.502 215.774 143.555 215.729C142.474 215.678 141.863 215.287 140.968 215.729C139.927 216.239 139.11 217.633 139.415 218.562C139.674 219.35 140.667 219.61 140.968 219.695C141.516 219.842 141.78 219.735 143.038 219.695C143.555 219.678 144.073 219.695 144.59 219.695H153.388C154.423 219.695 155.458 219.661 156.493 219.695C158.672 219.769 159.805 219.961 161.668 219.695C162.74 219.542 163.278 219.463 163.738 219.129C165.405 217.922 166.104 214.567 164.774 212.896C163.956 211.871 162.621 211.791 162.186 211.763C160.183 211.644 159.671 213.032 158.046 212.896C156.24 212.743 156.193 210.97 154.423 210.63Z" fill="#F0F0F0"/>
<g id="Group_3">
<path id="Vector_49" d="M215.857 225.258C198.964 225.258 185.27 210.973 185.27 193.352C185.27 175.731 198.964 161.446 215.857 161.446C232.75 161.446 246.445 175.731 246.445 193.352C246.445 210.973 232.75 225.258 215.857 225.258Z" fill="black"/>
<path id="Vector_50" d="M215.603 219.702C201.43 219.702 189.941 208.028 189.941 193.627C189.941 179.227 201.43 167.552 215.603 167.552C229.776 167.552 241.266 179.227 241.266 193.627C241.266 208.028 229.776 219.702 215.603 219.702Z" fill="white"/>
<path id="Vector_51" d="M214.043 167.772H217.153V219.482H214.043V167.772Z" fill="black"/>
<path id="Vector_52" d="M189.936 195.008V191.707H241.261V195.008H189.936Z" fill="black"/>
<path id="Vector_53" d="M196.911 175.687L199.11 173.353L234.277 210.668L232.077 213.002L196.911 175.687Z" fill="black"/>
<path id="Vector_54" d="M199.275 213.179L197.076 210.845L232.243 173.53L234.442 175.864L199.275 213.179Z" fill="black"/>
</g>
<path id="Vector_55" d="M176.768 132.985C169.893 130.588 169.003 130.217 169.003 130.217C165.463 128.727 164.484 127.996 163.309 128.555C161.798 129.275 162.202 131.08 160.204 136.861C158.92 140.572 158.174 141.518 158.651 142.953C159.349 145.04 161.886 145.832 163.309 146.275C179.294 151.253 179.076 151.225 179.356 151.259C196.815 153.346 205.594 154.337 207.825 151.812C211.562 147.582 211.692 139.032 208.343 135.754C205.289 132.764 201.603 136.38 188.673 135.2C184.718 134.84 181.162 134.519 176.768 132.985Z" fill="#CE67CC"/>
<g id="Group_4">
<path id="Vector_56" d="M142.239 219.757H161.421C161.994 219.757 162.458 220.25 162.458 220.858C162.458 221.465 161.994 221.958 161.421 221.958H142.239C141.667 221.958 141.202 221.465 141.202 220.858C141.202 220.25 141.667 219.757 142.239 219.757Z" fill="#00A037"/>
<path id="Vector_57" d="M171.728 158.62L172.256 158.709C173.387 158.899 174.159 160.026 173.979 161.227L165.854 215.602C165.674 216.802 164.612 217.621 163.481 217.431L162.953 217.342C161.822 217.152 161.051 216.024 161.23 214.824L169.355 160.449C169.535 159.248 170.597 158.43 171.728 158.62Z" fill="#00A037"/>
<path id="Vector_58" d="M171.702 157.87H191.061C192.587 157.87 193.824 159.183 193.824 160.803V179.693C193.824 181.313 192.587 182.625 191.061 182.625H171.702C170.176 182.625 168.939 181.313 168.939 179.693V160.803C168.939 159.183 170.176 157.87 171.702 157.87Z" fill="#00A037"/>
</g>
<path id="Vector_59" d="M191.324 88.5948C192.148 86.905 193.623 86.2046 194.473 85.8155C200.373 83.1139 208.178 87.3552 208.12 89.7066C208.11 90.1568 207.805 90.7516 208.12 91.3742C208.451 92.0301 209.123 92.0301 209.695 92.4859C210.666 93.253 210.713 94.8039 210.745 95.8211C210.824 98.367 208.483 102.052 204.446 105.271C203.727 104.343 202.651 102.981 201.297 101.38C198.898 98.5393 197.696 97.1163 196.573 96.377C193.827 94.5704 192.358 95.3153 191.324 93.5977C190.426 92.1079 190.62 90.0345 191.324 88.5948Z" fill="black"/>
<path id="Vector_60" d="M204.398 105.729C204.863 109.926 204.583 110.395 204.398 110.635C203.139 112.281 199.276 111.998 198.313 110.362C197.71 109.343 198.445 108.149 197.784 107.637C197.144 107.141 196.186 108.062 194.609 108.182C192.953 108.313 191.43 107.495 190.641 106.819C186.726 103.445 190.863 94.6247 191.594 93.8397L191.599 93.8342C191.599 93.8342 191.726 93.6979 191.858 93.5726C191.985 93.4581 192.811 92.853 193.281 92.6459C194.382 92.1716 197.747 92.0462 198.572 93.7361C199.197 95.0117 197.953 96.4835 198.572 97.0069C198.99 97.3612 199.673 96.7834 201.747 96.4617C202.932 96.2764 203.525 96.1837 203.863 96.4617C204.62 97.0777 203.842 98.5169 203.863 101.368C203.874 102.622 204.022 102.409 204.393 105.729H204.398Z" fill="#FFD8C0"/>
<path id="Vector_61" d="M194.487 110.365C196.459 109.543 201.742 107.679 205.903 110.365C208.057 111.757 209.24 114.762 211.612 120.781C213.615 125.869 214.928 129.202 215.244 133.939C215.509 137.914 214.762 138.254 215.244 141.614C215.919 146.324 218.182 147.974 219.396 152.031C221.466 158.933 223.651 166.219 220.434 170.671C217.87 174.223 213.049 174.35 206.941 174.509C201.389 174.657 193.62 174.859 188.778 169.574C185.462 165.951 184.648 160.984 184.627 154.224C184.601 145.775 185.795 130.403 194.487 110.365Z" fill="#CE67CC"/>
<path id="Vector_62" d="M162.424 226.299C158.817 226.299 155.894 223.196 155.894 219.37C155.894 215.543 158.817 212.441 162.424 212.441C166.03 212.441 168.954 215.543 168.954 219.37C168.954 223.196 166.03 226.299 162.424 226.299Z" fill="#1D8729"/>
</g>
<g id="Group 11">
<path id="Vector_63" d="M47.1119 51.1222H30.6645C30.2975 51.1222 30 51.4352 30 51.8213V63.3573C30 63.7434 30.2975 64.0564 30.6645 64.0564H47.1119C47.4789 64.0564 47.7764 63.7434 47.7764 63.3573V51.8213C47.7764 51.4352 47.4789 51.1222 47.1119 51.1222Z" fill="#F2F2F2"/>
<path id="Vector_64" d="M32.0317 53.817L39.1729 59.2063L45.745 53.817" stroke="#B3BCC8" stroke-width="2" stroke-miterlimit="10"/>
<path id="Vector_65" d="M45.7448 62.4395L40.158 58.1281" stroke="#B3BCC8" stroke-width="2" stroke-miterlimit="10"/>
<path id="Vector_66" d="M32.5393 62.4395L37.6183 58.1281" stroke="#B3BCC8" stroke-width="2" stroke-miterlimit="10"/>
</g>
<g id="Group 15">
<path id="Vector_67" d="M186.234 28.5892H172.137C171.822 28.5892 171.567 28.8575 171.567 29.1885V39.0765C171.567 39.4074 171.822 39.6757 172.137 39.6757H186.234C186.549 39.6757 186.804 39.4074 186.804 39.0765V29.1885C186.804 28.8575 186.549 28.5892 186.234 28.5892Z" fill="#F2F2F2"/>
<path id="Vector_68" d="M173.308 30.899L179.429 35.5184L185.062 30.899" stroke="#B3BCC8" stroke-width="2" stroke-miterlimit="10"/>
<path id="Vector_69" d="M185.062 38.2901L180.274 34.5946" stroke="#B3BCC8" stroke-width="2" stroke-miterlimit="10"/>
<path id="Vector_70" d="M173.743 38.2901L178.097 34.5946" stroke="#B3BCC8" stroke-width="2" stroke-miterlimit="10"/>
</g>
<g id="Group 13">
<path id="Vector_71" d="M171.198 77.6548H185.04C185.257 77.6548 185.442 77.8428 185.442 78.0873V87.4946C185.442 87.7392 185.257 87.9271 185.04 87.9271H171.198C170.982 87.9271 170.796 87.7392 170.796 87.4946V78.0873C170.796 77.8428 170.982 77.6548 171.198 77.6548Z" fill="#FBFBFD" stroke="#F2F2F2" stroke-width="0.2"/>
<path id="Vector_72" d="M171.198 77.6548H185.04C185.257 77.6548 185.442 77.8428 185.442 78.0873V87.4946C185.442 87.7392 185.257 87.9271 185.04 87.9271H171.198C170.982 87.9271 170.796 87.7392 170.796 87.4946V78.0873C170.796 77.8428 170.982 77.6548 171.198 77.6548Z" fill="#FBFBFD" stroke="#F2F2F2" stroke-width="0.2"/>
<path id="Vector_73" d="M176.3 80.5277L171.951 87.9382H184.449L180.649 82.4802L178.893 84.9651L176.3 80.5277Z" fill="#C5CFD7"/>
<path id="Vector_74" d="M182.197 82.0809C183.005 82.0809 183.66 81.3856 183.66 80.5278C183.66 79.6701 183.005 78.9747 182.197 78.9747C181.388 78.9747 180.733 79.6701 180.733 80.5278C180.733 81.3856 181.388 82.0809 182.197 82.0809Z" fill="#F1F3F6"/>
</g>
<g id="Group 14">
<path id="Vector_75" d="M75.6641 103.222H93.9816C94.2876 103.222 94.5457 103.487 94.5457 103.827V116.276C94.5457 116.615 94.2876 116.88 93.9816 116.88H75.6641C75.3581 116.88 75.1 116.615 75.1 116.276V103.827C75.1 103.487 75.3581 103.222 75.6641 103.222Z" fill="#FBFBFD" stroke="#F2F2F2" stroke-width="0.2"/>
<path id="Vector_76" d="M75.6641 103.222H93.9816C94.2876 103.222 94.5457 103.487 94.5457 103.827V116.276C94.5457 116.615 94.2876 116.88 93.9816 116.88H75.6641C75.3581 116.88 75.1 116.615 75.1 116.276V103.827C75.1 103.487 75.3581 103.222 75.6641 103.222Z" fill="#FBFBFD" stroke="#F2F2F2" stroke-width="0.2"/>
<path id="Vector_77" d="M82.4158 107.057L76.6604 116.863H93.1999L88.1711 109.64L85.8468 112.929L82.4158 107.057Z" fill="#C5CFD7"/>
<path id="Vector_78" d="M90.2189 109.112C91.2886 109.112 92.1558 108.192 92.1558 107.057C92.1558 105.922 91.2886 105.001 90.2189 105.001C89.1492 105.001 88.282 105.922 88.282 107.057C88.282 108.192 89.1492 109.112 90.2189 109.112Z" fill="#F1F3F6"/>
</g>
<circle id="Ellipse 14" cx="230" cy="65.1222" r="11" fill="#EAFBEC"/>
<circle id="Ellipse 10" cx="209.5" cy="28.6222" r="6.5" fill="#F0F0F0"/>
<circle id="Ellipse 8" cx="230" cy="65.1222" r="11" fill="#F0F0F0"/>
<circle id="Ellipse 13" cx="21.5" cy="15.6222" r="15.5" fill="#F0F0F0"/>
<circle id="Ellipse 12" cx="108.5" cy="17.6222" r="4.5" fill="#F0F0F0"/>
<circle id="Ellipse 9" cx="133" cy="178.122" r="11" fill="#EAFBEC"/>
<circle id="Ellipse 11" cx="55.5" cy="50.6222" r="4.5" fill="#F0F0F0"/>
</g>
</svg>
