<svg width="476" height="405" viewBox="0 0 476 405" fill="none" xmlns="http://www.w3.org/2000/svg">
<path d="M213.483 104.08C132.261 102.538 101.472 79.9665 82.3725 115.94C65.6836 147.361 66.5781 207.164 82.3725 244.579C105.289 298.863 145.683 273.108 232.372 307.531C327.033 345.119 342.755 401.209 391.26 381.43C435.732 363.293 480.049 292.687 475.705 227.245C470.177 143.976 388.344 106.561 372.927 99.5179C320.594 75.5964 309.177 105.895 213.483 104.08Z" fill="#F1F3F6"/>
<path d="M144.998 311.255C147.887 311.174 150.931 311.001 154.111 310.728C157.999 310.383 161.661 309.92 165.077 309.366C164.95 305.114 164.822 300.871 164.695 296.619C161.624 296.883 158.245 297.319 154.638 298.018C150.168 298.881 146.17 299.999 142.682 301.162C142.445 302.161 142.191 303.769 142.491 305.704C142.927 308.484 144.281 310.392 144.989 311.265L144.998 311.255Z" fill="#B38B66"/>
<path d="M223.776 231.787C222.804 239.019 221.305 241.227 219.425 248.886C217.844 255.336 216.199 264.767 216.436 276.95C186.827 274.624 163.923 281.42 159.326 294.575C157.781 298.991 157.672 305.923 161.406 310.12C166.149 315.444 172.954 311.683 193.141 312.346C209.849 312.9 214.437 315.771 225.857 312.8C225.857 312.8 232.907 310.965 239.739 307.013C255.647 297.81 267.522 260.46 266.441 211.736C236.696 203.005 227.483 205.731 224.685 210.001C222.087 213.962 225.575 218.432 223.776 231.787Z" fill="#EEAFE4"/>
<path d="M199.592 233.677C198.43 237.502 197.848 239.409 197.712 241.208C197.258 247.123 201.155 250.83 199.856 251.938C198.829 252.819 195.749 251.011 195.132 250.648C193.124 249.467 193.197 248.695 192.115 248.249C189.008 246.968 186.128 252.438 180.795 253.201C176.598 253.8 171.428 251.329 171.147 248.822C170.692 244.752 183.457 244.097 187.754 234.113C189.253 230.633 188.89 227.935 191.443 226.372C194.514 224.492 199.647 225.6 200.783 228.044C201.273 229.107 200.737 229.924 199.602 233.668L199.592 233.677Z" fill="#B38B66"/>
<path d="M329.465 218.359C331.573 221.203 332.627 222.62 333.281 224.074C335.425 228.862 333.281 233.123 334.698 233.659C335.816 234.086 337.851 231.66 338.251 231.179C339.577 229.598 339.286 228.971 340.049 228.281C342.257 226.282 346.291 229.989 350.97 229.035C354.649 228.281 358.22 224.674 357.702 222.502C356.866 218.977 346.027 222.239 339.468 215.198C337.178 212.745 336.679 210.383 334.09 209.847C330.964 209.192 327.021 211.645 326.803 214.026C326.712 215.062 327.412 215.579 329.465 218.359Z" fill="#B38B66"/>
<path d="M334.144 376.415C337.124 384.165 337.324 385.618 339.177 386.627C342.602 388.498 347.145 386.381 349.234 385.228C346.818 377.85 344.392 370.473 341.975 363.105C341.003 362.96 332.972 361.797 330.973 365.376C330.11 366.921 331 368.229 334.153 376.424L334.144 376.415Z" fill="#B38B66"/>
<path d="M262.389 265.221C278.761 297.237 286.955 313.254 292.725 322.858C301.419 337.339 313.275 355.71 328.693 376.188L347.981 371.536C342.103 349.168 334.998 325.429 326.385 300.617C311.386 257.435 297.185 226.327 292.606 216.46C289.536 209.855 286.91 204.422 285.075 200.688C273.282 200.507 250.905 201.697 244.491 214.462C240.766 221.884 244.209 229.689 262.38 265.221H262.389Z" fill="#FAEAF8"/>
<path d="M208.423 229.325C188.29 231.715 181.939 227.336 179.477 223.601C174.035 215.334 182.466 205.74 217.072 144.833C217.072 144.833 225.994 129.124 243.355 119.503C246.026 118.022 249.233 116.768 252.513 117.768C256.556 119.003 258.737 123.073 259.3 124.391C263.425 134.076 224.722 156.089 237.568 161.54C241.475 163.194 212.329 230.988 208.432 229.325H208.423Z" fill="#A9FFA5"/>
<path d="M316.065 221.076C335.943 217.087 338.333 210.092 339.514 205.767C342.112 196.21 331.119 189.723 279.288 142.589C279.288 142.589 265.923 130.432 246.426 126.689C243.428 126.108 239.985 125.926 237.187 127.889C233.734 130.314 232.917 134.866 232.799 136.292C231.89 146.786 254.503 155.653 265.006 164.838C277.071 175.395 295.368 193.33 316.074 221.067L316.065 221.076Z" fill="#67CE69"/>
<path d="M268.103 109.999C266.695 111.262 270.347 114.815 268.721 117.313C266.613 120.556 256.42 120.775 254.094 116.904C252.558 114.36 254.548 110.236 256.029 107.147C257.31 104.485 257.919 104.421 258.182 102.931C258.9 98.8973 254.784 97.1348 253.994 93.6369C252.549 87.1955 262.616 75.9026 272.9 76.3023C278.787 76.5295 282.576 80.5088 283.394 81.3719C292.742 91.2021 287.446 110.772 280.159 112.852C275.499 114.179 269.866 108.41 268.094 109.999H268.103Z" fill="#B38B66"/>
<path d="M290.944 190.931C294.096 202.042 295.441 202.86 294.841 206.548C291.489 227.263 242.174 244.806 225.702 229.134C221.46 225.1 220.733 218.123 219.461 204.322C217.517 183.308 215.354 161.549 227.628 139.19C233.416 128.661 240.293 121.429 244.909 117.177C245.617 114.778 246.317 112.389 247.025 109.99C256.074 110.972 265.132 111.953 274.181 112.943C278.215 127.616 281.304 140.126 283.566 149.702C287.727 167.355 286.174 174.132 290.944 190.931Z" fill="#A9FFA5"/>
<path d="M285.384 84.3158C286.556 83.4254 283.613 74.313 275.999 69.3797C274.282 68.2713 269.712 65.3004 264.316 66.1635C258.401 67.1084 258.019 71.6146 253.159 72.0598C247.081 72.6231 245.482 65.8001 237.996 65.0642C232.69 64.5463 225.949 67.2356 224.077 71.76C222.178 76.339 226.63 79.5006 225.213 88.177C224.622 91.7838 223.714 92.1291 224.041 94.4912C224.731 99.4427 229.592 104.176 234.516 104.93C236.151 105.175 236.506 104.794 239.059 105.121C242.711 105.584 244.546 106.774 246.245 107.238C250.397 108.373 256.366 106.911 258.238 103.186C259.01 101.65 259.564 99.1792 258.465 97.7438C257.656 96.6899 256.593 96.9988 255.821 95.8177C254.94 94.4731 255.312 92.5288 256.012 91.2751C256.693 90.0667 258.11 88.7403 259.755 88.704C262.971 88.6313 263.889 93.5464 266.832 93.5464C268.422 93.5464 269.803 91.8111 272.501 88.3224C276.126 83.6526 276.317 81.7901 278.252 81.2904C281.559 80.4364 284.494 84.9972 285.402 84.3158H285.384Z" fill="#393939"/>
<path d="M145.49 299.454C145.117 298.89 144.445 298.79 143.709 298.472C139.521 296.664 134.215 297.582 131.835 299.799C128.782 302.634 130.036 308.048 132.025 317.088C133.361 323.13 135.459 332.806 138.112 345.534C140.147 345.734 142.791 345.643 144.545 343.98C147.07 341.591 145.626 338.03 145.944 332.215C146.58 320.622 153.366 316.089 150.441 311.492C148.569 308.539 144.699 308.721 144.318 305.777C143.991 303.269 146.553 301.089 145.49 299.463V299.454Z" fill="#F0F0F0"/>
<path d="M336.915 383.429C336.288 383.665 336.043 384.301 335.571 384.955C332.909 388.662 332.663 394.04 334.317 396.838C336.434 400.427 341.985 400.364 351.243 400.364C357.43 400.364 367.324 400.382 380.334 400.518C380.97 398.574 381.442 395.966 380.197 393.904C378.408 390.924 374.619 391.569 369.013 390.015C357.829 386.908 354.859 379.304 349.735 381.175C346.446 382.375 345.792 386.191 342.839 385.936C340.313 385.718 338.741 382.747 336.924 383.438L336.915 383.429Z" fill="#F0F0F0"/>
<path d="M52.4403 289.157C53.4037 289.157 69.3089 324.408 70.7443 350.002C71.0526 355.517 71.0237 360.768 70.7443 365.704C72.5747 366.381 75.5515 367.166 77.4879 365.704C80.5514 363.398 79.3183 356.793 78.4513 352.946C65.1472 293.868 43.77 260.698 43.77 260.698C29.3195 238.274 8.83836 206.497 2.34526 209.667C-3.40604 212.473 1.30483 242.945 17.7591 265.605C26.3138 277.391 37.0265 286.213 44.7334 288.176" fill="#46AF4C"/>
<path d="M65.0788 208.537C65.9926 208.566 79.0732 278.23 78.954 328.544C78.9341 339.392 78.5964 349.695 78.0501 359.384C79.7485 360.757 82.5295 362.383 84.4564 359.569C87.4956 355.119 86.7109 342.109 86.1051 334.533C76.8682 218.138 59.9539 140.334 59.9539 140.334C47.5189 95.8913 28.4294 44.9924 22.0828 51.0492C16.4513 56.4147 8.02886 90.4285 22.3509 135.378C29.8 158.768 51.0448 194.671 58.2455 198.741" fill="#67CE69"/>
<path d="M92.2698 224.169C91.4544 224.188 80.8257 286.444 80.924 331.767C80.9436 341.535 81.2481 350.817 81.7295 359.555C80.2069 360.798 77.7314 362.254 76.0026 359.72C73.2914 355.71 73.9888 343.991 74.5291 337.165C82.7806 232.315 97.8984 162.233 97.8984 162.233C109.008 122.202 132.044 100.094 137.722 105.54C142.751 110.376 142.702 127.581 129.902 168.068C123.242 189.138 103.625 197.196 97.1813 200.857" fill="#1F9030"/>
<path d="M104.227 274.273C103.427 288.627 98.468 288.132 82.0391 331.533C75.9808 347.556 71.8229 360.386 75.2862 362.589C76.2799 363.22 77.5919 362.793 78.1803 362.589C87.6827 359.357 85.8883 336.56 93.6156 310.182C94.233 308.086 99.1819 297.138 109.051 275.244C130.689 227.213 128.991 234.88 129.31 233.512C129.811 231.319 130.651 226.903 134.133 224.777C136.873 223.098 139.236 223.982 145.131 222.176C146.713 221.691 148.469 221.002 150.533 219.925C153.379 218.44 159.495 214.801 165.968 206.338C175.635 193.711 191.099 155.784 184.298 151.989C176.918 147.865 144.282 184.55 141.851 201.485C141.677 202.669 141.359 205.862 138.957 208.279C133.979 213.296 126.377 208.648 118.698 211.19C107.7 214.83 103.697 230.833 102.298 236.423C98.1111 253.145 105.192 256.921 104.227 274.273Z" fill="#67CE69"/>
<path d="M108.426 313.696C113.476 305.727 118.468 298.029 122.954 291.766C123.355 291.204 125.737 287.811 130.605 281.102C134.354 275.925 136.592 272.929 140.169 272.376C142.301 272.047 142.827 272.919 144.951 272.376C148.155 271.562 151.999 268.314 151.645 264.62C151.234 260.383 145.419 256.709 141.125 258.803C138.323 260.17 136.649 263.748 137.3 267.529C134.909 270.602 131.59 274.916 127.736 280.132C122.887 286.696 113.82 299.212 100 320.851C75.9947 358.448 77.1137 361.783 77.9936 362.569C78.6822 363.179 79.9446 362.879 80.8723 362.539C82.6034 358.031 85.3961 351.4 89.566 343.76C92.1387 339.058 93.6976 337.09 99.0438 328.607C102.123 323.721 105.279 318.65 108.426 313.696Z" fill="#88EF87"/>
<path d="M103.471 362.92C103.863 364.371 108.377 381.965 97.4378 392.325C95.7788 393.904 93.2048 395.825 89.394 397.226H64.2573C61.5325 395.668 59.602 393.904 58.2245 392.325C48.6725 381.377 53.4988 365.155 54.2026 362.92H103.471Z" fill="#C8FFC3"/>
<path d="M404.232 396.913C395.578 395.584 389.801 389.957 388.802 388.968C387.812 387.978 378.348 378.304 380.057 368.131C381.606 358.926 393.009 355.618 394.808 347.094C396.647 338.409 379.747 331.174 379.498 320.97C379.238 310.117 390.551 310.107 391.79 297.095C392.709 287.381 390.581 289.42 391.87 281.015C393.429 270.841 403.203 266.014 410.668 267.483C417.494 268.833 422.141 277.657 422.381 278.387C425.399 287.521 421.591 290.969 424.819 297.635C428.307 304.83 430.386 303.051 434.933 310.557C439.27 317.712 436.902 321.54 434.103 327.616C430.336 335.791 429.137 334.032 427.608 339.948C424.929 350.272 443.957 358.966 443.717 371.299C443.458 384.43 420.382 399.391 404.222 396.903L404.232 396.913Z" fill="#45D36E"/>
<path d="M412.747 394.774C415.765 388.728 418.843 379.903 417.084 369.889C415.565 361.245 411.877 359.956 411.028 352.25C409.459 338.119 420.642 336.121 420.052 322.519C419.433 308.268 406.531 300.373 408.45 288.47C408.699 286.921 409.779 281.754 407.65 280.155C406.871 279.576 405.691 279.486 404.852 279.886C401.024 281.724 402.523 294.087 405.082 302.851C408.03 312.955 410.688 312.485 411.767 318.781C413.796 330.584 404.572 332.972 403.373 346.804C402.093 361.565 412.027 365.262 409.379 380.323C408.06 387.788 404.362 394.034 406.521 395.933C407.87 397.122 410.688 395.903 412.747 394.764V394.774Z" fill="#38A958"/>
<path d="M418.654 400.771C424.67 397.333 427.218 391.746 427.648 390.777C428.078 389.798 432.095 380.343 427.648 373.787C423.62 367.851 416.655 370.18 412.657 364.793C408.58 359.307 415.655 353.95 412.657 346.804C409.469 339.199 400.645 341.478 395.668 332.813C391.95 326.347 395.248 322.28 391.67 316.823C387.343 310.227 377.769 305.64 372.682 308.828C368.025 311.746 368.635 320.251 368.685 320.821C369.284 328.036 374.001 329.255 373.682 334.812C373.332 340.818 367.725 341.278 366.686 347.804C365.687 354.03 369.704 360.396 373.682 363.794C379.038 368.361 382.686 366.142 385.674 369.79C390.891 376.166 381.647 385.29 385.674 393.775C389.961 402.809 407.421 407.197 418.654 400.771Z" fill="#45D36E"/>
<path d="M411.659 401.77C407.531 398.452 402.484 393.235 400.666 385.78C399.096 379.344 401.435 377.375 399.666 371.789C396.418 361.535 387.484 363.404 383.676 353.8C379.689 343.736 386.824 334.512 381.677 326.817C381.008 325.817 378.599 322.539 379.679 320.82C380.078 320.191 380.928 319.781 381.677 319.821C385.095 319.981 387.834 328.995 388.673 335.811C389.632 343.676 387.514 344.126 388.673 348.803C390.852 357.577 398.457 356.548 403.664 365.792C409.22 375.656 402.984 381.103 409.66 390.777C412.968 395.574 417.665 398.822 416.656 400.771C416.026 401.99 413.547 401.96 411.659 401.77Z" fill="#38A958"/>
<path d="M415.046 401.68C407.21 397.772 403.423 390.657 402.773 389.417C402.134 388.168 396.067 376.076 400.804 366.911C405.082 358.617 416.954 358.946 421.272 351.371C425.669 343.656 411.788 331.613 414.656 321.83C417.714 311.406 428.497 314.864 433.644 302.841C437.482 293.867 434.833 295.156 438.621 287.551C443.208 278.337 453.991 276.718 460.647 280.395C466.743 283.763 468.472 293.587 468.472 294.357C468.562 303.981 463.885 306.099 464.924 313.435C466.054 321.36 468.572 320.29 470.621 328.825C472.57 336.96 469.142 339.888 464.625 344.815C458.538 351.451 457.939 349.412 454.681 354.579C448.984 363.593 464.455 377.675 460.467 389.357C456.22 401.79 429.676 408.995 415.046 401.7V401.68Z" fill="#45D36E"/>
<path d="M423.799 402.239C428.517 397.402 434.143 389.937 435.522 379.863C436.711 371.169 433.593 368.81 435.132 361.215C437.951 347.284 449.204 348.793 452.791 335.651C456.549 321.89 446.665 310.437 452.132 299.683C452.841 298.284 455.44 293.687 453.901 291.518C453.341 290.729 452.242 290.279 451.312 290.409C447.115 290.989 444.766 303.221 444.527 312.355C444.247 322.879 446.925 323.239 446.036 329.565C444.367 341.417 434.853 340.888 429.496 353.7C423.779 367.361 432.114 373.917 424.989 387.449C421.461 394.154 416.034 398.971 417.513 401.45C418.433 402.999 421.491 402.689 423.799 402.229V402.239Z" fill="#38A958"/>
<ellipse cx="356.601" cy="61.3895" rx="8.12508" ry="7.22229" fill="#F1F3F6"/>
<path d="M467.554 183.487H379.259C377.216 183.487 375.559 185.143 375.559 187.187V193.396C375.559 195.44 377.216 197.097 379.259 197.097H467.554C469.598 197.097 471.254 195.44 471.254 193.396V187.187C471.254 185.143 469.598 183.487 467.554 183.487Z" fill="#1F9030"/>
<path d="M433.104 203.901H379.259C377.216 203.901 375.559 205.558 375.559 207.602V214.662C375.559 216.705 377.216 218.362 379.259 218.362H433.104C435.147 218.362 436.804 216.705 436.804 214.662V207.602C436.804 205.558 435.147 203.901 433.104 203.901Z" fill="#67CE69"/>
<path d="M447.139 225.167H379.259C377.216 225.167 375.559 226.824 375.559 228.867V235.077C375.559 237.121 377.216 238.777 379.259 238.777H447.139C449.183 238.777 450.839 237.121 450.839 235.077V228.867C450.839 226.824 449.183 225.167 447.139 225.167Z" fill="#C8FFC3"/>
<path d="M467.554 119.168H379.259C377.216 119.168 375.559 120.824 375.559 122.868V129.078C375.559 131.121 377.216 132.778 379.259 132.778H467.554C469.598 132.778 471.254 131.121 471.254 129.078V122.868C471.254 120.824 469.598 119.168 467.554 119.168Z" fill="#1F9030"/>
<path d="M433.104 139.583H379.259C377.216 139.583 375.559 141.239 375.559 143.283V150.343C375.559 152.387 377.216 154.043 379.259 154.043H433.104C435.147 154.043 436.804 152.387 436.804 150.343V143.283C436.804 141.239 435.147 139.583 433.104 139.583Z" fill="#67CE69"/>
<path d="M447.139 160.849H379.259C377.216 160.849 375.559 162.505 375.559 164.549V170.758C375.559 172.802 377.216 174.459 379.259 174.459H447.139C449.183 174.459 450.839 172.802 450.839 170.758V164.549C450.839 162.505 449.183 160.849 447.139 160.849Z" fill="#C8FFC3"/>
<path d="M450.372 98.2765C439.835 98.2765 431.293 89.6571 431.293 79.0245C431.293 68.3919 439.835 59.7725 450.372 59.7725C460.908 59.7725 469.45 68.3919 469.45 79.0245C469.45 89.6571 460.908 98.2765 450.372 98.2765Z" fill="#F0F0F0"/>
<path d="M450.024 85.095C446.576 85.095 443.78 82.2995 443.78 78.8511C443.78 75.4027 446.576 72.6072 450.024 72.6072C453.473 72.6072 456.268 75.4027 456.268 78.8511C456.268 82.2995 453.473 85.095 450.024 85.095Z" fill="white"/>
<path d="M443.781 78.5042C443.94 80.6965 444.374 82.2158 445.862 83.7074C443.434 87.0618 441.005 90.7595 438.577 94.1139C437.214 93.101 435.067 91.2209 433.374 88.2169C431.088 84.1584 430.911 80.3045 430.946 78.5042H443.781Z" fill="#A9FFA5"/>
<path d="M450.372 59.7725C450.257 63.8206 450.139 68.559 450.025 72.6072C449.49 72.6522 447.017 72.569 445.168 74.6885C443.715 76.3535 443.833 77.8555 443.781 78.5042H430.946C431.022 76.7836 431.494 71.237 435.802 66.3632C441.398 60.0361 449.088 59.7933 450.372 59.7725Z" fill="#1F9030"/>
<path d="M390.957 97.5987C379.463 97.5987 370.144 88.2804 370.144 76.7857C370.144 65.291 379.463 55.9727 390.957 55.9727C402.452 55.9727 411.771 65.291 411.771 76.7857C411.771 88.2804 402.452 97.5987 390.957 97.5987Z" fill="#F0F0F0"/>
<path d="M402.058 56.3196C403.525 57.0168 405.572 58.1928 407.608 60.1353C409.998 62.4178 411.368 64.7974 412.118 66.3792C405.988 69.1543 399.862 71.9293 393.733 74.7044C396.508 68.575 399.283 62.449 402.058 56.3196Z" fill="#1F9030"/>
<path d="M391.304 55.9831V76.7858H370.158C370.099 75.4225 369.936 68.2628 375.535 62.3311C381.748 55.7473 390.087 55.938 391.304 55.9866V55.9831Z" fill="#1F9030"/>
<path d="M405.527 91.9098C400.761 86.8696 395.998 81.8259 391.232 76.7856H370.145C370.142 84.6946 374.571 91.9341 381.582 95.4272C389.349 99.2984 398.957 97.9109 405.527 91.9098Z" fill="#C8FFC3"/>
<ellipse cx="412.574" cy="26.1808" rx="27.9864" ry="26.1808" fill="#F1F3F6"/>
</svg>
