<svg width="460" height="414" viewBox="0 0 460 414" fill="none" xmlns="http://www.w3.org/2000/svg">
<path d="M20.1774 250.886C15.8514 261.316 13.6885 266.532 13.4181 267.286C6.41089 286.901 7.44732 314.454 10.0384 321.954C10.32 322.785 10.0384 327.421 10.0384 327.421C9.12589 328.46 6.65873 328.514 6.65873 328.514C6.65873 328.514 -0.844142 305.215 4.40562 283.686C9.14843 264.235 13.4181 254.166 13.4181 254.166C15.8176 248.502 18.8593 242.379 16.7977 235.578C15.1417 230.101 11.8747 229.773 10.0384 225.738C5.52091 215.81 18.6002 202.777 34.8227 179.817C45.6151 164.542 50.9775 156.889 53.9741 150.296C65.6791 124.569 55.7766 114.86 67.4928 94.5343C70.5909 89.1549 80.268 72.3827 99.0364 68.2935C117.242 64.3246 135.413 74.154 145.225 85.7874C159.476 102.669 156.389 123.672 154.238 138.269C152.863 147.617 149.371 171.289 130.58 187.47C114.786 201.061 106.438 193.659 88.8974 209.338C75.221 221.572 75.2661 228.636 60.7335 236.672C48.1048 243.658 31.4655 247.015 28.0633 242.139C25.3483 238.246 33.0765 228.767 38.2023 223.551C41.92 219.757 64.3385 198.754 64.1132 198.404C63.9104 198.109 60.4631 199.421 57.3538 201.684C53.6925 204.352 31.0149 226.35 25.8102 237.765C23.85 242.073 22.4531 245.397 20.1774 250.886Z" fill="#67CE69"/>
<circle cx="223.65" cy="201.128" r="129.082" fill="#EAFBEC"/>
<circle cx="374.489" cy="93.8094" r="39.7752" fill="#EAFBEC"/>
<circle cx="341.467" cy="18.7619" r="18.7619" fill="#EAFBEC"/>
<circle cx="162.854" cy="156.849" r="39.7752" fill="white"/>
<path d="M283.984 220.71C291.65 223.891 291.144 232.271 300.595 267.221C307.107 291.29 309.399 294.928 306.409 300.443C303.51 305.792 291.426 309.895 267.373 317.885C254.524 322.154 252.888 322.287 251.593 321.207C243.536 314.504 274.233 282.619 264.051 251.44C261.235 242.819 256.293 237.313 259.067 230.676C262.431 222.628 275.363 217.138 283.984 220.71Z" fill="#AA57AA"/>
<path d="M218.371 239.812C209.06 255.767 222.216 268.192 212.557 288.815C202.632 310.011 180.531 314.388 182.657 321.207C184.517 327.187 202.308 326.414 226.676 325.359C257.224 324.039 262.805 319.712 264.882 317.884C269.475 313.848 272.664 308.225 276.51 282.171C281.609 247.561 284.167 230.261 277.34 224.032C264.3 212.13 229.616 220.527 218.371 239.812Z" fill="#CE67CC"/>
<path d="M210.896 103.601C211.319 105.246 211.942 107.846 212.557 111.076C213.587 116.483 213.379 117.38 214.218 118.551C217.632 123.327 230.887 122.181 232.49 117.721C234.035 113.435 224.185 107.87 225.846 104.432C227.532 100.935 238.105 105.819 242.457 101.11C247.025 96.1679 241.552 84.1 238.304 78.6847C235.43 73.8841 229.018 63.1783 220.032 63.7348C208.894 64.4158 200.414 81.9987 204.251 89.4819C206.195 93.2693 211.735 95.3207 211.726 100.279C211.726 101.708 211.261 102.87 210.896 103.601Z" fill="#B38B66"/>
<path d="M209.235 116.89C216.768 110.221 229.724 110.296 238.304 114.399C247.473 118.776 247 125.528 258.237 139.315C269.541 153.177 273.088 150.121 286.476 165.063C296.086 175.793 305.139 185.885 305.579 199.946C305.919 210.76 301.002 218.999 298.934 222.371C279.989 253.243 223.429 262.387 210.896 245.626C204.176 236.64 214.866 226.59 210.896 194.132C209.484 182.604 208.072 183.318 205.912 168.385C202.067 141.749 199.691 125.337 209.235 116.89Z" fill="#FAEAF8"/>
<path d="M264.881 211.574C273.668 216.266 277.248 214.605 284.814 218.218C292.97 222.113 293.602 226.341 297.273 225.693C304.183 224.472 308.352 208.359 305.578 206.59C304.283 205.76 302.514 208.758 298.934 209.913C285.412 214.265 269.474 184.655 260.728 188.318C256.177 190.22 254.491 200.751 258.237 206.59C259.607 208.725 261.385 209.705 264.881 211.574Z" fill="#B38B66"/>
<path d="M277.339 158.418C277.04 159.73 282.24 160.868 282.323 163.401C282.439 166.782 273.278 167.978 273.187 170.876C273.062 174.863 290.047 182.164 294.781 176.69C298.269 172.654 294.897 161.923 288.137 158.418C283.569 156.051 277.638 157.073 277.339 158.418Z" fill="#B38B66"/>
<path d="M194.284 62.9042C205.663 64.4656 213.047 56.1518 221.693 60.4125C224.11 61.6002 225.712 63.3278 226.676 64.5653C222.423 80.894 218.321 85.1381 215.048 85.3292C212.424 85.487 209.749 83.0534 207.573 84.4986C205.995 85.5451 205.331 88.2112 205.912 90.3125C207.017 94.2908 212.075 94.4736 212.556 97.7875C212.855 99.814 211.269 101.816 210.065 102.771C205.646 106.284 196.386 103.61 190.962 98.618C184.06 92.2643 182.216 81.085 185.979 74.5319C187.748 71.4506 190.655 69.5569 190.132 68.7181C189.309 67.4141 181.494 70.9772 180.995 71.2097C166.859 77.7296 165.306 84.9305 155.248 88.6514C146.843 91.766 145.863 87.4969 137.807 90.3125C126.146 94.3822 125.199 104.382 114.551 114.399C102.483 125.752 82.3754 132.978 75.515 126.857C68.4885 120.594 72.334 97.6546 85.4817 87.8208C99.2356 77.5386 114.186 88.3191 132.823 75.3625C139.526 70.7031 139.135 68.2363 147.773 62.9042C154.019 59.0504 165.447 51.9907 177.673 54.5986C186.901 56.567 185.688 61.7248 194.284 62.9042Z" fill="black"/>
<path d="M215.049 135.993C213.894 145.785 213.113 164.606 222.524 184.165C235.098 210.303 262.174 230.062 270.696 224.863C275.272 222.072 274.674 211.972 274.018 200.776C273.536 192.571 273.196 186.765 269.865 180.843C262.972 168.576 252.722 172.621 243.287 160.91C233.329 148.559 237.299 134.847 229.168 131.84C224.293 130.038 218.612 133.394 215.049 135.993Z" fill="#EEAFE4"/>
<path d="M0.510188 329.828C0.502942 331.009 1.28883 339.263 2.88595 355.77C3.19613 358.925 2.98135 356.747 5.29498 376.285C6.04233 382.554 7.19727 396.409 17.183 409.048C20.9056 413.774 27.7127 414.77 22.8311 410.159C26.6337 410.097 17.213 387.983 15.5559 356.45C14.786 341.462 15.9561 328.391 21.0649 313.734C22.8194 308.722 24.6446 304.561 26.0313 301.645C31.6091 301.45 40.8638 301.024 51.3897 299.991C172.019 288.153 179.485 223.899 148.194 221.597C135.323 220.649 113.821 230.026 84.6924 242.914C39.4752 262.914 24.8162 280.708 15.9515 291.935C1.59446 310.087 0.590311 325.028 0.510188 329.828Z" fill="#67CE69"/>
<path d="M439.949 285.036C440.245 286.708 441.907 298.446 445.219 321.925C445.85 326.414 445.414 323.315 449.131 351.138C450.322 360.066 451.973 374.507 450.302 393.15C449.682 400.12 449.228 400.385 449.081 400.402C447.24 400.604 446.299 368.596 439.303 323.85C435.97 302.583 432.178 284.175 426.103 263.823C424.023 256.865 422.118 251.115 420.732 247.094C418.005 247.242 413.456 247.342 408.147 246.68C347.302 239.087 327.84 148.732 342.295 143.099C348.242 140.781 360.883 152.417 378.053 168.442C404.706 193.31 416.142 217.376 423.172 232.59C434.551 257.185 438.725 278.251 439.949 285.036Z" fill="#67CE69"/>
</svg>
