<svg width="407" height="367" viewBox="0 0 407 367" fill="none" xmlns="http://www.w3.org/2000/svg">
<rect width="407" height="367" fill="#1E1E1E"/>
<g id="Slide 16:9 - 1">
<rect width="13993" height="2312" transform="translate(-11013 -496)" fill="#FDFDFD"/>
<g id="Group 18">
<path id="Vector" d="M157.238 110.611C80.0756 109.231 50.8255 89.0293 32.6801 121.226C16.8253 149.349 17.675 202.874 32.6801 236.361C54.4514 284.946 92.827 261.895 175.183 292.704C265.113 326.346 280.05 376.548 326.131 358.845C368.381 342.612 410.482 279.418 406.355 220.846C401.104 146.319 323.36 112.832 308.714 106.528C258.996 85.118 248.15 112.236 157.238 110.611Z" fill="#F0F0F0"/>
<g id="Group 17">
<path id="Vector_2" d="M36.2218 267.254C36.8872 267.254 47.8733 298.413 48.8648 321.036C49.0778 325.911 49.0578 330.552 48.8648 334.915C50.1291 335.514 52.1853 336.208 53.5228 334.915C55.6388 332.877 54.7871 327.039 54.1882 323.638C44.9987 271.418 30.233 242.099 30.233 242.099C20.2517 222.278 6.10487 194.19 1.61993 196.992C-2.35263 199.472 0.901276 226.407 12.2667 246.436C18.1756 256.854 25.5751 264.652 30.8985 266.387" fill="#C5CFD7"/>
<path id="Vector_3" d="M45.7821 195.468C46.4052 195.494 55.3244 257.451 55.2431 302.2C55.2296 311.848 54.9993 321.011 54.6268 329.628C55.7849 330.85 57.6812 332.296 58.995 329.793C61.0674 325.835 60.5324 314.265 60.1192 307.527C53.8209 204.007 42.2875 134.809 42.2875 134.809C33.8085 95.2823 20.792 50.0136 16.4644 55.4004C12.6245 60.1724 6.8815 90.4237 16.6473 130.401C21.7266 151.204 36.2127 183.135 41.1227 186.755" fill="#F1F3F6"/>
<path id="Vector_4" d="M64.7389 209.954C64.1723 209.971 56.785 265.075 56.8532 305.192C56.8669 313.837 57.0786 322.053 57.4131 329.787C56.3548 330.887 54.6343 332.176 53.4327 329.933C51.5483 326.384 52.0331 316.011 52.4086 309.97C58.1436 217.164 68.6511 155.134 68.6511 155.134C76.3729 119.701 92.3832 100.133 96.3294 104.954C99.8251 109.234 99.7909 124.462 90.8948 160.299C86.2658 178.948 72.6314 186.08 68.1526 189.32" fill="#C5CFD7"/>
<path id="Vector_5" d="M71.9088 254.587C71.3453 267.471 67.8551 267.026 56.2914 305.981C52.0271 320.363 49.1005 331.879 51.5382 333.856C52.2376 334.423 53.1611 334.039 53.5753 333.856C60.2636 330.956 59.0007 310.494 64.4396 286.818C64.8742 284.936 68.3576 275.11 75.3039 255.458C90.5344 212.348 89.3393 219.23 89.5634 218.002C89.9165 216.033 90.5072 212.069 92.9585 210.162C94.8869 208.655 96.5505 209.447 100.699 207.827C101.813 207.392 103.049 206.773 104.502 205.806C106.505 204.474 110.81 201.207 115.366 193.611C122.17 182.278 133.055 148.236 128.268 144.83C123.073 141.128 100.102 174.055 98.3907 189.256C98.2684 190.318 98.0444 193.184 96.3536 195.353C92.8498 199.857 87.4992 195.684 82.0942 197.966C74.3533 201.233 71.5354 215.597 70.5508 220.615C67.6039 235.624 72.5879 239.012 71.9088 254.587Z" fill="#F1F3F6"/>
<path id="Vector_6" d="M72.2909 334.154C72.5648 335.416 75.719 350.73 68.076 359.748C66.9169 361.122 65.1185 362.794 62.4561 364.014H44.8939C42.9902 362.657 41.6414 361.122 40.679 359.748C34.0054 350.219 37.3773 336.099 37.8691 334.154H72.2909Z" fill="#EAEDF1"/>
</g>
<g id="Group">
<path id="Vector_7" d="M258.743 41.5247H163.739C159.565 41.5247 156.182 45.1146 156.182 49.5431V252.978C156.182 257.407 159.565 260.997 163.739 260.997H258.743C262.917 260.997 266.3 257.407 266.3 252.978V49.5431C266.3 45.1146 262.917 41.5247 258.743 41.5247Z" fill="#E1E6EA"/>
<path id="Vector_8" d="M252.55 144.769H170.515C168.713 144.769 167.252 146.319 167.252 148.231V171.6C167.252 173.512 168.713 175.062 170.515 175.062H252.55C254.352 175.062 255.813 173.512 255.813 171.6V148.231C255.813 146.319 254.352 144.769 252.55 144.769Z" fill="white"/>
<path id="Vector_9" d="M252.55 62.5444H170.515C168.713 62.5444 167.252 64.0945 167.252 66.0065V98.6491C167.252 100.561 168.713 102.111 170.515 102.111H252.55C254.352 102.111 255.813 100.561 255.813 98.6491V66.0065C255.813 64.0945 254.352 62.5444 252.55 62.5444Z" fill="white"/>
<path id="Vector_10" d="M208.619 51.7251H219.106C220.074 51.7251 220.854 52.5535 220.854 53.5798C220.854 54.6061 220.074 55.4345 219.106 55.4345H208.619C207.652 55.4345 206.871 54.6061 206.871 53.5798C206.871 52.5535 207.652 51.7251 208.619 51.7251Z" fill="#CACECC"/>
<path id="Vector_11" d="M201.335 55.1256C202.14 55.1256 202.792 54.4336 202.792 53.58C202.792 52.7264 202.14 52.0344 201.335 52.0344C200.531 52.0344 199.879 52.7264 199.879 53.58C199.879 54.4336 200.531 55.1256 201.335 55.1256Z" fill="#CACECC"/>
<path id="Vector_12" d="M211.24 246.777C217.515 246.777 222.602 241.656 222.602 235.34C222.602 229.023 217.515 223.902 211.24 223.902C204.966 223.902 199.879 229.023 199.879 235.34C199.879 241.656 204.966 246.777 211.24 246.777Z" fill="white"/>
<path id="Vector_13" d="M252.55 180.626H170.515C168.713 180.626 167.252 182.176 167.252 184.088V207.457C167.252 209.37 168.713 210.92 170.515 210.92H252.55C254.352 210.92 255.813 209.37 255.813 207.457V184.088C255.813 182.176 254.352 180.626 252.55 180.626Z" fill="white"/>
<path id="Vector_14" d="M252.55 108.293H170.515C168.713 108.293 167.252 109.843 167.252 111.756V135.125C167.252 137.037 168.713 138.587 170.515 138.587H252.55C254.352 138.587 255.813 137.037 255.813 135.125V111.756C255.813 109.843 254.352 108.293 252.55 108.293Z" fill="white"/>
<path id="Vector_15" d="M182.983 205.356C187.81 205.356 191.723 201.204 191.723 196.082C191.723 190.96 187.81 186.809 182.983 186.809C178.156 186.809 174.244 190.96 174.244 196.082C174.244 201.204 178.156 205.356 182.983 205.356Z" fill="#CACECC"/>
<path id="Vector_16" d="M182.983 132.404C187.81 132.404 191.723 128.252 191.723 123.131C191.723 118.009 187.81 113.857 182.983 113.857C178.156 113.857 174.244 118.009 174.244 123.131C174.244 128.252 178.156 132.404 182.983 132.404Z" fill="#CACECC"/>
<path id="Vector_17" d="M241.538 169.189C246.365 169.189 250.277 165.037 250.277 159.916C250.277 154.794 246.365 150.642 241.538 150.642C236.711 150.642 232.798 154.794 232.798 159.916C232.798 165.037 236.711 169.189 241.538 169.189Z" fill="#CACECC"/>
<path id="Vector_18" d="M246.198 87.2736C248.934 87.2736 251.151 84.9209 251.151 82.0186C251.151 79.1164 248.934 76.7637 246.198 76.7637C243.463 76.7637 241.246 79.1164 241.246 82.0186C241.246 84.9209 243.463 87.2736 246.198 87.2736Z" fill="#CACECC"/>
<path id="Vector_19" d="M246.123 84.8003C247.529 84.8003 248.669 83.5907 248.669 82.0986C248.669 80.6065 247.529 79.397 246.123 79.397C244.717 79.397 243.577 80.6065 243.577 82.0986C243.577 83.5907 244.717 84.8003 246.123 84.8003Z" fill="#F9F9F9"/>
<path id="Vector_20" d="M238.042 189.899H198.423C197.296 189.899 196.383 190.868 196.383 192.063C196.383 193.258 197.296 194.227 198.423 194.227H238.042C239.168 194.227 240.081 193.258 240.081 192.063C240.081 190.868 239.168 189.899 238.042 189.899Z" fill="#CACECC"/>
<path id="Vector_21" d="M224.058 197.319H198.423C197.296 197.319 196.383 198.288 196.383 199.483C196.383 200.678 197.296 201.646 198.423 201.646H224.058C225.185 201.646 226.098 200.678 226.098 199.483C226.098 198.288 225.185 197.319 224.058 197.319Z" fill="#CACECC"/>
<path id="Vector_22" d="M217.067 154.042H176.283C175.157 154.042 174.244 155.011 174.244 156.206C174.244 157.401 175.157 158.37 176.283 158.37H217.067C218.194 158.37 219.107 157.401 219.107 156.206C219.107 155.011 218.194 154.042 217.067 154.042Z" fill="#CACECC"/>
<path id="Vector_23" d="M201.919 161.461H176.283C175.157 161.461 174.244 162.43 174.244 163.625C174.244 164.82 175.157 165.789 176.283 165.789H201.919C203.045 165.789 203.958 164.82 203.958 163.625C203.958 162.43 203.045 161.461 201.919 161.461Z" fill="#CACECC"/>
<path id="Vector_24" d="M239.207 117.567H198.423C197.296 117.567 196.383 118.536 196.383 119.731C196.383 120.926 197.296 121.895 198.423 121.895H239.207C240.333 121.895 241.246 120.926 241.246 119.731C241.246 118.536 240.333 117.567 239.207 117.567Z" fill="#CACECC"/>
<path id="Vector_25" d="M224.058 124.986H198.423C197.296 124.986 196.383 125.954 196.383 127.149C196.383 128.344 197.296 129.313 198.423 129.313H224.058C225.185 129.313 226.098 128.344 226.098 127.149C226.098 125.954 225.185 124.986 224.058 124.986Z" fill="#CACECC"/>
<path id="Vector_26" d="M217.067 74.9092H176.283C175.157 74.9092 174.244 75.8779 174.244 77.073C174.244 78.268 175.157 79.2368 176.283 79.2368H217.067C218.194 79.2368 219.107 78.268 219.107 77.073C219.107 75.8779 218.194 74.9092 217.067 74.9092Z" fill="#CACECC"/>
<path id="Vector_27" d="M201.919 85.4189H176.283C175.157 85.4189 174.244 86.3877 174.244 87.5828C174.244 88.7778 175.157 89.7466 176.283 89.7466H201.919C203.045 89.7466 203.958 88.7778 203.958 87.5828C203.958 86.3877 203.045 85.4189 201.919 85.4189Z" fill="#CACECC"/>
</g>
<g id="Group_2">
<path id="Vector_28" d="M121.212 336.82C119.045 339.772 118.146 343.085 117.799 345.873C120.985 348.269 124.96 350.84 129.744 353.116C137.616 356.864 144.828 358.451 150.22 359.151C149.657 353.321 147.496 349.537 146.238 347.684C144.168 344.636 140.875 342.638 134.294 338.631C127.258 334.352 124.704 333.942 122.918 335.01C122.259 335.402 121.9 335.879 121.212 336.82Z" fill="#F0F0F0"/>
<path id="Vector_29" d="M100.736 148.519C96.6183 149.448 94.1839 152.942 93.3478 154.282C93.0975 154.373 92.6994 154.494 92.2046 154.554C88.9909 154.916 87.1253 151.862 84.2416 150.329C81.3237 148.778 77.3934 148.808 74.5723 150.329C69.9594 152.822 67.3544 159.473 68.8844 163.607C69.7717 165.997 71.6658 166.558 71.7284 169.039C71.7852 171.374 70.1358 171.96 70.022 174.47C69.9253 176.637 71.0231 179.244 72.8659 180.506C75.6132 182.389 77.7233 179.709 82.5353 181.109C85.5214 181.978 85.7261 183.3 88.2231 183.523C90.6063 183.735 92.6312 182.721 95.0485 181.109C100.736 177.319 102.431 174.114 109.837 166.625C114.245 162.164 115.422 161.356 115.525 159.382C115.798 154.059 107.914 146.895 100.736 148.519Z" fill="black"/>
<path id="Vector_30" d="M96.184 174.47C97.1225 175.834 96.5423 177.735 95.6152 181.109C93.5733 188.521 93.6757 189.094 93.9089 189.559C95.4275 192.552 103.277 192.522 104.716 189.559C105.842 187.229 102.753 183.65 103.578 182.92C104.505 182.099 107.884 187.09 111.541 186.541C115.534 185.937 117.513 179.075 117.798 178.092C119.641 171.7 118.509 162.605 113.816 160.589C112.212 159.901 109.755 159.847 108.128 161.193C105.142 163.673 107.071 169.159 104.147 170.849C103.129 171.435 101.696 171.459 100.734 170.849C98.9824 169.739 99.6251 167.053 98.4591 166.624C96.804 166.015 93.0216 170.529 93.9089 172.66C94.3184 173.644 95.4048 173.336 96.184 174.47Z" fill="#B38B66"/>
<path id="Vector_31" d="M47.2705 363.376C61.3024 363.176 75.3286 362.971 89.3605 362.772C86.8977 347.485 84.4291 332.191 81.9663 316.904C73.4346 316.499 64.9028 316.101 56.371 315.697C53.3394 331.588 50.3021 347.485 47.2705 363.376Z" fill="#CACECC"/>
<path id="Vector_32" d="M110.974 240.255C118.676 247.793 131.507 255.217 136.569 257.154C138.344 257.836 141.023 258.548 144.532 260.775C147.82 262.864 148.269 264.022 149.651 263.793C149.651 263.793 152.899 262.906 155.908 251.722C155.908 251.722 156.608 249.115 156.477 248.101C156.301 246.695 154.099 245.059 145.67 243.876C137.627 236.218 128.311 225.903 119.506 212.493C114.051 204.182 109.774 196.179 106.424 188.955C102.568 188.919 98.6373 189.709 96.1859 192.576C88.621 201.412 96.9878 226.561 110.974 240.255Z" fill="#1D8729"/>
<path id="Vector_33" d="M99.029 261.982C101.736 264.409 107.828 267.082 122.918 260.775C122.941 258.597 122.872 255.205 122.349 251.119C120.552 237.05 115.205 229.253 111.542 219.735C108.988 213.108 106.235 203.011 106.423 188.955C101.156 187.965 95.8438 188.068 92.7724 191.369C87.5566 196.976 93.6369 206.608 95.6163 228.185C97.516 248.922 93.4606 256.997 99.029 261.982Z" fill="white"/>
<path id="Vector_34" d="M137.706 287.331C131.626 297.265 127.986 306.18 125.762 312.68C121.939 323.857 119.966 329.905 122.918 335.01C126.268 340.81 134.953 343.623 141.119 341.046C147.228 338.499 147.324 332.144 154.77 314.49C163.153 294.616 168.597 289.474 166.145 285.521C162.238 279.232 143.985 285.128 137.706 287.331Z" fill="#037526"/>
<path id="Vector_35" d="M96.1847 286.124C104.324 296.263 117.918 296.347 124.055 296.384C139.026 296.474 145.737 289.624 150.788 293.969C153.74 296.51 153.438 300.566 153.063 315.093C152.221 347.786 153.001 355.862 157.045 357.944C158.506 358.698 161.43 358.047 167.283 356.737C173.488 355.349 176.588 354.661 178.658 352.512C181.371 349.7 181.235 346.35 182.071 335.613C183.101 322.372 183.351 326.832 183.777 318.111C185.205 288.839 185.916 274.204 180.365 267.414C174.847 260.667 169.194 263.745 138.843 260.172C107.031 256.43 97.4759 251.191 92.2032 257.758C86.8567 264.421 89.8883 278.278 96.1847 286.124Z" fill="#00A037"/>
<path id="Vector_36" d="M118.368 362.772C117.23 346.676 116.093 330.586 114.955 314.49H81.9658L88.7912 363.376C98.6482 363.177 108.511 362.971 118.368 362.772Z" fill="#F0F0F0"/>
<path id="Vector_37" d="M157.045 354.927C154.081 358.892 157.887 366.424 158.182 366.997C164.223 367.015 174.933 366.961 184.915 366.394C186.866 366.285 190.336 366.044 191.172 363.98C192.213 361.415 188.555 357.576 188.328 357.341C186.946 355.916 183.874 353.418 168.421 353.116C159.365 352.941 157.926 353.744 157.045 354.927Z" fill="#F0F0F0"/>
<path id="Vector_38" d="M98.4609 187.748C96.4929 186.626 94.0642 187.507 92.2043 188.352C81.0845 193.397 73.9975 204.412 58.646 225.771C58.009 226.658 47.879 240.744 45.564 248.705C44.6767 251.747 43.2377 254.626 42.7201 257.758C42.3731 259.858 42.3049 261.596 41.0137 262.586C39.3131 263.896 37.0835 262.671 36.4635 263.793C35.9743 264.686 37.2711 265.64 37.601 268.018C37.9423 270.498 36.8047 271.494 37.0323 272.846C37.5271 275.828 44.2331 278.187 48.4079 277.674C63.6627 275.809 69.0605 232.802 74.0032 233.617C76.1475 233.973 77.8197 242.531 76.8471 252.326C74.5094 275.816 59.2489 283.372 48.4079 315.093C44.5857 326.283 44.5459 331.015 46.7016 333.199C50.5579 337.104 58.1228 329.506 74.0032 329.578C81.295 329.608 81.5282 331.22 96.1857 332.596C106.833 333.598 112.208 334.05 114.956 331.992C118.994 328.963 120.444 322.354 117.8 298.195C114.921 271.941 109.825 248.85 107.561 239.048C102.738 218.148 101.458 217.025 101.305 208.872C101.128 199.475 102.63 190.132 98.4609 187.748Z" fill="#00A037"/>
<path id="Vector_39" d="M47.8385 273.45C48.7088 276.413 44.2097 278.055 43.857 283.106C43.5442 287.633 46.8375 290.838 45.5634 292.159C44.8979 292.847 43.4816 292.515 42.7195 292.159C40.888 291.296 41.1326 289.437 39.8756 288.538C37.4696 286.812 33.8976 291.701 28.4999 291.556C24.9222 291.459 21.0716 289.166 21.1057 287.331C21.1626 284.271 31.9865 285.533 37.0316 277.675C39.1646 274.355 39.0736 271.265 41.5819 270.432C43.8855 269.672 47.1787 271.211 47.8385 273.45Z" fill="#B38B66"/>
<path id="Vector_40" d="M150.788 251.723C148.587 252.073 146.562 256.931 147.945 259.568C149.059 261.705 151.357 260.389 154.77 262.586C159.548 265.664 159.531 271.144 163.302 271.639C163.512 271.669 165.099 271.856 165.577 271.036C166.163 270.034 164.49 268.585 165.008 267.414C165.611 266.056 168.682 266.189 169.558 266.207C171.64 266.243 172.744 266.956 173.54 266.207C173.995 265.779 174.2 265.006 174.109 264.397C173.807 262.375 170.286 262.067 163.87 259.568C159.542 257.879 157.375 257.04 155.339 255.344C152.756 253.195 152.131 251.511 150.788 251.723Z" fill="#B38B66"/>
</g>
<g id="Group 10">
<path id="Vector_41" d="M292.904 328.276C295.217 331.603 298.068 335.681 296.37 338.755C295.035 341.174 291.344 342.108 288.572 341.375C284.993 340.423 283.52 336.843 282.506 334.389C281.692 332.407 281.042 330.844 281.64 329.15C282.732 326.041 287.341 324.312 290.304 325.657C290.738 325.857 291.517 326.294 292.904 328.276Z" fill="#FFD8C0"/>
<path id="Vector_42" d="M297.879 327.868C297.02 329.365 295.355 329.169 291.013 330.541C284.379 332.635 283.847 334.48 281.573 334.105C277.642 333.464 275.952 327.413 272.991 319.848C270.099 312.469 266.083 305.617 262.693 298.461C251.382 274.57 241.273 269.037 243.813 262.817C245.246 259.297 250.55 256.026 266.984 256.579C275.883 278.135 281.856 290.281 285.864 297.57C289.606 304.378 291.348 312.273 295.304 318.956C296.771 321.434 299.286 325.408 297.879 327.868Z" fill="#67CE69"/>
<path id="Vector_43" d="M297.899 251.397C270.419 254.333 250.326 256.815 245.907 257.624C244.716 257.846 242.46 258.345 240.875 260.293C239.676 261.769 239.315 263.54 239.198 264.74C239.181 269.651 239.307 277.07 240.037 286.089C241.169 300.046 242.318 299.966 243.391 312.776C244.649 327.774 243.324 332.159 246.745 335.014C251.727 339.177 260.213 336.313 265.194 334.125C264.138 324.224 263.274 313.834 262.679 302.991C262.243 295.047 261.966 287.326 261.84 279.863C275.92 278.092 288.272 278.502 298.738 279.863C310.604 281.402 316.432 283.706 320.541 279.863C327.569 273.289 326.663 251.629 315.51 246.95C307.518 243.605 298.629 250.792 297.899 251.397Z" fill="#A9FFA5"/>
<path id="Vector_44" d="M259.367 209.764C258.27 208.003 258.501 205.649 256.068 202.465C255.953 202.309 255.829 202.163 255.714 202.017C255.186 201.379 254.229 201.689 254.073 202.538C253.916 203.423 253.751 204.308 253.594 205.202C253.454 206.425 253.083 206.863 252.77 207.027C251.467 207.711 249.669 204.545 245.348 202.465C243.542 201.589 242.017 200.859 241.225 201.552C239.724 202.875 240.986 209.29 244.523 213.414C247.212 216.553 248.886 215.64 257.717 219.801C264.059 222.785 265.32 224.263 267.613 223.451C271.373 222.128 274.012 216.051 272.561 213.414C270.606 209.865 262.179 214.281 259.367 209.764Z" fill="#FFD8C0"/>
<path id="Vector_45" d="M278.201 199.038C276.671 198.858 273.643 198.217 270.707 197.567C270.707 197.567 270.69 197.567 270.682 197.567C269.909 197.396 266.898 195.292 267.507 194.77C267.91 194.419 271.102 195.146 271.513 194.795C272.237 194.257 272.377 193.837 272.36 193.547C272.303 192.349 269.621 192.161 266.667 189.74C265.433 188.731 264.397 187.876 264.537 187.055C264.808 185.489 269.358 184.146 273.306 185.267C276.309 186.122 276.358 187.67 282.331 192.649C286.617 196.224 288.023 196.626 288.369 198.585C288.945 201.801 286.082 205.872 283.861 205.753C280.875 205.581 282.125 199.508 278.201 199.055V199.038Z" fill="#FFD8C0"/>
<path id="Vector_46" d="M281.408 205.945C284.17 209.135 288.551 213.307 294.838 216.375C295.803 216.845 299.949 218.818 305.749 219.852C310.676 220.73 313.169 221.174 315.821 219.852C320.404 217.566 323.485 210.995 321.697 207.683C320.421 205.319 317.618 206.379 307.428 204.206C300.176 202.659 296.558 201.894 293.159 199.86C289.273 197.539 286.293 194.471 284.765 195.514C284.17 195.922 284.161 196.696 283.926 198.122C283.616 200.008 282.953 202.702 281.408 205.945Z" fill="#AA57AA"/>
<path id="Vector_47" d="M300.796 345.962C300.117 347.622 298.451 348.164 294.166 349.402C286.242 351.69 282.28 352.834 277.588 353.703C267.203 355.629 266.208 355.087 265.985 354.563C265.645 353.754 266.938 352.533 269.3 350.262C280.15 339.838 283.639 336.149 285.877 337.361C286.946 337.946 286.722 339.099 288.364 339.941C289.615 340.587 291.745 340.931 293.337 339.941C294.315 339.331 294.588 338.522 295.823 338.221C295.823 338.221 296.66 338.015 297.481 338.221C299.86 338.815 301.907 343.244 300.796 345.962Z" fill="#F0F0F0"/>
<path id="Vector_48" d="M249.484 340.185C247.911 339.883 247.318 340.634 240.284 344.764C234.597 348.106 233.451 348.499 231.921 348.426C230.173 348.344 229.186 347.712 227.739 348.426C226.058 349.25 224.737 351.503 225.23 353.004C225.648 354.277 227.254 354.698 227.739 354.835C228.626 355.074 229.052 354.9 231.084 354.835C231.921 354.808 232.757 354.835 233.593 354.835H247.811C249.484 354.835 251.156 354.781 252.829 354.835C256.35 354.955 258.181 355.266 261.192 354.835C262.923 354.588 263.793 354.46 264.538 353.92C267.231 351.97 268.36 346.549 266.21 343.848C264.889 342.191 262.731 342.062 262.029 342.017C258.792 341.824 257.964 344.068 255.338 343.848C252.419 343.601 252.344 340.735 249.484 340.185Z" fill="#F0F0F0"/>
<g id="Group_3">
<path id="Vector_49" d="M348.762 363.825C321.463 363.825 299.332 340.741 299.332 312.264C299.332 283.788 321.463 260.703 348.762 260.703C376.062 260.703 398.192 283.788 398.192 312.264C398.192 340.741 376.062 363.825 348.762 363.825Z" fill="black"/>
<path id="Vector_50" d="M348.352 354.847C325.448 354.847 306.88 335.981 306.88 312.709C306.88 289.437 325.448 270.571 348.352 270.571C371.255 270.571 389.823 289.437 389.823 312.709C389.823 335.981 371.255 354.847 348.352 354.847Z" fill="white"/>
<path id="Vector_51" d="M345.83 270.927H350.856V354.491H345.83V270.927Z" fill="black"/>
<path id="Vector_52" d="M306.873 314.94V309.606H389.815V314.94H306.873Z" fill="black"/>
<path id="Vector_53" d="M318.144 283.717L321.699 279.946L378.529 340.248L374.975 344.02L318.144 283.717Z" fill="black"/>
<path id="Vector_54" d="M321.965 344.305L318.411 340.533L375.241 280.231L378.795 284.003L321.965 344.305Z" fill="black"/>
</g>
<path id="Vector_55" d="M285.593 214.71C274.484 210.835 273.045 210.236 273.045 210.236C267.323 207.829 265.742 206.647 263.844 207.551C261.401 208.715 262.054 211.632 258.825 220.974C256.75 226.97 255.546 228.5 256.315 230.817C257.444 234.191 261.543 235.471 263.844 236.187C289.675 244.231 289.323 244.187 289.775 244.24C317.99 247.614 332.177 249.216 335.782 245.135C341.822 238.298 342.031 224.482 336.619 219.184C331.684 214.352 325.728 220.196 304.832 218.29C298.441 217.708 292.694 217.189 285.593 214.71Z" fill="#CE67CC"/>
<g id="Group_4">
<path id="Vector_56" d="M229.794 354.936H260.793C261.718 354.936 262.468 355.732 262.468 356.714C262.468 357.696 261.718 358.492 260.793 358.492H229.794C228.869 358.492 228.118 357.696 228.118 356.714C228.118 355.732 228.869 354.936 229.794 354.936Z" fill="#00A037"/>
<path id="Vector_57" d="M277.448 256.136L278.3 256.28C280.128 256.587 281.375 258.409 281.086 260.349L267.954 348.221C267.665 350.16 265.948 351.483 264.12 351.176L263.268 351.032C261.44 350.725 260.193 348.903 260.482 346.963L273.614 259.092C273.903 257.152 275.62 255.829 277.448 256.136Z" fill="#00A037"/>
<path id="Vector_58" d="M277.406 254.925H308.69C311.156 254.925 313.155 257.047 313.155 259.664V290.191C313.155 292.808 311.156 294.93 308.69 294.93H277.406C274.94 294.93 272.941 292.808 272.941 290.191V259.664C272.941 257.047 274.94 254.925 277.406 254.925Z" fill="#00A037"/>
</g>
<path id="Vector_59" d="M309.116 142.974C310.447 140.243 312.831 139.111 314.205 138.483C323.739 134.117 336.353 140.971 336.26 144.771C336.243 145.498 335.751 146.459 336.26 147.466C336.794 148.526 337.88 148.526 338.804 149.262C340.374 150.502 340.45 153.008 340.501 154.652C340.628 158.766 336.845 164.722 330.322 169.923C329.16 168.423 327.421 166.222 325.232 163.635C321.356 159.045 319.413 156.745 317.598 155.55C313.162 152.631 310.787 153.834 309.116 151.059C307.665 148.651 307.979 145.301 309.116 142.974Z" fill="black"/>
<path id="Vector_60" d="M330.244 170.663C330.996 177.446 330.543 178.204 330.244 178.591C328.209 181.252 321.967 180.794 320.411 178.151C319.436 176.504 320.624 174.574 319.555 173.746C318.521 172.945 316.973 174.433 314.425 174.627C311.749 174.839 309.286 173.517 308.012 172.425C301.685 166.972 308.372 152.718 309.552 151.45L309.56 151.441C309.56 151.441 309.765 151.221 309.979 151.018C310.184 150.833 311.518 149.855 312.279 149.52C314.058 148.754 319.496 148.551 320.83 151.282C321.838 153.344 319.829 155.722 320.83 156.568C321.505 157.141 322.608 156.207 325.96 155.687C327.875 155.388 328.833 155.238 329.38 155.687C330.603 156.682 329.346 159.008 329.38 163.615C329.397 165.642 329.636 165.298 330.235 170.663H330.244Z" fill="#FFD8C0"/>
<path id="Vector_61" d="M314.228 178.155C317.415 176.826 325.952 173.814 332.677 178.155C336.158 180.405 338.07 185.26 341.902 194.988C345.139 203.21 347.261 208.597 347.773 216.251C348.2 222.675 346.993 223.224 347.773 228.655C348.863 236.265 352.519 238.932 354.481 245.488C357.828 256.642 361.358 268.417 356.159 275.611C352.016 281.352 344.225 281.556 334.355 281.813C325.381 282.052 312.827 282.38 305.003 273.839C299.644 267.983 298.328 259.956 298.294 249.032C298.252 235.379 300.181 210.537 314.228 178.155Z" fill="#CE67CC"/>
<path id="Vector_62" d="M262.412 365.507C256.584 365.507 251.86 360.494 251.86 354.309C251.86 348.125 256.584 343.112 262.412 343.112C268.241 343.112 272.965 348.125 272.965 354.309C272.965 360.494 268.241 365.507 262.412 365.507Z" fill="#1D8729"/>
</g>
<g id="Group 11">
<path id="Vector_63" d="M76.0654 82.4172H49.486C48.8929 82.4172 48.4121 82.9231 48.4121 83.5471V102.189C48.4121 102.813 48.8929 103.319 49.486 103.319H76.0654C76.6585 103.319 77.1393 102.813 77.1393 102.189V83.5471C77.1393 82.9231 76.6585 82.4172 76.0654 82.4172Z" fill="#F2F2F2"/>
<path id="Vector_64" d="M51.6953 86.7722L63.2356 95.4814L73.8563 86.7722" stroke="#B3BCC8" stroke-width="2" stroke-miterlimit="10"/>
<path id="Vector_65" d="M73.8557 100.706L64.8271 93.739" stroke="#B3BCC8" stroke-width="2" stroke-miterlimit="10"/>
<path id="Vector_66" d="M52.5161 100.706L60.7239 93.739" stroke="#B3BCC8" stroke-width="2" stroke-miterlimit="10"/>
</g>
<g id="Group 15">
<path id="Vector_67" d="M300.89 46.0034H278.108C277.6 46.0034 277.188 46.437 277.188 46.9719V62.9511C277.188 63.4859 277.6 63.9195 278.108 63.9195H300.89C301.399 63.9195 301.811 63.4859 301.811 62.9511V46.9719C301.811 46.437 301.399 46.0034 300.89 46.0034Z" fill="#F2F2F2"/>
<path id="Vector_68" d="M280.001 49.7361L289.893 57.2011L298.997 49.7361" stroke="#B3BCC8" stroke-width="2" stroke-miterlimit="10"/>
<path id="Vector_69" d="M298.997 61.6803L291.258 55.7083" stroke="#B3BCC8" stroke-width="2" stroke-miterlimit="10"/>
<path id="Vector_70" d="M280.706 61.6803L287.741 55.7083" stroke="#B3BCC8" stroke-width="2" stroke-miterlimit="10"/>
</g>
<g id="Group 13">
<path id="Vector_71" d="M276.592 125.233H298.961C299.348 125.233 299.672 125.568 299.672 125.994V141.196C299.672 141.622 299.348 141.957 298.961 141.957H276.592C276.205 141.957 275.881 141.622 275.881 141.196V125.994C275.881 125.568 276.205 125.233 276.592 125.233Z" fill="#FBFBFD" stroke="#F2F2F2" stroke-width="0.2"/>
<path id="Vector_72" d="M276.592 125.233H298.961C299.348 125.233 299.672 125.568 299.672 125.994V141.196C299.672 141.622 299.348 141.957 298.961 141.957H276.592C276.205 141.957 275.881 141.622 275.881 141.196V125.994C275.881 125.568 276.205 125.233 276.592 125.233Z" fill="#FBFBFD" stroke="#F2F2F2" stroke-width="0.2"/>
<path id="Vector_73" d="M284.837 129.937L277.808 141.913H298.006L291.865 133.092L289.027 137.108L284.837 129.937Z" fill="#C5CFD7"/>
<path id="Vector_74" d="M294.366 132.447C295.672 132.447 296.731 131.324 296.731 129.938C296.731 128.551 295.672 127.428 294.366 127.428C293.059 127.428 292 128.551 292 129.938C292 131.324 293.059 132.447 294.366 132.447Z" fill="#F1F3F6"/>
</g>
<g id="Group 14">
<path id="Vector_75" d="M122.206 166.551H151.808C152.34 166.551 152.781 167.01 152.781 167.589V187.707C152.781 188.286 152.34 188.746 151.808 188.746H122.206C121.675 188.746 121.233 188.286 121.233 187.707V167.589C121.233 167.01 121.675 166.551 122.206 166.551Z" fill="#FBFBFD" stroke="#F2F2F2" stroke-width="0.2"/>
<path id="Vector_76" d="M122.206 166.551H151.808C152.34 166.551 152.781 167.01 152.781 167.589V187.707C152.781 188.286 152.34 188.746 151.808 188.746H122.206C121.675 188.746 121.233 188.286 121.233 187.707V167.589C121.233 167.01 121.675 166.551 122.206 166.551Z" fill="#FBFBFD" stroke="#F2F2F2" stroke-width="0.2"/>
<path id="Vector_77" d="M133.118 172.809L123.817 188.656H150.545L142.419 176.984L138.662 182.298L133.118 172.809Z" fill="#C5CFD7"/>
<path id="Vector_78" d="M145.728 176.13C147.456 176.13 148.858 174.643 148.858 172.809C148.858 170.974 147.456 169.487 145.728 169.487C143.999 169.487 142.598 170.974 142.598 172.809C142.598 174.643 143.999 176.13 145.728 176.13Z" fill="#F1F3F6"/>
</g>
<circle id="Ellipse 14" cx="371.617" cy="105.042" r="17.7763" fill="#EAFBEC"/>
<circle id="Ellipse 10" cx="338.489" cy="46.0567" r="10.5042" fill="#F0F0F0"/>
<circle id="Ellipse 8" cx="371.617" cy="105.042" r="17.7763" fill="#F0F0F0"/>
<circle id="Ellipse 13" cx="34.6758" cy="25.0484" r="25.0484" fill="#F0F0F0"/>
<circle id="Ellipse 12" cx="175.27" cy="28.2804" r="7.27211" fill="#F0F0F0"/>
<circle id="Ellipse 9" cx="214.863" cy="287.652" r="17.7763" fill="#EAFBEC"/>
<circle id="Ellipse 11" cx="89.6207" cy="81.6093" r="7.27211" fill="#F0F0F0"/>
</g>
</g>
</svg>
