<svg width="24" height="24" viewBox="0 0 24 24" fill="none" xmlns="http://www.w3.org/2000/svg">
<path d="M22.8499 18.45C20.9499 15.25 16.6999 12.1 13.5499 10.85C13.0091 10.6053 12.437 10.437 11.8499 10.35C10.9999 10.25 10.5999 9.64999 10.7499 9.09999C10.8999 8.54999 11.1499 8.39999 11.6999 8.44999C13.1999 8.64999 15.5499 9.59999 17.7999 11.05L18.2499 11.35L18.3999 11.45L18.9999 11.85C19.0776 11.9091 19.1708 11.9441 19.2682 11.9509C19.3655 11.9576 19.4627 11.9357 19.5477 11.8878C19.6328 11.84 19.702 11.7683 19.7468 11.6816C19.7916 11.5949 19.81 11.497 19.7999 11.4C19.4999 9.04999 18.7499 6.69999 16.5499 5.19999C14.3499 3.69999 10.5999 3.99999 6.99989 4.59999C5.39788 4.9147 3.77823 5.13176 2.14989 5.24999H1.49989C1.41943 5.24132 1.33812 5.25452 1.26453 5.28818C1.19094 5.32184 1.12779 5.37472 1.08172 5.44126C1.03566 5.50779 1.00839 5.58552 1.00279 5.66625C0.997187 5.74698 1.01346 5.82773 1.04989 5.89999L1.24989 6.49999C2.79989 11.2 4.94989 17.65 10.1499 19.2C10.8836 19.3978 11.64 19.4987 12.3999 19.5C14.8551 19.4792 17.212 18.5328 18.9999 16.85C19.817 17.6469 20.5385 18.5362 21.1499 19.5C21.2322 19.6531 21.355 19.7808 21.5049 19.8689C21.6548 19.9571 21.826 20.0024 21.9999 20C22.2322 20.0037 22.4598 19.9336 22.6499 19.8C22.8386 19.6357 22.9625 19.4094 22.9991 19.1619C23.0358 18.9144 22.9829 18.6619 22.8499 18.45Z" fill="black"/>
</svg>
