<svg width="480" height="373" viewBox="0 0 480 373" fill="none" xmlns="http://www.w3.org/2000/svg">
<path d="M363.974 14.991H108.238C106.415 14.991 104.936 16.4694 104.936 18.2932V276.548C104.936 278.372 106.415 279.851 108.238 279.851H363.974C365.798 279.851 367.277 278.372 367.277 276.548V18.2932C367.277 16.4694 365.798 14.991 363.974 14.991Z" fill="#F2F2F2"/>
<path d="M108.245 14.991H363.457C365.288 14.991 366.773 16.4753 366.773 18.3068V36.1389H104.936V18.3068C104.936 16.4753 106.42 14.991 108.252 14.991H108.245Z" fill="#BFC1C0"/>
<path d="M352.523 49.2322H305.086C303.168 49.2322 301.614 50.7869 301.614 52.7047V109.204C301.614 111.121 303.168 112.676 305.086 112.676H352.523C354.44 112.676 355.995 111.121 355.995 109.204V52.7047C355.995 50.7869 354.44 49.2322 352.523 49.2322Z" fill="white"/>
<path d="M353.203 120.73H304.405C302.864 120.73 301.614 121.98 301.614 123.522V270.005C301.614 271.547 302.864 272.797 304.405 272.797H353.203C354.745 272.797 355.995 271.547 355.995 270.005V123.522C355.995 121.98 354.745 120.73 353.203 120.73Z" fill="white"/>
<path d="M289.425 49.2322H116.415C115.803 49.2322 115.306 49.7291 115.306 50.342V84.3788C115.306 84.9918 115.803 85.4887 116.415 85.4887H289.425C290.038 85.4887 290.535 84.9918 290.535 84.3788V50.342C290.535 49.7291 290.038 49.2322 289.425 49.2322Z" fill="white"/>
<path d="M134.139 30.0996C136.365 30.0996 138.17 28.295 138.17 26.0689C138.17 23.8428 136.365 22.0381 134.139 22.0381C131.913 22.0381 130.108 23.8428 130.108 26.0689C130.108 28.295 131.913 30.0996 134.139 30.0996Z" fill="#F2F2F2"/>
<path d="M125.076 30.0996C127.302 30.0996 129.107 28.295 129.107 26.0689C129.107 23.8428 127.302 22.0381 125.076 22.0381C122.85 22.0381 121.045 23.8428 121.045 26.0689C121.045 28.295 122.85 30.0996 125.076 30.0996Z" fill="#F2F2F2"/>
<path d="M116.014 30.0996C118.24 30.0996 120.044 28.295 120.044 26.0689C120.044 23.8428 118.24 22.0381 116.014 22.0381C113.787 22.0381 111.983 23.8428 111.983 26.0689C111.983 28.295 113.787 30.0996 116.014 30.0996Z" fill="#F2F2F2"/>
<path d="M272.404 73.3964C275.739 73.3964 278.443 70.6924 278.443 67.357C278.443 64.0215 275.739 61.3176 272.404 61.3176C269.068 61.3176 266.364 64.0215 266.364 67.357C266.364 70.6924 269.068 73.3964 272.404 73.3964Z" fill="#EDEDED"/>
<path d="M275.127 70.3799C276.797 70.3799 278.15 69.0264 278.15 67.3568C278.15 65.6872 276.797 64.3337 275.127 64.3337C273.458 64.3337 272.104 65.6872 272.104 67.3568C272.104 69.0264 273.458 70.3799 275.127 70.3799Z" fill="#DDE2E8"/>
<path d="M250.561 60.3098H124.055C123.115 60.3098 122.353 61.0719 122.353 62.012V63.6461C122.353 64.5862 123.115 65.3483 124.055 65.3483H250.561C251.501 65.3483 252.263 64.5862 252.263 63.6461V62.012C252.263 61.0719 251.501 60.3098 250.561 60.3098Z" fill="#DDE3E9"/>
<path d="M208.265 69.3723H124.055C123.115 69.3723 122.353 70.1344 122.353 71.0745V72.7086C122.353 73.6487 123.115 74.4108 124.055 74.4108H208.265C209.205 74.4108 209.967 73.6487 209.967 72.7086V71.0745C209.967 70.1344 209.205 69.3723 208.265 69.3723Z" fill="#DDE3E9"/>
<path d="M289.425 91.5281H116.415C115.803 91.5281 115.306 92.025 115.306 92.6379V121.636C115.306 122.249 115.803 122.746 116.415 122.746H289.425C290.038 122.746 290.535 122.249 290.535 121.636V92.6379C290.535 92.025 290.038 91.5281 289.425 91.5281Z" fill="white"/>
<path d="M250.56 100.591H124.054C123.114 100.591 122.352 101.353 122.352 102.293V103.927C122.352 104.867 123.114 105.629 124.054 105.629H250.56C251.501 105.629 252.263 104.867 252.263 103.927V102.293C252.263 101.353 251.501 100.591 250.56 100.591Z" fill="#DDE3E9"/>
<path d="M208.265 107.645H124.054C123.114 107.645 122.352 108.407 122.352 109.347V110.981C122.352 111.921 123.114 112.683 124.054 112.683H208.265C209.205 112.683 209.967 111.921 209.967 110.981V109.347C209.967 108.407 209.205 107.645 208.265 107.645Z" fill="#DDE3E9"/>
<path d="M272.403 113.684C275.739 113.684 278.442 110.98 278.442 107.644C278.442 104.309 275.739 101.605 272.403 101.605C269.068 101.605 266.364 104.309 266.364 107.644C266.364 110.98 269.068 113.684 272.403 113.684Z" fill="#EDEDED"/>
<path d="M272.403 110.668C274.073 110.668 275.426 109.314 275.426 107.645C275.426 105.975 274.073 104.622 272.403 104.622C270.733 104.622 269.38 105.975 269.38 107.645C269.38 109.314 270.733 110.668 272.403 110.668Z" fill="#DDE2E8"/>
<path d="M289.425 128.792H116.415C115.803 128.792 115.306 129.289 115.306 129.902V158.9C115.306 159.513 115.803 160.01 116.415 160.01H289.425C290.038 160.01 290.535 159.513 290.535 158.9V129.902C290.535 129.289 290.038 128.792 289.425 128.792Z" fill="white"/>
<path d="M250.56 137.854H124.054C123.114 137.854 122.352 138.616 122.352 139.556V141.191C122.352 142.131 123.114 142.893 124.054 142.893H250.56C251.501 142.893 252.263 142.131 252.263 141.191V139.556C252.263 138.616 251.501 137.854 250.56 137.854Z" fill="#DDE3E9"/>
<path d="M208.265 144.901H124.054C123.114 144.901 122.352 145.663 122.352 146.604V148.238C122.352 149.178 123.114 149.94 124.054 149.94H208.265C209.205 149.94 209.967 149.178 209.967 148.238V146.604C209.967 145.663 209.205 144.901 208.265 144.901Z" fill="#DDE3E9"/>
<path d="M272.403 150.941C275.739 150.941 278.442 148.237 278.442 144.901C278.442 141.566 275.739 138.862 272.403 138.862C269.068 138.862 266.364 141.566 266.364 144.901C266.364 148.237 269.068 150.941 272.403 150.941Z" fill="#EDEDED"/>
<path d="M272.403 147.924C274.073 147.924 275.426 146.571 275.426 144.901C275.426 143.232 274.073 141.878 272.403 141.878C270.733 141.878 269.38 143.232 269.38 144.901C269.38 146.571 270.733 147.924 272.403 147.924Z" fill="#DDE2E8"/>
<path d="M289.425 166.05H116.415C115.803 166.05 115.306 166.546 115.306 167.159V196.158C115.306 196.771 115.803 197.268 116.415 197.268H289.425C290.038 197.268 290.535 196.771 290.535 196.158V167.159C290.535 166.546 290.038 166.05 289.425 166.05Z" fill="white"/>
<path d="M250.56 175.112H124.054C123.114 175.112 122.352 175.874 122.352 176.814V178.448C122.352 179.388 123.114 180.15 124.054 180.15H250.56C251.501 180.15 252.263 179.388 252.263 178.448V176.814C252.263 175.874 251.501 175.112 250.56 175.112Z" fill="#DDE3E9"/>
<path d="M208.265 182.166H124.054C123.114 182.166 122.352 182.928 122.352 183.868V185.502C122.352 186.442 123.114 187.204 124.054 187.204H208.265C209.205 187.204 209.967 186.442 209.967 185.502V183.868C209.967 182.928 209.205 182.166 208.265 182.166Z" fill="#DDE3E9"/>
<path d="M272.403 188.205C275.739 188.205 278.442 185.501 278.442 182.166C278.442 178.83 275.739 176.126 272.403 176.126C269.068 176.126 266.364 178.83 266.364 182.166C266.364 185.501 269.068 188.205 272.403 188.205Z" fill="#EDEDED"/>
<path d="M272.403 185.189C274.073 185.189 275.426 183.835 275.426 182.166C275.426 180.496 274.073 179.143 272.403 179.143C270.733 179.143 269.38 180.496 269.38 182.166C269.38 183.835 270.733 185.189 272.403 185.189Z" fill="#DDE2E8"/>
<path d="M289.425 203.313H116.415C115.803 203.313 115.306 203.81 115.306 204.423V233.422C115.306 234.035 115.803 234.531 116.415 234.531H289.425C290.038 234.531 290.535 234.035 290.535 233.422V204.423C290.535 203.81 290.038 203.313 289.425 203.313Z" fill="white"/>
<path d="M250.56 212.376H124.054C123.114 212.376 122.352 213.138 122.352 214.078V215.712C122.352 216.652 123.114 217.414 124.054 217.414H250.56C251.501 217.414 252.263 216.652 252.263 215.712V214.078C252.263 213.138 251.501 212.376 250.56 212.376Z" fill="#DDE3E9"/>
<path d="M208.265 219.423H124.054C123.114 219.423 122.352 220.185 122.352 221.125V222.759C122.352 223.699 123.114 224.462 124.054 224.462H208.265C209.205 224.462 209.967 223.699 209.967 222.759V221.125C209.967 220.185 209.205 219.423 208.265 219.423Z" fill="#DDE3E9"/>
<path d="M272.403 225.462C275.739 225.462 278.442 222.759 278.442 219.423C278.442 216.088 275.739 213.384 272.403 213.384C269.068 213.384 266.364 216.088 266.364 219.423C266.364 222.759 269.068 225.462 272.403 225.462Z" fill="#EDEDED"/>
<path d="M272.403 222.446C274.073 222.446 275.426 221.093 275.426 219.423C275.426 217.754 274.073 216.4 272.403 216.4C270.733 216.4 269.38 217.754 269.38 219.423C269.38 221.093 270.733 222.446 272.403 222.446Z" fill="#DDE2E8"/>
<path d="M289.425 241.579H116.415C115.803 241.579 115.306 242.076 115.306 242.689V271.687C115.306 272.3 115.803 272.797 116.415 272.797H289.425C290.038 272.797 290.535 272.3 290.535 271.687V242.689C290.535 242.076 290.038 241.579 289.425 241.579Z" fill="white"/>
<path d="M250.56 250.648H124.054C123.114 250.648 122.352 251.41 122.352 252.35V253.984C122.352 254.924 123.114 255.686 124.054 255.686H250.56C251.501 255.686 252.263 254.924 252.263 253.984V252.35C252.263 251.41 251.501 250.648 250.56 250.648Z" fill="#DDE3E9"/>
<path d="M208.265 257.695H124.054C123.114 257.695 122.352 258.457 122.352 259.397V261.031C122.352 261.971 123.114 262.733 124.054 262.733H208.265C209.205 262.733 209.967 261.971 209.967 261.031V259.397C209.967 258.457 209.205 257.695 208.265 257.695Z" fill="#DDE3E9"/>
<path d="M272.403 263.734C275.739 263.734 278.442 261.031 278.442 257.695C278.442 254.36 275.739 251.656 272.403 251.656C269.068 251.656 266.364 254.36 266.364 257.695C266.364 261.031 269.068 263.734 272.403 263.734Z" fill="#EDEDED"/>
<path d="M272.403 260.718C274.073 260.718 275.426 259.365 275.426 257.695C275.426 256.026 274.073 254.672 272.403 254.672C270.733 254.672 269.38 256.026 269.38 257.695C269.38 259.365 270.733 260.718 272.403 260.718Z" fill="#DDE2E8"/>
<path d="M339.449 134.832H317.158C315.804 134.832 314.707 135.929 314.707 137.283V152.521C314.707 153.874 315.804 154.972 317.158 154.972H339.449C340.803 154.972 341.901 153.874 341.901 152.521V137.283C341.901 135.929 340.803 134.832 339.449 134.832Z" fill="#DDE3E9"/>
<path d="M339.449 161.018H317.158C315.804 161.018 314.707 162.115 314.707 163.469V178.707C314.707 180.061 315.804 181.158 317.158 181.158H339.449C340.803 181.158 341.901 180.061 341.901 178.707V163.469C341.901 162.115 340.803 161.018 339.449 161.018Z" fill="#AFB8C5"/>
<path d="M339.449 187.198H317.158C315.804 187.198 314.707 188.295 314.707 189.649V204.887C314.707 206.24 315.804 207.338 317.158 207.338H339.449C340.803 207.338 341.901 206.24 341.901 204.887V189.649C341.901 188.295 340.803 187.198 339.449 187.198Z" fill="#DDE3E9"/>
<path d="M339.449 213.384H317.158C315.804 213.384 314.707 214.481 314.707 215.835V231.073C314.707 232.427 315.804 233.524 317.158 233.524H339.449C340.803 233.524 341.901 232.427 341.901 231.073V215.835C341.901 214.481 340.803 213.384 339.449 213.384Z" fill="#C5CFD7"/>
<path d="M339.449 239.57H317.158C315.804 239.57 314.707 240.667 314.707 242.021V257.259C314.707 258.613 315.804 259.71 317.158 259.71H339.449C340.803 259.71 341.901 258.613 341.901 257.259V242.021C341.901 240.667 340.803 239.57 339.449 239.57Z" fill="#AFB8C5"/>
<path d="M328.801 88.5116C336.588 88.5116 342.901 82.1984 342.901 74.4107C342.901 66.623 336.588 60.3098 328.801 60.3098C321.013 60.3098 314.7 66.623 314.7 74.4107C314.7 82.1984 321.013 88.5116 328.801 88.5116Z" fill="#DDE3E9"/>
<path d="M340.539 97.4922H316.068C315.316 97.4922 314.707 98.1019 314.707 98.8539V100.311C314.707 101.063 315.316 101.673 316.068 101.673H340.539C341.291 101.673 341.901 101.063 341.901 100.311V98.8539C341.901 98.1019 341.291 97.4922 340.539 97.4922Z" fill="#DDE3E9"/>
<path d="M328.8 82.4656C333.249 82.4656 336.855 78.8594 336.855 74.4109C336.855 69.9624 333.249 66.3562 328.8 66.3562C324.352 66.3562 320.746 69.9624 320.746 74.4109C320.746 78.8594 324.352 82.4656 328.8 82.4656Z" fill="white"/>
<path d="M86.4129 1.87378H6.36694C2.85057 1.87378 0 4.72436 0 8.24074V169.776C0 173.292 2.85057 176.143 6.36694 176.143H86.4129C89.9293 176.143 92.7799 173.292 92.7799 169.776V8.24074C92.7799 4.72436 89.9293 1.87378 86.4129 1.87378Z" fill="#DDE3E9"/>
<path d="M81.1952 83.8538H12.0767C10.5584 83.8538 9.32764 85.0845 9.32764 86.6028V105.159C9.32764 106.677 10.5584 107.908 12.0767 107.908H81.1952C82.7135 107.908 83.9442 106.677 83.9442 105.159V86.6028C83.9442 85.0845 82.7135 83.8538 81.1952 83.8538Z" fill="white"/>
<path d="M81.1952 18.5645H12.0767C10.5584 18.5645 9.32764 19.7952 9.32764 21.3135V47.2329C9.32764 48.7512 10.5584 49.982 12.0767 49.982H81.1952C82.7135 49.982 83.9442 48.7512 83.9442 47.2329V21.3135C83.9442 19.7952 82.7135 18.5645 81.1952 18.5645Z" fill="white"/>
<path d="M44.1807 9.97363H53.0169C53.8318 9.97363 54.4896 10.6314 54.4896 11.4463C54.4896 12.2612 53.8318 12.919 53.0169 12.919H44.1807C43.3658 12.919 42.708 12.2612 42.708 11.4463C42.708 10.6314 43.3658 9.97363 44.1807 9.97363Z" fill="#C5CFD7"/>
<path d="M38.0446 12.6735C38.7224 12.6735 39.2719 12.124 39.2719 11.4462C39.2719 10.7685 38.7224 10.219 38.0446 10.219C37.3668 10.219 36.8174 10.7685 36.8174 11.4462C36.8174 12.124 37.3668 12.6735 38.0446 12.6735Z" fill="#C5CFD7"/>
<path d="M46.3899 164.852C51.6767 164.852 55.9624 160.786 55.9624 155.771C55.9624 150.755 51.6767 146.689 46.3899 146.689C41.1031 146.689 36.8174 150.755 36.8174 155.771C36.8174 160.786 41.1031 164.852 46.3899 164.852Z" fill="white"/>
<path d="M81.1952 112.326H12.0767C10.5584 112.326 9.32764 113.557 9.32764 115.075V133.631C9.32764 135.149 10.5584 136.38 12.0767 136.38H81.1952C82.7135 136.38 83.9442 135.149 83.9442 133.631V115.075C83.9442 113.557 82.7135 112.326 81.1952 112.326Z" fill="white"/>
<path d="M81.1952 54.8909H12.0767C10.5584 54.8909 9.32764 56.1217 9.32764 57.6399V76.1959C9.32764 77.7141 10.5584 78.9449 12.0767 78.9449H81.1952C82.7135 78.9449 83.9442 77.7141 83.9442 76.1959V57.6399C83.9442 56.1217 82.7135 54.8909 81.1952 54.8909Z" fill="white"/>
<path d="M22.5813 131.962C26.648 131.962 29.9447 128.665 29.9447 124.598C29.9447 120.532 26.648 117.235 22.5813 117.235C18.5145 117.235 15.2178 120.532 15.2178 124.598C15.2178 128.665 18.5145 131.962 22.5813 131.962Z" fill="#DDE3E9"/>
<path d="M22.5813 74.0358C26.648 74.0358 29.9447 70.7391 29.9447 66.6723C29.9447 62.6056 26.648 59.3088 22.5813 59.3088C18.5145 59.3088 15.2178 62.6056 15.2178 66.6723C15.2178 70.7391 18.5145 74.0358 22.5813 74.0358Z" fill="#C5CFD7"/>
<path d="M71.9167 103.244C75.9834 103.244 79.2802 99.9476 79.2802 95.8808C79.2802 91.8141 75.9834 88.5173 71.9167 88.5173C67.85 88.5173 64.5532 91.8141 64.5532 95.8808C64.5532 99.9476 67.85 103.244 71.9167 103.244Z" fill="#C5CFD7"/>
<path d="M75.8435 38.2003C78.148 38.2003 80.0162 36.3321 80.0162 34.0276C80.0162 31.7231 78.148 29.855 75.8435 29.855C73.5391 29.855 71.6709 31.7231 71.6709 34.0276C71.6709 36.3321 73.5391 38.2003 75.8435 38.2003Z" fill="#DDE3E9"/>
<path d="M75.78 36.2367C76.9648 36.2367 77.9252 35.2763 77.9252 34.0915C77.9252 32.9067 76.9648 31.9463 75.78 31.9463C74.5952 31.9463 73.6348 32.9067 73.6348 34.0915C73.6348 35.2763 74.5952 36.2367 75.78 36.2367Z" fill="#F9F9F9"/>
<path d="M68.9713 119.689H35.5902C34.6413 119.689 33.8721 120.459 33.8721 121.408C33.8721 122.357 34.6413 123.126 35.5902 123.126H68.9713C69.9202 123.126 70.6895 122.357 70.6895 121.408C70.6895 120.459 69.9202 119.689 68.9713 119.689Z" fill="#DDE3E9"/>
<path d="M57.1898 125.58H35.5902C34.6413 125.58 33.8721 126.349 33.8721 127.298C33.8721 128.247 34.6413 129.016 35.5902 129.016H57.1898C58.1387 129.016 58.9079 128.247 58.9079 127.298C58.9079 126.349 58.1387 125.58 57.1898 125.58Z" fill="#DDE3E9"/>
<path d="M51.2988 91.2178H16.9359C15.987 91.2178 15.2178 91.987 15.2178 92.9359C15.2178 93.8848 15.987 94.6541 16.9359 94.6541H51.2988C52.2477 94.6541 53.017 93.8848 53.017 92.9359C53.017 91.987 52.2477 91.2178 51.2988 91.2178Z" fill="#C5CFD7"/>
<path d="M38.5355 97.1082H16.9359C15.987 97.1082 15.2178 97.8774 15.2178 98.8263C15.2178 99.7752 15.987 100.544 16.9359 100.544H38.5355C39.4844 100.544 40.2536 99.7752 40.2536 98.8263C40.2536 97.8774 39.4844 97.1082 38.5355 97.1082Z" fill="#DDE3E9"/>
<path d="M69.9531 62.2544H35.5902C34.6413 62.2544 33.8721 63.0236 33.8721 63.9725C33.8721 64.9214 34.6413 65.6907 35.5902 65.6907H69.9531C70.902 65.6907 71.6713 64.9214 71.6713 63.9725C71.6713 63.0236 70.902 62.2544 69.9531 62.2544Z" fill="#DDE3E9"/>
<path d="M57.1898 68.1453H35.5902C34.6413 68.1453 33.8721 68.9145 33.8721 69.8634C33.8721 70.8123 34.6413 71.5816 35.5902 71.5816H57.1898C58.1387 71.5816 58.9079 70.8123 58.9079 69.8634C58.9079 68.9145 58.1387 68.1453 57.1898 68.1453Z" fill="#DDE3E9"/>
<path d="M51.2988 28.3823H16.9359C15.987 28.3823 15.2178 29.1516 15.2178 30.1005C15.2178 31.0494 15.987 31.8186 16.9359 31.8186H51.2988C52.2477 31.8186 53.017 31.0494 53.017 30.1005C53.017 29.1516 52.2477 28.3823 51.2988 28.3823Z" fill="#DDE3E9"/>
<path d="M38.5355 36.7275H16.9359C15.987 36.7275 15.2178 37.4968 15.2178 38.4457C15.2178 39.3946 15.987 40.1638 16.9359 40.1638H38.5355C39.4844 40.1638 40.2536 39.3946 40.2536 38.4457C40.2536 37.4968 39.4844 36.7275 38.5355 36.7275Z" fill="#DDE3E9"/>
<path d="M461.185 0H381.139C377.623 0 374.772 2.85058 374.772 6.36696V167.902C374.772 171.418 377.623 174.269 381.139 174.269H461.185C464.701 174.269 467.552 171.418 467.552 167.902V6.36696C467.552 2.85058 464.701 0 461.185 0Z" fill="#AFB8C5"/>
<path d="M455.967 81.98H386.849C385.33 81.98 384.1 83.2108 384.1 84.729V103.285C384.1 104.803 385.33 106.034 386.849 106.034H455.967C457.485 106.034 458.716 104.803 458.716 103.285V84.729C458.716 83.2108 457.485 81.98 455.967 81.98Z" fill="white"/>
<path d="M455.967 16.6907H386.849C385.33 16.6907 384.1 17.9215 384.1 19.4397V45.3592C384.1 46.8774 385.33 48.1082 386.849 48.1082H455.967C457.485 48.1082 458.716 46.8774 458.716 45.3592V19.4397C458.716 17.9215 457.485 16.6907 455.967 16.6907Z" fill="white"/>
<path d="M418.953 8.09985H427.789C428.604 8.09985 429.262 8.75766 429.262 9.57255C429.262 10.3874 428.604 11.0452 427.789 11.0452H418.953C418.138 11.0452 417.48 10.3874 417.48 9.57255C417.48 8.75766 418.138 8.09985 418.953 8.09985Z" fill="#C5CFD7"/>
<path d="M412.817 10.7997C413.494 10.7997 414.044 10.2503 414.044 9.57246C414.044 8.89467 413.494 8.34521 412.817 8.34521C412.139 8.34521 411.589 8.89467 411.589 9.57246C411.589 10.2503 412.139 10.7997 412.817 10.7997Z" fill="#C5CFD7"/>
<path d="M421.162 162.978C426.449 162.978 430.734 158.912 430.734 153.897C430.734 148.881 426.449 144.815 421.162 144.815C415.875 144.815 411.589 148.881 411.589 153.897C411.589 158.912 415.875 162.978 421.162 162.978Z" fill="white"/>
<path d="M455.967 110.452H386.849C385.33 110.452 384.1 111.683 384.1 113.201V131.757C384.1 133.275 385.33 134.506 386.849 134.506H455.967C457.485 134.506 458.716 133.275 458.716 131.757V113.201C458.716 111.683 457.485 110.452 455.967 110.452Z" fill="white"/>
<path d="M455.967 53.0171H386.849C385.33 53.0171 384.1 54.2479 384.1 55.7661V74.3221C384.1 75.8404 385.33 77.0711 386.849 77.0711H455.967C457.485 77.0711 458.716 75.8404 458.716 74.3221V55.7661C458.716 54.2479 457.485 53.0171 455.967 53.0171Z" fill="white"/>
<path d="M397.353 130.088C401.42 130.088 404.717 126.791 404.717 122.725C404.717 118.658 401.42 115.361 397.353 115.361C393.286 115.361 389.99 118.658 389.99 122.725C389.99 126.791 393.286 130.088 397.353 130.088Z" fill="#DDE3E9"/>
<path d="M397.353 72.162C401.42 72.162 404.717 68.8653 404.717 64.7985C404.717 60.7318 401.42 57.4351 397.353 57.4351C393.286 57.4351 389.99 60.7318 389.99 64.7985C389.99 68.8653 393.286 72.162 397.353 72.162Z" fill="#C5CFD7"/>
<path d="M446.688 101.371C450.755 101.371 454.052 98.0738 454.052 94.007C454.052 89.9403 450.755 86.6436 446.688 86.6436C442.621 86.6436 439.325 89.9403 439.325 94.007C439.325 98.0738 442.621 101.371 446.688 101.371Z" fill="#C5CFD7"/>
<path d="M450.616 36.3265C452.92 36.3265 454.788 34.4583 454.788 32.1538C454.788 29.8494 452.92 27.9812 450.616 27.9812C448.311 27.9812 446.443 29.8494 446.443 32.1538C446.443 34.4583 448.311 36.3265 450.616 36.3265Z" fill="#DDE3E9"/>
<path d="M450.551 34.363C451.736 34.363 452.697 33.4025 452.697 32.2177C452.697 31.033 451.736 30.0725 450.551 30.0725C449.367 30.0725 448.406 31.033 448.406 32.2177C448.406 33.4025 449.367 34.363 450.551 34.363Z" fill="#F9F9F9"/>
<path d="M443.743 117.816H410.362C409.413 117.816 408.644 118.585 408.644 119.534C408.644 120.483 409.413 121.252 410.362 121.252H443.743C444.692 121.252 445.461 120.483 445.461 119.534C445.461 118.585 444.692 117.816 443.743 117.816Z" fill="#DDE3E9"/>
<path d="M431.962 123.706H410.362C409.413 123.706 408.644 124.476 408.644 125.424C408.644 126.373 409.413 127.143 410.362 127.143H431.962C432.911 127.143 433.68 126.373 433.68 125.424C433.68 124.476 432.911 123.706 431.962 123.706Z" fill="#DDE3E9"/>
<path d="M426.071 89.344H391.708C390.759 89.344 389.99 90.1132 389.99 91.0621C389.99 92.011 390.759 92.7803 391.708 92.7803H426.071C427.02 92.7803 427.789 92.011 427.789 91.0621C427.789 90.1132 427.02 89.344 426.071 89.344Z" fill="#C5CFD7"/>
<path d="M413.307 95.2344H391.708C390.759 95.2344 389.99 96.0036 389.99 96.9525C389.99 97.9014 390.759 98.6707 391.708 98.6707H413.307C414.256 98.6707 415.026 97.9014 415.026 96.9525C415.026 96.0036 414.256 95.2344 413.307 95.2344Z" fill="#DDE3E9"/>
<path d="M444.725 60.3806H410.362C409.413 60.3806 408.644 61.1499 408.644 62.0988C408.644 63.0477 409.413 63.8169 410.362 63.8169H444.725C445.674 63.8169 446.443 63.0477 446.443 62.0988C446.443 61.1499 445.674 60.3806 444.725 60.3806Z" fill="#DDE3E9"/>
<path d="M431.962 66.2712H410.362C409.413 66.2712 408.644 67.0405 408.644 67.9894C408.644 68.9383 409.413 69.7075 410.362 69.7075H431.962C432.911 69.7075 433.68 68.9383 433.68 67.9894C433.68 67.0405 432.911 66.2712 431.962 66.2712Z" fill="#DDE3E9"/>
<path d="M426.071 26.5085H391.708C390.759 26.5085 389.99 27.2778 389.99 28.2267C389.99 29.1756 390.759 29.9448 391.708 29.9448H426.071C427.02 29.9448 427.789 29.1756 427.789 28.2267C427.789 27.2778 427.02 26.5085 426.071 26.5085Z" fill="#DDE3E9"/>
<path d="M413.307 34.8538H391.708C390.759 34.8538 389.99 35.623 389.99 36.5719C389.99 37.5208 390.759 38.2901 391.708 38.2901H413.307C414.256 38.2901 415.026 37.5208 415.026 36.5719C415.026 35.623 414.256 34.8538 413.307 34.8538Z" fill="#DDE3E9"/>
<path d="M404.754 283.156L404.754 337.019C404.754 338.266 405.765 339.277 407.011 339.277L410.799 339.277C412.046 339.277 413.057 338.266 413.057 337.019L413.057 283.156C413.057 281.909 412.046 280.899 410.799 280.899L407.011 280.899C405.765 280.899 404.754 281.909 404.754 283.156Z" fill="#AFB8C5"/>
<path d="M417.208 304.172L417.208 337.019C417.208 338.266 418.218 339.277 419.465 339.277L423.772 339.277C425.018 339.277 426.029 338.266 426.029 337.019L426.029 304.172C426.029 302.925 425.018 301.915 423.772 301.915L419.465 301.915C418.218 301.915 417.208 302.925 417.208 304.172Z" fill="#DDE3E9"/>
<path d="M430.181 295.61L430.181 337.019C430.181 338.266 431.191 339.277 432.438 339.277L436.226 339.277C437.473 339.277 438.483 338.266 438.483 337.019L438.483 295.61C438.483 294.363 437.473 293.353 436.226 293.353L432.438 293.353C431.191 293.353 430.181 294.363 430.181 295.61Z" fill="#E1E6EB"/>
<path d="M444.105 279.733L444.105 337.055C444.105 338.381 445.18 339.457 446.507 339.457L450.538 339.457C451.865 339.457 452.941 338.381 452.941 337.055L452.941 279.733C452.941 278.407 451.865 277.331 450.538 277.331L446.507 277.331C445.18 277.331 444.105 278.407 444.105 279.733Z" fill="#AFB8C5"/>
<path d="M457.358 302.099L457.358 337.055C457.358 338.381 458.434 339.457 459.761 339.457L464.344 339.457C465.671 339.457 466.746 338.381 466.746 337.055L466.746 302.099C466.746 300.772 465.671 299.696 464.344 299.696L459.761 299.696C458.434 299.696 457.358 300.772 457.358 302.099Z" fill="#E1E6EB"/>
<path d="M471.165 292.987L471.165 337.055C471.165 338.381 472.24 339.457 473.567 339.457L477.598 339.457C478.925 339.457 480 338.381 480 337.055L480 292.987C480 291.66 478.925 290.585 477.598 290.585L473.567 290.585C472.24 290.585 471.165 291.66 471.165 292.987Z" fill="#AFB8C5"/>
<path d="M417.7 232.355C427.955 232.355 436.268 223.967 436.268 213.618C436.268 203.27 427.955 194.882 417.7 194.882C407.446 194.882 399.132 203.27 399.132 213.618C399.132 223.967 407.446 232.355 417.7 232.355Z" fill="#F0F0F0"/>
<path d="M418.038 219.526C421.394 219.526 424.115 216.806 424.115 213.45C424.115 210.093 421.394 207.373 418.038 207.373C414.682 207.373 411.961 210.093 411.961 213.45C411.961 216.806 414.682 219.526 418.038 219.526Z" fill="white"/>
<path d="M424.115 213.112C423.96 215.246 423.538 216.724 422.089 218.176C424.453 221.441 426.816 225.04 429.179 228.304C430.506 227.318 432.596 225.489 434.243 222.565C436.468 218.615 436.64 214.864 436.606 213.112H424.115Z" fill="#AFB8C5"/>
<path d="M417.7 194.882C417.812 198.821 417.926 203.433 418.038 207.373C418.558 207.417 420.965 207.336 422.764 209.398C424.179 211.019 424.064 212.481 424.115 213.112H436.606C436.532 211.438 436.072 206.039 431.879 201.296C426.434 195.138 418.949 194.902 417.7 194.882Z" fill="#C5CFD7"/>
<path d="M48.0379 263.701C64.972 263.701 78.6998 249.973 78.6998 233.039C78.6998 216.105 64.972 202.377 48.0379 202.377C31.1038 202.377 17.376 216.105 17.376 233.039C17.376 249.973 31.1038 263.701 48.0379 263.701Z" fill="#F0F0F0"/>
<path d="M31.6847 202.888C29.523 203.915 26.5079 205.648 23.5082 208.51C19.9872 211.872 17.9686 215.378 16.8647 217.708C25.8947 221.796 34.9195 225.885 43.9494 229.973C39.8612 220.943 35.7729 211.918 31.6847 202.888Z" fill="#AFB8C5"/>
<path d="M47.5264 202.392V233.039H78.6789C78.7658 231.03 79.0059 220.483 70.7579 211.744C61.6053 202.045 49.3201 202.326 47.5264 202.397V202.392Z" fill="#AFB8C5"/>
<path d="M26.5742 255.32C33.5958 247.895 40.6123 240.464 47.6339 233.039H78.6995C78.7046 244.691 72.1787 255.356 61.8508 260.502C50.4088 266.205 36.2532 264.161 26.5742 255.32Z" fill="#E1E6EB"/>
<path d="M148.997 299.724C151.349 299.658 153.825 299.517 156.413 299.296C159.578 299.015 162.558 298.638 165.338 298.187C165.234 294.726 165.131 291.273 165.027 287.813C162.528 288.027 159.778 288.382 156.842 288.952C153.204 289.654 149.951 290.563 147.112 291.51C146.92 292.323 146.713 293.632 146.957 295.207C147.312 297.469 148.413 299.022 148.99 299.732L148.997 299.724Z" fill="#B38B66"/>
<path d="M213.109 235.05C212.318 240.936 211.098 242.733 209.567 248.966C208.281 254.215 206.943 261.89 207.135 271.805C183.038 269.912 164.398 275.443 160.657 286.149C159.4 289.743 159.312 295.384 162.35 298.8C166.21 303.133 171.748 300.072 188.177 300.612C201.774 301.063 205.508 303.399 214.802 300.981C214.802 300.981 220.54 299.488 226.1 296.271C239.047 288.781 248.71 258.385 247.83 218.732C223.623 211.627 216.126 213.845 213.848 217.32C211.734 220.544 214.573 224.182 213.109 235.05Z" fill="#EEAFE4"/>
<path d="M193.427 236.588C192.48 239.701 192.007 241.254 191.896 242.718C191.527 247.531 194.699 250.548 193.641 251.45C192.806 252.167 190.299 250.696 189.796 250.4C188.162 249.439 188.222 248.81 187.342 248.448C184.813 247.405 182.469 251.857 178.129 252.478C174.713 252.966 170.506 250.954 170.277 248.914C169.907 245.601 180.295 245.069 183.793 236.943C185.013 234.111 184.717 231.915 186.795 230.644C189.294 229.113 193.471 230.015 194.395 232.004C194.795 232.869 194.358 233.535 193.434 236.581L193.427 236.588Z" fill="#B38B66"/>
<path d="M299.122 224.123C300.838 226.437 301.695 227.59 302.228 228.773C303.973 232.67 302.228 236.138 303.381 236.574C304.291 236.921 305.947 234.947 306.272 234.555C307.352 233.269 307.115 232.759 307.736 232.197C309.533 230.57 312.816 233.587 316.624 232.81C319.618 232.197 322.524 229.261 322.102 227.494C321.422 224.625 312.601 227.28 307.263 221.549C305.4 219.553 304.993 217.631 302.886 217.195C300.342 216.662 297.133 218.659 296.956 220.596C296.882 221.439 297.451 221.86 299.122 224.123Z" fill="#B38B66"/>
<path d="M302.93 352.753C305.355 359.06 305.517 360.243 307.026 361.064C309.813 362.587 313.51 360.864 315.211 359.925C313.244 353.921 311.27 347.918 309.303 341.921C308.512 341.803 301.976 340.857 300.349 343.77C299.647 345.027 300.371 346.091 302.937 352.761L302.93 352.753Z" fill="#B38B66"/>
<path d="M244.533 262.26C257.857 288.316 264.526 301.351 269.221 309.166C276.297 320.952 285.946 335.902 298.494 352.568L314.191 348.782C309.407 330.579 303.625 311.259 296.616 291.066C284.408 255.923 272.852 230.607 269.125 222.577C266.626 217.202 264.489 212.78 262.996 209.741C253.399 209.594 235.188 210.562 229.968 220.95C226.936 226.991 229.738 233.343 244.526 262.26H244.533Z" fill="#F6D5F1"/>
<path d="M200.614 233.047C184.229 234.991 179.061 231.428 177.057 228.389C172.628 221.66 179.49 213.853 207.653 164.284C207.653 164.284 214.914 151.5 229.043 143.67C231.217 142.465 233.827 141.445 236.496 142.258C239.786 143.264 241.561 146.576 242.019 147.648C245.376 155.53 213.879 173.445 224.333 177.881C227.513 179.227 203.793 234.4 200.621 233.047H200.614Z" fill="#00A037"/>
<path d="M288.216 226.333C304.394 223.087 306.339 217.394 307.3 213.875C309.414 206.096 300.468 200.817 258.286 162.458C258.286 162.458 247.41 152.565 231.543 149.519C229.103 149.046 226.3 148.898 224.023 150.495C221.213 152.469 220.548 156.173 220.452 157.334C219.712 165.874 238.116 173.09 246.663 180.565C256.482 189.157 271.373 203.753 288.224 226.326L288.216 226.333Z" fill="#1D8729"/>
<path d="M249.185 135.936C248.039 136.964 251.011 139.855 249.687 141.888C247.972 144.528 239.676 144.705 237.783 141.555C236.534 139.485 238.153 136.128 239.358 133.614C240.401 131.448 240.896 131.396 241.11 130.184C241.695 126.901 238.345 125.466 237.702 122.62C236.526 117.378 244.719 108.187 253.088 108.512C257.88 108.697 260.963 111.936 261.628 112.638C269.237 120.638 264.926 136.565 258.996 138.258C255.203 139.337 250.619 134.642 249.177 135.936H249.185Z" fill="#B38B66"/>
<path d="M267.772 201.8C270.338 210.843 271.432 211.508 270.944 214.51C268.216 231.368 228.082 245.646 214.677 232.891C211.224 229.609 210.632 223.93 209.597 212.699C208.015 195.597 206.255 177.889 216.244 159.692C220.954 151.123 226.551 145.238 230.307 141.777C230.884 139.825 231.454 137.881 232.03 135.929C239.394 136.727 246.766 137.526 254.13 138.332C257.413 150.273 259.927 160.454 261.768 168.247C265.155 182.613 263.89 188.129 267.772 201.8Z" fill="#00A037"/>
<path d="M149.397 290.12C149.094 289.661 148.546 289.58 147.947 289.321C144.539 287.85 140.221 288.597 138.284 290.401C135.799 292.708 136.82 297.114 138.439 304.471C139.526 309.388 141.234 317.262 143.393 327.621C145.049 327.784 147.201 327.71 148.628 326.357C150.683 324.412 149.508 321.514 149.766 316.782C150.284 307.347 155.807 303.658 153.426 299.916C151.903 297.513 148.753 297.661 148.443 295.266C148.177 293.225 150.262 291.451 149.397 290.127V290.12Z" fill="#F0F0F0"/>
<path d="M305.185 358.461C304.674 358.654 304.475 359.171 304.09 359.703C301.924 362.72 301.724 367.097 303.07 369.375C304.793 372.295 309.31 372.243 316.845 372.243C321.88 372.243 329.932 372.258 340.52 372.369C341.037 370.787 341.422 368.665 340.409 366.986C338.952 364.561 335.869 365.086 331.307 363.822C322.205 361.293 319.787 355.104 315.617 356.628C312.941 357.604 312.408 360.709 310.005 360.502C307.95 360.325 306.671 357.907 305.192 358.469L305.185 358.461Z" fill="#F0F0F0"/>
<path d="M240.964 105.549C247.76 108.329 253.657 104.359 258.331 108.375C259.638 109.495 260.355 110.82 260.754 111.74C255.519 121.172 252.302 123.146 250.246 122.742C248.596 122.422 247.328 120.489 245.75 121.037C244.606 121.433 243.77 122.978 243.795 124.372C243.845 127.011 246.947 127.93 246.717 130.059C246.58 131.361 245.278 132.347 244.381 132.747C241.085 134.218 235.778 131.086 233.215 127.131C229.955 122.097 230.595 114.882 233.969 111.424C235.555 109.798 237.657 109.089 237.467 108.487C237.165 107.548 231.759 108.509 231.413 108.573C221.622 110.357 219.513 114.568 212.692 115.268C206.992 115.857 207.066 113.058 201.629 113.517C193.761 114.178 191.581 120.218 183.392 124.723C174.111 129.829 160.51 131.098 157.238 126.214C153.885 121.217 159.923 107.627 169.63 103.634C179.784 99.4605 187.322 108.518 200.926 103.466C205.819 101.65 205.97 100.061 212.168 98.1359C216.649 96.7454 224.85 94.196 232.004 97.7592C237.403 100.449 235.83 103.449 240.964 105.549Z" fill="black"/>
</svg>
