<svg width="349" height="295" viewBox="0 0 349 295" fill="none" xmlns="http://www.w3.org/2000/svg">
<path d="M139.277 61.117C77.3366 59.9412 53.8569 42.7283 39.2912 70.1618C26.5642 94.1235 27.2463 139.73 39.2912 168.263C56.7675 209.66 87.5724 190.019 153.682 216.27C225.87 244.935 237.86 287.71 274.851 272.626C308.765 258.794 342.561 204.95 339.248 155.044C335.033 91.5423 272.626 63.0095 260.87 57.6382C220.96 39.3956 212.254 62.5016 139.277 61.117Z" fill="#F1F3F6"/>
<path d="M312.156 77.6421L244.822 77.6421C243.263 77.6421 242 78.9055 242 80.4639V85.1993C242 86.7578 243.263 88.0212 244.822 88.0212L312.156 88.0212C313.714 88.0212 314.978 86.7578 314.978 85.1993V80.4639C314.978 78.9055 313.714 77.6421 312.156 77.6421Z" fill="#1F9030"/>
<path d="M285.884 93.2107L244.822 93.2107C243.264 93.2107 242 94.4741 242 96.0325V101.417C242 102.975 243.264 104.238 244.822 104.238L285.884 104.238C287.443 104.238 288.706 102.975 288.706 101.417V96.0325C288.706 94.4741 287.443 93.2107 285.884 93.2107Z" fill="#67CE69"/>
<path d="M296.588 109.428L244.822 109.428C243.264 109.428 242 110.691 242 112.25V116.985C242 118.544 243.264 119.807 244.822 119.807L296.588 119.807C298.146 119.807 299.41 118.544 299.41 116.985V112.25C299.41 110.691 298.146 109.428 296.588 109.428Z" fill="#C8FFC3"/>
<path d="M312.156 123.714L244.822 123.714C243.263 123.714 242 124.978 242 126.536V131.272C242 132.83 243.263 134.093 244.822 134.093L312.156 134.093C313.714 134.093 314.978 132.83 314.978 131.272V126.536C314.978 124.978 313.714 123.714 312.156 123.714Z" fill="#1F9030"/>
<path d="M285.884 139.283L244.822 139.283C243.264 139.283 242 140.546 242 142.105V147.489C242 149.047 243.264 150.311 244.822 150.311L285.884 150.311C287.443 150.311 288.706 149.047 288.706 147.489V142.105C288.706 140.546 287.443 139.283 285.884 139.283Z" fill="#67CE69"/>
<path d="M296.588 155.5L244.822 155.5C243.264 155.5 242 156.764 242 158.322V163.058C242 164.616 243.264 165.879 244.822 165.879L296.588 165.879C298.146 165.879 299.41 164.616 299.41 163.058V158.322C299.41 156.764 298.146 155.5 296.588 155.5Z" fill="#C8FFC3"/>
<path d="M312.156 28.5923L244.822 28.5923C243.263 28.5923 242 29.8557 242 31.4141V36.1495C242 37.708 243.263 38.9713 244.822 38.9713L312.156 38.9713C313.714 38.9713 314.978 37.708 314.978 36.1495V31.4141C314.978 29.8557 313.714 28.5923 312.156 28.5923Z" fill="#1F9030"/>
<path d="M285.884 44.1609L244.822 44.1609C243.264 44.1609 242 45.4243 242 46.9827V52.3668C242 53.9253 243.264 55.1886 244.822 55.1886L285.884 55.1886C287.443 55.1886 288.706 53.9253 288.706 52.3668V46.9827C288.706 45.4243 287.443 44.1609 285.884 44.1609Z" fill="#67CE69"/>
<path d="M296.588 60.3782L244.822 60.3782C243.264 60.3782 242 61.6415 242 63.2V67.9354C242 69.4939 243.264 70.7572 244.822 70.7572L296.588 70.7572C298.146 70.7572 299.41 69.4939 299.41 67.9354V63.2C299.41 61.6415 298.146 60.3782 296.588 60.3782Z" fill="#C8FFC3"/>
<path d="M39.9913 212.105C40.7259 212.105 52.8553 238.987 53.95 258.505C54.1851 262.711 54.163 266.715 53.95 270.48C55.3458 270.996 57.616 271.595 59.0927 270.48C61.4289 268.721 60.4885 263.684 59.8273 260.751C49.6816 215.697 33.3793 190.401 33.3793 190.401C22.3592 173.301 6.74018 149.068 1.78851 151.485C-2.59746 153.625 0.995068 176.863 13.5432 194.143C20.0671 203.132 28.2366 209.86 34.1139 211.356" fill="#46AF4C"/>
<path d="M49.6294 150.623C50.3262 150.646 60.3015 203.772 60.2106 242.142C60.1955 250.414 59.9379 258.271 59.5214 265.66C60.8166 266.707 62.9374 267.947 64.4068 265.801C66.7245 262.407 66.1261 252.486 65.6641 246.709C58.62 157.946 45.721 98.6117 45.721 98.6117C36.2381 64.7193 21.6803 25.9035 16.8404 30.5225C12.5457 34.6142 6.12278 60.5533 17.0449 94.8318C22.7256 112.669 38.9269 140.049 44.4183 143.153" fill="#67CE69"/>
<path d="M70.3656 162.544C69.7438 162.559 61.6383 210.036 61.7132 244.6C61.7282 252.048 61.9605 259.127 62.3275 265.791C61.1664 266.739 59.2786 267.849 57.9602 265.917C55.8926 262.859 56.4245 253.922 56.8365 248.716C63.1291 168.757 74.6581 115.312 74.6581 115.312C83.1306 84.7838 100.697 67.9241 105.027 72.0779C108.863 75.7653 108.825 88.8859 99.0644 119.762C93.9854 135.829 79.0254 141.975 74.1112 144.767" fill="#1F9030"/>
<path d="M79.4845 200.754C78.8739 211.7 75.0925 211.323 62.5637 244.421C57.9436 256.64 54.7727 266.424 57.4139 268.104C58.1716 268.585 59.1722 268.26 59.6209 268.104C66.8675 265.64 65.4991 248.255 71.3919 228.138C71.8628 226.54 75.6369 218.191 83.1629 201.494C99.6644 164.866 98.3696 170.713 98.6124 169.669C98.995 167.997 99.635 164.629 102.291 163.008C104.38 161.728 106.183 162.401 110.678 161.025C111.884 160.655 113.223 160.129 114.798 159.308C116.968 158.175 121.632 155.4 126.569 148.946C133.94 139.317 145.733 110.394 140.547 107.5C134.919 104.354 110.03 132.331 108.176 145.246C108.044 146.149 107.801 148.584 105.969 150.426C102.173 154.253 96.3759 150.708 90.5198 152.647C82.133 155.422 79.0799 167.627 78.0131 171.89C74.8202 184.642 80.2202 187.521 79.4845 200.754Z" fill="#67CE69"/>
<path d="M82.6863 230.818C86.5373 224.741 90.3445 218.871 93.7652 214.094C94.0715 213.666 95.8876 211.078 99.6 205.962C102.459 202.014 104.166 199.729 106.893 199.308C108.52 199.056 108.921 199.722 110.54 199.308C112.984 198.686 115.916 196.21 115.646 193.393C115.332 190.162 110.898 187.36 107.623 188.957C105.486 189.999 104.209 192.727 104.705 195.611C102.882 197.955 100.351 201.245 97.4119 205.222C93.7141 210.228 86.7999 219.773 76.2608 236.275C57.9541 264.946 58.8074 267.49 59.4784 268.089C60.0036 268.555 60.9663 268.325 61.6738 268.067C62.9939 264.629 65.1236 259.571 68.3036 253.745C70.2655 250.16 71.4544 248.659 75.5314 242.189C77.8799 238.463 80.2868 234.596 82.6863 230.818Z" fill="#88EF87"/>
<path d="M78.907 268.357C79.206 269.463 82.6488 282.881 74.3063 290.782C73.0411 291.985 71.0782 293.45 68.1721 294.519H49.0027C46.9247 293.331 45.4525 291.985 44.402 290.782C37.1177 282.432 40.7982 270.061 41.3349 268.357H78.907Z" fill="#C8FFC3"/>
<path d="M297.751 288.493C291.151 287.479 286.746 283.188 285.984 282.434C285.229 281.679 278.012 274.302 279.315 266.544C280.496 259.524 289.192 257.002 290.564 250.501C291.966 243.878 279.079 238.36 278.888 230.579C278.69 222.302 287.317 222.294 288.262 212.371C288.963 204.964 287.34 206.518 288.323 200.109C289.512 192.35 296.966 188.669 302.659 189.79C307.864 190.818 311.408 197.548 311.591 198.104C313.893 205.07 310.989 207.7 313.451 212.783C316.111 218.27 317.696 216.914 321.163 222.637C324.471 228.094 322.665 231.013 320.531 235.647C317.658 241.881 316.743 240.54 315.577 245.052C313.535 252.924 328.045 259.555 327.863 268.96C327.664 278.974 310.067 290.383 297.743 288.485L297.751 288.493Z" fill="#45D36E"/>
<path d="M304.244 286.862C306.546 282.251 308.893 275.521 307.552 267.885C306.393 261.292 303.581 260.309 302.933 254.433C301.737 243.657 310.265 242.132 309.815 231.76C309.343 220.892 299.504 214.871 300.967 205.794C301.157 204.613 301.981 200.673 300.357 199.453C299.763 199.011 298.863 198.943 298.223 199.247C295.304 200.65 296.448 210.077 298.399 216.761C300.647 224.466 302.674 224.108 303.497 228.91C305.044 237.91 298.01 239.732 297.095 250.28C296.12 261.536 303.695 264.356 301.676 275.841C300.67 281.535 297.85 286.298 299.496 287.746C300.525 288.653 302.674 287.723 304.244 286.854V286.862Z" fill="#38A958"/>
<path d="M308.749 291.435C313.337 288.813 315.28 284.553 315.608 283.814C315.936 283.067 318.999 275.857 315.608 270.857C312.537 266.33 307.224 268.106 304.176 263.998C301.066 259.814 306.462 255.729 304.176 250.28C301.745 244.48 295.015 246.218 291.22 239.61C288.385 234.679 290.9 231.577 288.171 227.416C284.871 222.386 277.57 218.888 273.691 221.319C270.139 223.544 270.604 230.03 270.642 230.465C271.1 235.967 274.697 236.897 274.453 241.134C274.186 245.715 269.911 246.065 269.118 251.042C268.356 255.79 271.42 260.645 274.453 263.236C278.538 266.719 281.32 265.027 283.598 267.809C287.577 272.671 280.527 279.629 283.598 286.1C286.868 292.99 300.182 296.335 308.749 291.435Z" fill="#45D36E"/>
<path d="M303.414 292.197C300.267 289.667 296.418 285.688 295.031 280.003C293.834 275.095 295.618 273.593 294.269 269.333C291.792 261.514 284.978 262.939 282.075 255.615C279.034 247.94 284.475 240.906 280.55 235.037C280.04 234.275 278.203 231.775 279.026 230.464C279.331 229.984 279.979 229.672 280.55 229.702C283.157 229.824 285.245 236.699 285.885 241.896C286.617 247.894 285.001 248.237 285.885 251.804C287.547 258.495 293.347 257.71 297.317 264.76C301.555 272.282 296.799 276.436 301.89 283.813C304.413 287.472 307.995 289.949 307.225 291.435C306.745 292.365 304.855 292.342 303.414 292.197Z" fill="#38A958"/>
<path d="M305.997 292.128C300.022 289.148 297.133 283.722 296.638 282.777C296.15 281.824 291.524 272.603 295.137 265.614C298.399 259.288 307.453 259.54 310.745 253.763C314.098 247.879 303.512 238.695 305.7 231.234C308.032 223.285 316.255 225.922 320.18 216.754C323.107 209.91 321.087 210.893 323.976 205.093C327.474 198.066 335.697 196.832 340.773 199.636C345.422 202.205 346.74 209.696 346.74 210.283C346.809 217.623 343.242 219.238 344.035 224.832C344.896 230.876 346.817 230.061 348.379 236.569C349.865 242.773 347.251 245.006 343.806 248.763C339.165 253.824 338.708 252.269 336.223 256.209C331.879 263.084 343.677 273.822 340.636 282.731C337.397 292.212 317.155 297.707 305.997 292.144V292.128Z" fill="#45D36E"/>
<path d="M312.673 292.555C316.27 288.867 320.561 283.173 321.612 275.491C322.519 268.861 320.142 267.062 321.315 261.27C323.464 250.646 332.046 251.797 334.782 241.775C337.648 231.28 330.11 222.546 334.279 214.346C334.82 213.279 336.802 209.773 335.628 208.119C335.201 207.517 334.363 207.174 333.654 207.273C330.453 207.715 328.662 217.044 328.479 224.009C328.266 232.035 330.308 232.309 329.63 237.133C328.357 246.172 321.102 245.768 317.017 255.539C312.657 265.957 319.014 270.957 313.58 281.276C310.889 286.39 306.751 290.063 307.879 291.953C308.58 293.135 310.912 292.898 312.673 292.548V292.555Z" fill="#38A958"/>
<ellipse cx="271.945" cy="38.4081" rx="6.19623" ry="5.50776" fill="#F1F3F6"/>
<path d="M217.261 70.1415C217.261 78.1769 210.688 84.6909 202.579 84.6909C194.471 84.6909 187.897 78.1769 187.897 70.1415C187.897 62.106 194.471 55.592 202.579 55.592C210.688 55.592 217.261 62.106 217.261 70.1415Z" fill="#C8FFC3"/>
<path d="M207.209 70.4067C207.209 73.0364 205.077 75.1683 202.447 75.1683C199.817 75.1683 197.686 73.0364 197.686 70.4067C197.686 67.7769 199.817 65.645 202.447 65.645C205.077 65.645 207.209 67.7769 207.209 70.4067Z" fill="white"/>
<path d="M202.182 75.1678C203.854 75.0461 205.013 74.7154 206.15 73.5806C208.708 75.4323 211.528 77.2841 214.086 79.1358C213.314 80.1754 211.88 81.8129 209.589 83.1038C206.494 84.8471 203.555 84.982 202.182 84.9556L202.182 75.1678Z" fill="#A9FFA5"/>
<path d="M187.897 70.1414C190.985 70.2287 194.598 70.3186 197.685 70.4059C197.72 70.8133 197.656 72.6994 199.272 74.1094C200.542 75.2178 201.688 75.1278 202.182 75.1675L202.182 84.9553C200.87 84.8971 196.64 84.5374 192.924 81.2518C188.099 76.9849 187.913 71.1201 187.897 70.1414Z" fill="#1F9030"/>
<path d="M216.744 115.451C216.744 124.217 209.638 131.323 200.872 131.323C192.106 131.323 185 124.217 185 115.451C185 106.685 192.106 99.5786 200.872 99.5786C209.638 99.5786 216.744 106.685 216.744 115.451Z" fill="#C8FFC3"/>
<path d="M185.265 106.985C185.796 105.867 186.693 104.306 188.175 102.753C189.915 100.93 191.73 99.8854 192.936 99.314C195.052 103.988 197.169 108.66 199.285 113.334C194.611 111.218 189.939 109.102 185.265 106.985Z" fill="#1F9030"/>
<path d="M185.008 115.186L200.872 115.186L200.872 131.312C199.833 131.357 194.373 131.482 189.849 127.212C184.828 122.474 184.974 116.115 185.011 115.186L185.008 115.186Z" fill="#1F9030"/>
<path d="M212.406 104.34C208.562 107.974 204.716 111.606 200.872 115.241L200.872 131.322C206.903 131.325 212.424 127.947 215.088 122.6C218.04 116.678 216.982 109.35 212.406 104.34Z" fill="#C8FFC3"/>
<ellipse cx="60.9656" cy="21.3425" rx="21.3426" ry="19.9656" transform="rotate(-90 60.9656 21.3425)" fill="#F1F3F6"/>
<path d="M193.202 249.879C182.189 256.575 184.327 273.845 185.094 274.551C185.145 274.602 185.202 274.643 185.202 274.643C185.897 275.21 186.746 275.262 186.854 275.251C188.291 275.159 185.78 257.89 192.844 252.344C193.182 252.078 196.855 249.275 200.599 250.232C201.822 250.544 202.753 251.178 202.712 251.291C202.63 251.511 198.655 249.603 197.427 250.938C197.018 251.378 197.059 252.022 197.075 252.35C197.187 254.35 199.162 255.68 200.246 256.58C203.694 259.44 204.87 263.593 205.182 264.688C206.579 269.599 204.17 272.668 206.594 275.262C206.835 275.522 207.73 276.474 209.06 276.673C212.395 277.165 216.191 272.566 217.521 268.565C219.843 261.568 215.889 253.112 209.766 249.531C206.426 247.577 203.039 247.428 202.011 247.418C201.464 247.413 197.279 247.403 193.202 249.884V249.879Z" fill="#1F9030"/>
<path d="M186.9 248.559C185.431 252.201 184.7 254.027 184.608 254.288C182.229 261.143 182.582 270.77 183.462 273.389C183.559 273.676 183.943 274.73 183.462 275.297C183.155 275.661 182.577 275.737 182.316 275.681C180.633 275.308 179.774 267.537 181.554 260.018C183.16 253.219 184.613 249.7 184.613 249.7C185.426 247.72 186.455 245.582 185.759 243.203C185.196 241.29 184.091 241.172 183.467 239.766C181.933 236.292 186.373 231.739 191.872 223.718C195.535 218.383 197.35 215.708 198.368 213.4C202.338 204.413 198.977 201.016 202.952 193.916C204.001 192.038 207.285 186.176 213.648 184.744C219.823 183.357 225.987 186.795 229.312 190.857C234.146 196.76 233.097 204.095 232.371 209.196C231.905 212.464 230.724 220.736 224.35 226.389C218.994 231.136 216.16 228.552 210.211 234.031C205.571 238.308 205.586 240.773 200.66 243.582C196.373 246.022 190.731 247.193 189.58 245.49C188.659 244.129 191.284 240.819 193.018 238.993C194.281 237.668 201.883 230.328 201.806 230.205C201.74 230.102 200.568 230.558 199.514 231.351C198.271 232.282 190.583 239.97 188.818 243.96C188.153 245.469 187.677 246.63 186.91 248.544L186.9 248.559Z" fill="#67CE69"/>
<path d="M176.515 251.25C178.096 254.605 178.884 256.283 178.986 256.529C181.59 262.857 181.687 271.921 180.961 274.423C180.879 274.699 180.556 275.702 181.048 276.218C181.36 276.546 181.922 276.592 182.168 276.525C183.769 276.101 184.245 268.755 182.188 261.772C180.331 255.46 178.776 252.222 178.776 252.222C177.902 250.401 176.812 248.441 177.375 246.17C177.83 244.344 178.889 244.185 179.426 242.835C180.746 239.499 176.265 235.428 170.602 228.148C166.832 223.304 164.959 220.874 163.88 218.761C159.65 210.5 162.729 207.155 158.58 200.668C157.481 198.954 154.058 193.599 147.864 192.55C141.853 191.537 136.078 195.051 133.059 199.026C128.676 204.796 130.016 211.641 130.952 216.398C131.55 219.447 133.065 227.166 139.459 232.179C144.83 236.394 147.444 233.826 153.419 238.701C158.079 242.502 158.176 244.82 163.051 247.229C167.287 249.321 172.776 250.16 173.809 248.508C174.633 247.188 172.694 244.165 170.939 242.528C169.666 241.341 165.445 239.126 165.517 239.008C165.578 238.906 169.43 240.226 170.484 240.916C171.722 241.735 172.597 243.362 174.479 247.029C175.19 248.416 175.697 249.485 176.525 251.25H176.515Z" fill="#46AF4C"/>
<path d="M180.024 226.777C180.024 227.529 180.152 232.752 180.408 243.208C180.459 245.208 180.423 243.827 180.792 256.196C180.909 260.166 181.186 266.565 182.7 274.535C183.268 277.512 183.416 277.594 183.462 277.594C184.035 277.538 182.592 263.563 182.316 243.592C182.183 234.098 182.352 225.811 183.109 216.501C183.365 213.319 183.641 210.674 183.846 208.822C184.685 208.679 186.081 208.372 187.667 207.676C205.837 199.706 206.901 158.962 202.185 157.627C200.246 157.079 197.013 163.1 192.634 171.382C185.841 184.232 183.646 195.563 182.316 202.714C180.173 214.275 180.035 223.744 180.024 226.783V226.777Z" fill="#67CE69"/>
<path d="M181.932 294.705C195.648 294.705 206.768 289.184 206.768 282.372C206.768 275.561 195.648 270.039 181.932 270.039C168.216 270.039 157.097 275.561 157.097 282.372C157.097 289.184 168.216 294.705 181.932 294.705Z" fill="#67CE69"/>
<path d="M39.9913 212.105C40.7259 212.105 52.8553 238.987 53.95 258.505C54.1851 262.711 54.163 266.715 53.95 270.48C55.3458 270.996 57.616 271.595 59.0927 270.48C61.4289 268.721 60.4885 263.684 59.8273 260.751C49.6816 215.697 33.3793 190.401 33.3793 190.401C22.3592 173.301 6.74018 149.068 1.78851 151.485C-2.59746 153.625 0.995068 176.863 13.5432 194.143C20.0671 203.132 28.2366 209.86 34.1139 211.356" fill="#46AF4C"/>
<path d="M49.6294 150.623C50.3262 150.646 60.3015 203.772 60.2106 242.142C60.1955 250.414 59.9379 258.271 59.5214 265.66C60.8166 266.707 62.9374 267.947 64.4068 265.801C66.7245 262.407 66.1261 252.486 65.6641 246.709C58.62 157.946 45.721 98.6117 45.721 98.6117C36.2381 64.7193 21.6803 25.9035 16.8404 30.5225C12.5457 34.6142 6.12278 60.5533 17.0449 94.8318C22.7256 112.669 38.9269 140.049 44.4183 143.153" fill="#67CE69"/>
<path d="M70.3656 162.544C69.7438 162.559 61.6383 210.036 61.7132 244.6C61.7282 252.048 61.9605 259.127 62.3275 265.791C61.1664 266.739 59.2786 267.849 57.9602 265.917C55.8926 262.859 56.4245 253.922 56.8365 248.716C63.1291 168.757 74.6581 115.312 74.6581 115.312C83.1306 84.7838 100.697 67.9241 105.027 72.0779C108.863 75.7653 108.825 88.8859 99.0644 119.762C93.9854 135.829 79.0254 141.975 74.1112 144.767" fill="#1F9030"/>
<path d="M79.4845 200.754C78.8739 211.7 75.0925 211.323 62.5637 244.421C57.9436 256.64 54.7727 266.424 57.4139 268.104C58.1716 268.585 59.1722 268.26 59.6209 268.104C66.8675 265.64 65.4991 248.255 71.3919 228.138C71.8628 226.54 75.6369 218.191 83.1629 201.494C99.6644 164.866 98.3696 170.713 98.6124 169.669C98.995 167.997 99.635 164.629 102.291 163.008C104.38 161.728 106.183 162.401 110.678 161.025C111.884 160.655 113.223 160.129 114.798 159.308C116.968 158.175 121.632 155.4 126.569 148.946C133.94 139.317 145.733 110.394 140.547 107.5C134.919 104.354 110.03 132.331 108.176 145.246C108.044 146.149 107.801 148.584 105.969 150.426C102.173 154.253 96.3759 150.708 90.5198 152.647C82.133 155.422 79.0799 167.627 78.0131 171.89C74.8202 184.642 80.2202 187.521 79.4845 200.754Z" fill="#67CE69"/>
<path d="M82.6863 230.818C86.5373 224.741 90.3445 218.871 93.7652 214.094C94.0715 213.666 95.8876 211.078 99.6 205.962C102.459 202.014 104.166 199.729 106.893 199.308C108.52 199.056 108.921 199.722 110.54 199.308C112.984 198.686 115.916 196.21 115.646 193.393C115.332 190.162 110.898 187.36 107.623 188.957C105.486 189.999 104.209 192.727 104.705 195.611C102.882 197.955 100.351 201.245 97.4119 205.222C93.7141 210.228 86.7999 219.773 76.2608 236.275C57.9541 264.946 58.8074 267.49 59.4784 268.089C60.0036 268.555 60.9663 268.325 61.6738 268.067C62.9939 264.629 65.1236 259.571 68.3036 253.745C70.2655 250.16 71.4544 248.659 75.5314 242.189C77.8799 238.463 80.2868 234.596 82.6863 230.818Z" fill="#88EF87"/>
<path d="M78.907 268.357C79.206 269.463 82.6488 282.881 74.3063 290.782C73.0411 291.985 71.0782 293.45 68.1721 294.519H49.0027C46.9247 293.331 45.4525 291.985 44.402 290.782C37.1177 282.432 40.7982 270.061 41.3349 268.357H78.907Z" fill="#C8FFC3"/>
<path d="M297.751 288.493C291.151 287.479 286.746 283.188 285.984 282.434C285.229 281.679 278.012 274.302 279.315 266.544C280.496 259.524 289.192 257.002 290.564 250.501C291.966 243.878 279.079 238.36 278.888 230.579C278.69 222.302 287.317 222.294 288.262 212.371C288.963 204.964 287.34 206.518 288.323 200.109C289.512 192.35 296.966 188.669 302.659 189.79C307.864 190.818 311.408 197.548 311.591 198.104C313.893 205.07 310.989 207.7 313.451 212.783C316.111 218.27 317.696 216.914 321.163 222.637C324.471 228.094 322.665 231.013 320.531 235.647C317.658 241.881 316.743 240.54 315.577 245.052C313.535 252.924 328.045 259.555 327.863 268.96C327.664 278.974 310.067 290.383 297.743 288.485L297.751 288.493Z" fill="#45D36E"/>
<path d="M304.244 286.862C306.546 282.251 308.893 275.521 307.552 267.885C306.393 261.292 303.581 260.309 302.933 254.433C301.737 243.657 310.265 242.132 309.815 231.76C309.343 220.892 299.504 214.871 300.967 205.794C301.157 204.613 301.981 200.673 300.357 199.453C299.763 199.011 298.863 198.943 298.223 199.247C295.304 200.65 296.448 210.077 298.399 216.761C300.647 224.466 302.674 224.108 303.497 228.91C305.044 237.91 298.01 239.732 297.095 250.28C296.12 261.536 303.695 264.356 301.676 275.841C300.67 281.535 297.85 286.298 299.496 287.746C300.525 288.653 302.674 287.723 304.244 286.854V286.862Z" fill="#38A958"/>
<path d="M308.749 291.435C313.337 288.813 315.28 284.553 315.608 283.814C315.936 283.067 318.999 275.857 315.608 270.857C312.537 266.33 307.224 268.106 304.176 263.998C301.066 259.814 306.462 255.729 304.176 250.28C301.745 244.48 295.015 246.218 291.22 239.61C288.385 234.679 290.9 231.577 288.171 227.416C284.871 222.386 277.57 218.888 273.691 221.319C270.139 223.544 270.604 230.03 270.642 230.465C271.1 235.967 274.697 236.897 274.453 241.134C274.186 245.715 269.911 246.065 269.118 251.042C268.356 255.79 271.42 260.645 274.453 263.236C278.538 266.719 281.32 265.027 283.598 267.809C287.577 272.671 280.527 279.629 283.598 286.1C286.868 292.99 300.182 296.335 308.749 291.435Z" fill="#45D36E"/>
<path d="M303.414 292.197C300.267 289.667 296.418 285.688 295.031 280.003C293.834 275.095 295.618 273.593 294.269 269.333C291.792 261.514 284.978 262.939 282.075 255.615C279.034 247.94 284.475 240.906 280.55 235.037C280.04 234.275 278.203 231.775 279.026 230.464C279.331 229.984 279.979 229.672 280.55 229.702C283.157 229.824 285.245 236.699 285.885 241.896C286.617 247.894 285.001 248.237 285.885 251.804C287.547 258.495 293.347 257.71 297.317 264.76C301.555 272.282 296.799 276.436 301.89 283.813C304.413 287.472 307.995 289.949 307.225 291.435C306.745 292.365 304.855 292.342 303.414 292.197Z" fill="#38A958"/>
<path d="M305.997 292.128C300.022 289.148 297.133 283.722 296.638 282.777C296.15 281.824 291.524 272.603 295.137 265.614C298.399 259.288 307.453 259.54 310.745 253.763C314.098 247.879 303.512 238.695 305.7 231.234C308.032 223.285 316.255 225.922 320.18 216.754C323.107 209.91 321.087 210.893 323.976 205.093C327.474 198.066 335.697 196.832 340.773 199.636C345.422 202.205 346.74 209.696 346.74 210.283C346.809 217.623 343.242 219.238 344.035 224.832C344.896 230.876 346.817 230.061 348.379 236.569C349.865 242.773 347.251 245.006 343.806 248.763C339.165 253.824 338.708 252.269 336.223 256.209C331.879 263.084 343.677 273.822 340.636 282.731C337.397 292.212 317.155 297.707 305.997 292.144V292.128Z" fill="#45D36E"/>
<path d="M312.673 292.555C316.27 288.867 320.561 283.173 321.612 275.491C322.519 268.861 320.142 267.062 321.315 261.27C323.464 250.646 332.046 251.797 334.782 241.775C337.648 231.28 330.11 222.546 334.279 214.346C334.82 213.279 336.802 209.773 335.628 208.119C335.201 207.517 334.363 207.174 333.654 207.273C330.453 207.715 328.662 217.044 328.479 224.009C328.266 232.035 330.308 232.309 329.63 237.133C328.357 246.172 321.102 245.768 317.017 255.539C312.657 265.957 319.014 270.957 313.58 281.276C310.889 286.39 306.751 290.063 307.879 291.953C308.58 293.135 310.912 292.898 312.673 292.548V292.555Z" fill="#38A958"/>
<ellipse cx="271.945" cy="38.4081" rx="6.19623" ry="5.50776" fill="#F1F3F6"/>
<path d="M217.261 70.1415C217.261 78.1769 210.688 84.6909 202.579 84.6909C194.471 84.6909 187.897 78.1769 187.897 70.1415C187.897 62.106 194.471 55.592 202.579 55.592C210.688 55.592 217.261 62.106 217.261 70.1415Z" fill="#C8FFC3"/>
<path d="M207.209 70.4067C207.209 73.0364 205.077 75.1683 202.447 75.1683C199.817 75.1683 197.686 73.0364 197.686 70.4067C197.686 67.7769 199.817 65.645 202.447 65.645C205.077 65.645 207.209 67.7769 207.209 70.4067Z" fill="white"/>
<path d="M202.182 75.1678C203.854 75.0461 205.013 74.7154 206.15 73.5806C208.708 75.4323 211.528 77.2841 214.086 79.1358C213.314 80.1754 211.88 81.8129 209.589 83.1038C206.494 84.8471 203.555 84.982 202.182 84.9556L202.182 75.1678Z" fill="#A9FFA5"/>
<path d="M187.897 70.1414C190.985 70.2287 194.598 70.3186 197.685 70.4059C197.72 70.8133 197.656 72.6994 199.272 74.1094C200.542 75.2178 201.688 75.1278 202.182 75.1675L202.182 84.9553C200.87 84.8971 196.64 84.5374 192.924 81.2518C188.099 76.9849 187.913 71.1201 187.897 70.1414Z" fill="#1F9030"/>
<path d="M216.744 115.451C216.744 124.217 209.638 131.323 200.872 131.323C192.106 131.323 185 124.217 185 115.451C185 106.685 192.106 99.5786 200.872 99.5786C209.638 99.5786 216.744 106.685 216.744 115.451Z" fill="#C8FFC3"/>
<path d="M185.265 106.985C185.796 105.867 186.693 104.306 188.175 102.753C189.915 100.93 191.73 99.8854 192.936 99.314C195.052 103.988 197.169 108.66 199.285 113.334C194.611 111.218 189.939 109.102 185.265 106.985Z" fill="#1F9030"/>
<path d="M185.008 115.186L200.872 115.186L200.872 131.312C199.833 131.357 194.373 131.482 189.849 127.212C184.828 122.474 184.974 116.115 185.011 115.186L185.008 115.186Z" fill="#1F9030"/>
<path d="M212.406 104.34C208.562 107.974 204.716 111.606 200.872 115.241L200.872 131.322C206.903 131.325 212.424 127.947 215.088 122.6C218.04 116.678 216.982 109.35 212.406 104.34Z" fill="#C8FFC3"/>
<ellipse cx="60.9656" cy="21.3425" rx="21.3426" ry="19.9656" transform="rotate(-90 60.9656 21.3425)" fill="#F1F3F6"/>
<path d="M193.202 249.879C182.189 256.575 184.327 273.845 185.094 274.551C185.145 274.602 185.202 274.643 185.202 274.643C185.897 275.21 186.746 275.262 186.854 275.251C188.291 275.159 185.78 257.89 192.844 252.344C193.182 252.078 196.855 249.275 200.599 250.232C201.822 250.544 202.753 251.178 202.712 251.291C202.63 251.511 198.655 249.603 197.427 250.938C197.018 251.378 197.059 252.022 197.075 252.35C197.187 254.35 199.162 255.68 200.246 256.58C203.694 259.44 204.87 263.593 205.182 264.688C206.579 269.599 204.17 272.668 206.594 275.262C206.835 275.522 207.73 276.474 209.06 276.673C212.395 277.165 216.191 272.566 217.521 268.565C219.843 261.568 215.889 253.112 209.766 249.531C206.426 247.577 203.039 247.428 202.011 247.418C201.464 247.413 197.279 247.403 193.202 249.884V249.879Z" fill="#1F9030"/>
<path d="M186.9 248.559C185.431 252.201 184.7 254.027 184.608 254.288C182.229 261.143 182.582 270.77 183.462 273.389C183.559 273.676 183.943 274.73 183.462 275.297C183.155 275.661 182.577 275.737 182.316 275.681C180.633 275.308 179.774 267.537 181.554 260.018C183.16 253.219 184.613 249.7 184.613 249.7C185.426 247.72 186.455 245.582 185.759 243.203C185.196 241.29 184.091 241.172 183.467 239.766C181.933 236.292 186.373 231.739 191.872 223.718C195.535 218.383 197.35 215.708 198.368 213.4C202.338 204.413 198.977 201.016 202.952 193.916C204.001 192.038 207.285 186.176 213.648 184.744C219.823 183.357 225.987 186.795 229.312 190.857C234.146 196.76 233.097 204.095 232.371 209.196C231.905 212.464 230.724 220.736 224.35 226.389C218.994 231.136 216.16 228.552 210.211 234.031C205.571 238.308 205.586 240.773 200.66 243.582C196.373 246.022 190.731 247.193 189.58 245.49C188.659 244.129 191.284 240.819 193.018 238.993C194.281 237.668 201.883 230.328 201.806 230.205C201.74 230.102 200.568 230.558 199.514 231.351C198.271 232.282 190.583 239.97 188.818 243.96C188.153 245.469 187.677 246.63 186.91 248.544L186.9 248.559Z" fill="#67CE69"/>
<path d="M176.515 251.25C178.096 254.605 178.884 256.283 178.986 256.529C181.59 262.857 181.687 271.921 180.961 274.423C180.879 274.699 180.556 275.702 181.048 276.218C181.36 276.546 181.922 276.592 182.168 276.525C183.769 276.101 184.245 268.755 182.188 261.772C180.331 255.46 178.776 252.222 178.776 252.222C177.902 250.401 176.812 248.441 177.375 246.17C177.83 244.344 178.889 244.185 179.426 242.835C180.746 239.499 176.265 235.428 170.602 228.148C166.832 223.304 164.959 220.874 163.88 218.761C159.65 210.5 162.729 207.155 158.58 200.668C157.481 198.954 154.058 193.599 147.864 192.55C141.853 191.537 136.078 195.051 133.059 199.026C128.676 204.796 130.016 211.641 130.952 216.398C131.55 219.447 133.065 227.166 139.459 232.179C144.83 236.394 147.444 233.826 153.419 238.701C158.079 242.502 158.176 244.82 163.051 247.229C167.287 249.321 172.776 250.16 173.809 248.508C174.633 247.188 172.694 244.165 170.939 242.528C169.666 241.341 165.445 239.126 165.517 239.008C165.578 238.906 169.43 240.226 170.484 240.916C171.722 241.735 172.597 243.362 174.479 247.029C175.19 248.416 175.697 249.485 176.525 251.25H176.515Z" fill="#46AF4C"/>
<path d="M180.024 226.777C180.024 227.529 180.152 232.752 180.408 243.208C180.459 245.208 180.423 243.827 180.792 256.196C180.909 260.166 181.186 266.565 182.7 274.535C183.268 277.512 183.416 277.594 183.462 277.594C184.035 277.538 182.592 263.563 182.316 243.592C182.183 234.098 182.352 225.811 183.109 216.501C183.365 213.319 183.641 210.674 183.846 208.822C184.685 208.679 186.081 208.372 187.667 207.676C205.837 199.706 206.901 158.962 202.185 157.627C200.246 157.079 197.013 163.1 192.634 171.382C185.841 184.232 183.646 195.563 182.316 202.714C180.173 214.275 180.035 223.744 180.024 226.783V226.777Z" fill="#67CE69"/>
<path d="M181.932 294.705C195.648 294.705 206.768 289.184 206.768 282.372C206.768 275.561 195.648 270.039 181.932 270.039C168.216 270.039 157.097 275.561 157.097 282.372C157.097 289.184 168.216 294.705 181.932 294.705Z" fill="#67CE69"/>
</svg>
