<svg width="495" height="311" viewBox="0 0 495 311" fill="none" xmlns="http://www.w3.org/2000/svg">
<path d="M225.959 115.041C143.003 114.007 111.557 98.8763 92.0495 122.991C75.0045 144.054 75.918 184.144 92.0495 209.225C115.455 245.615 156.712 228.35 245.251 251.425C341.932 276.623 357.99 314.223 407.531 300.964C452.952 288.806 498.215 241.475 493.777 197.605C488.132 141.785 404.552 116.704 388.806 111.983C335.356 95.9468 323.696 116.258 225.959 115.041Z" fill="#F1F3F2"/>
<path d="M225.959 115.041C143.003 114.007 111.557 98.8763 92.0495 122.991C75.0045 144.054 75.918 184.144 92.0495 209.225C115.455 245.615 156.712 228.35 245.251 251.425C341.932 276.623 357.99 314.223 407.531 300.964C452.952 288.806 498.215 241.475 493.777 197.605C488.132 141.785 404.552 116.704 388.806 111.983C335.356 95.9468 323.696 116.258 225.959 115.041Z" fill="#F1F3F2"/>
<path d="M225.959 115.041C143.003 114.007 111.557 98.8763 92.0495 122.991C75.0045 144.054 75.918 184.144 92.0495 209.225C115.455 245.615 156.712 228.35 245.251 251.425C341.932 276.623 357.99 314.223 407.531 300.964C452.952 288.806 498.215 241.475 493.777 197.605C488.132 141.785 404.552 116.704 388.806 111.983C335.356 95.9468 323.696 116.258 225.959 115.041Z" fill="#F1F3F2"/>
<path d="M346.621 2.25439H133.642C132.123 2.25439 130.892 3.57736 130.892 5.20933V236.303C130.892 237.935 132.123 239.258 133.642 239.258H346.621C348.14 239.258 349.372 237.935 349.372 236.303V5.20933C349.372 3.57736 348.14 2.25439 346.621 2.25439Z" fill="#F2F2F2"/>
<path d="M133.653 2.25439H346.196C347.722 2.25439 348.958 3.58259 348.958 5.22151V21.1782H130.897V5.22151C130.897 3.58259 132.134 2.25439 133.659 2.25439H133.653Z" fill="#BFC1C0"/>
<path d="M339.352 32.8945H299.847C298.249 32.8945 296.955 34.2857 296.955 36.0018V86.5586C296.955 88.2747 298.249 89.6658 299.847 89.6658H339.352C340.949 89.6658 342.244 88.2747 342.244 86.5586V36.0018C342.244 34.2857 340.949 32.8945 339.352 32.8945Z" fill="white"/>
<path d="M339.919 96.873H299.279C297.995 96.873 296.955 97.9914 296.955 99.371V230.448C296.955 231.828 297.995 232.946 299.279 232.946H339.919C341.203 232.946 342.244 231.828 342.244 230.448V99.371C342.244 97.9914 341.203 96.873 339.919 96.873Z" fill="white"/>
<path d="M286.805 32.8945H142.72C142.21 32.8945 141.796 33.3392 141.796 33.8876V64.3448C141.796 64.8933 142.21 65.3379 142.72 65.3379H286.805C287.315 65.3379 287.729 64.8933 287.729 64.3448V33.8876C287.729 33.3392 287.315 32.8945 286.805 32.8945Z" fill="white"/>
<path d="M155.212 15.7742C157.066 15.7742 158.569 14.1594 158.569 12.1674C158.569 10.1754 157.066 8.56055 155.212 8.56055C153.358 8.56055 151.855 10.1754 151.855 12.1674C151.855 14.1594 153.358 15.7742 155.212 15.7742Z" fill="#F2F2F2"/>
<path d="M147.665 15.7742C149.519 15.7742 151.022 14.1594 151.022 12.1674C151.022 10.1754 149.519 8.56055 147.665 8.56055C145.811 8.56055 144.308 10.1754 144.308 12.1674C144.308 14.1594 145.811 15.7742 147.665 15.7742Z" fill="#F2F2F2"/>
<path d="M140.118 15.7742C141.972 15.7742 143.474 14.1594 143.474 12.1674C143.474 10.1754 141.972 8.56055 140.118 8.56055C138.264 8.56055 136.761 10.1754 136.761 12.1674C136.761 14.1594 138.264 15.7742 140.118 15.7742Z" fill="#F2F2F2"/>
<path d="M272.629 54.5173C275.407 54.5173 277.658 52.0978 277.658 49.1132C277.658 46.1285 275.407 43.709 272.629 43.709C269.851 43.709 267.599 46.1285 267.599 49.1132C267.599 52.0978 269.851 54.5173 272.629 54.5173Z" fill="#EDEDED"/>
<path d="M272.628 51.818C274.019 51.818 275.146 50.6069 275.146 49.1129C275.146 47.6188 274.019 46.4077 272.628 46.4077C271.238 46.4077 270.111 47.6188 270.111 49.1129C270.111 50.6069 271.238 51.818 272.628 51.818Z" fill="#DDE2E8"/>
<path d="M254.438 42.8071H149.082C148.299 42.8071 147.665 43.4891 147.665 44.3303V45.7925C147.665 46.6337 148.299 47.3157 149.082 47.3157H254.438C255.221 47.3157 255.856 46.6337 255.856 45.7925V44.3303C255.856 43.4891 255.221 42.8071 254.438 42.8071Z" fill="#DDE3E9"/>
<path d="M219.213 50.9165H149.082C148.299 50.9165 147.665 51.5984 147.665 52.4397V53.9019C147.665 54.7431 148.299 55.4251 149.082 55.4251H219.213C219.996 55.4251 220.631 54.7431 220.631 53.9019V52.4397C220.631 51.5984 219.996 50.9165 219.213 50.9165Z" fill="#DDE3E9"/>
<path d="M286.805 70.7417H142.72C142.21 70.7417 141.796 71.1863 141.796 71.7348V97.6834C141.796 98.2319 142.21 98.6765 142.72 98.6765H286.805C287.315 98.6765 287.729 98.2319 287.729 97.6834V71.7348C287.729 71.1863 287.315 70.7417 286.805 70.7417Z" fill="white"/>
<path d="M254.438 78.8511H149.082C148.299 78.8511 147.665 79.533 147.665 80.3742V81.8365C147.665 82.6777 148.299 83.3596 149.082 83.3596H254.438C255.221 83.3596 255.856 82.6777 255.856 81.8365V80.3742C255.856 79.533 255.221 78.8511 254.438 78.8511Z" fill="#DDE3E9"/>
<path d="M219.213 85.1631H149.082C148.299 85.1631 147.665 85.845 147.665 86.6862V88.1485C147.665 88.9897 148.299 89.6716 149.082 89.6716H219.213C219.996 89.6716 220.631 88.9897 220.631 88.1485V86.6862C220.631 85.845 219.996 85.1631 219.213 85.1631Z" fill="#DDE3E9"/>
<path d="M272.629 90.5671C275.407 90.5671 277.658 88.1476 277.658 85.163C277.658 82.1783 275.407 79.7588 272.629 79.7588C269.851 79.7588 267.599 82.1783 267.599 85.163C267.599 88.1476 269.851 90.5671 272.629 90.5671Z" fill="#EDEDED"/>
<path d="M272.629 87.8683C274.019 87.8683 275.147 86.6571 275.147 85.1631C275.147 83.6691 274.019 82.458 272.629 82.458C271.239 82.458 270.111 83.6691 270.111 85.1631C270.111 86.6571 271.239 87.8683 272.629 87.8683Z" fill="#DDE2E8"/>
<path d="M286.805 104.087H142.72C142.21 104.087 141.796 104.532 141.796 105.08V131.029C141.796 131.577 142.21 132.022 142.72 132.022H286.805C287.315 132.022 287.729 131.577 287.729 131.029V105.08C287.729 104.532 287.315 104.087 286.805 104.087Z" fill="white"/>
<path d="M254.438 112.196H149.082C148.299 112.196 147.665 112.878 147.665 113.719V115.182C147.665 116.023 148.299 116.705 149.082 116.705H254.438C255.221 116.705 255.856 116.023 255.856 115.182V113.719C255.856 112.878 255.221 112.196 254.438 112.196Z" fill="#DDE3E9"/>
<path d="M219.213 118.502H149.082C148.299 118.502 147.665 119.184 147.665 120.026V121.488C147.665 122.329 148.299 123.011 149.082 123.011H219.213C219.996 123.011 220.631 122.329 220.631 121.488V120.026C220.631 119.184 219.996 118.502 219.213 118.502Z" fill="#DDE3E9"/>
<path d="M272.629 123.906C275.407 123.906 277.658 121.487 277.658 118.502C277.658 115.518 275.407 113.098 272.629 113.098C269.851 113.098 267.599 115.518 267.599 118.502C267.599 121.487 269.851 123.906 272.629 123.906Z" fill="#EDEDED"/>
<path d="M272.629 121.207C274.019 121.207 275.147 119.996 275.147 118.502C275.147 117.008 274.019 115.797 272.629 115.797C271.239 115.797 270.111 117.008 270.111 118.502C270.111 119.996 271.239 121.207 272.629 121.207Z" fill="#DDE2E8"/>
<path d="M286.805 137.426H142.72C142.21 137.426 141.796 137.87 141.796 138.419V164.367C141.796 164.916 142.21 165.361 142.72 165.361H286.805C287.315 165.361 287.729 164.916 287.729 164.367V138.419C287.729 137.87 287.315 137.426 286.805 137.426Z" fill="white"/>
<path d="M254.438 145.535H149.082C148.299 145.535 147.665 146.217 147.665 147.058V148.521C147.665 149.362 148.299 150.044 149.082 150.044H254.438C255.221 150.044 255.856 149.362 255.856 148.521V147.058C255.856 146.217 255.221 145.535 254.438 145.535Z" fill="#DDE3E9"/>
<path d="M219.213 151.847H149.082C148.299 151.847 147.665 152.529 147.665 153.37V154.833C147.665 155.674 148.299 156.356 149.082 156.356H219.213C219.996 156.356 220.631 155.674 220.631 154.833V153.37C220.631 152.529 219.996 151.847 219.213 151.847Z" fill="#DDE3E9"/>
<path d="M272.629 157.251C275.407 157.251 277.658 154.832 277.658 151.847C277.658 148.862 275.407 146.443 272.629 146.443C269.851 146.443 267.599 148.862 267.599 151.847C267.599 154.832 269.851 157.251 272.629 157.251Z" fill="#EDEDED"/>
<path d="M272.629 154.552C274.019 154.552 275.147 153.341 275.147 151.847C275.147 150.353 274.019 149.142 272.629 149.142C271.239 149.142 270.111 150.353 270.111 151.847C270.111 153.341 271.239 154.552 272.629 154.552Z" fill="#DDE2E8"/>
<path d="M286.805 170.771H142.72C142.21 170.771 141.796 171.216 141.796 171.764V197.713C141.796 198.261 142.21 198.706 142.72 198.706H286.805C287.315 198.706 287.729 198.261 287.729 197.713V171.764C287.729 171.216 287.315 170.771 286.805 170.771Z" fill="white"/>
<path d="M254.438 178.88H149.082C148.299 178.88 147.665 179.562 147.665 180.404V181.866C147.665 182.707 148.299 183.389 149.082 183.389H254.438C255.221 183.389 255.856 182.707 255.856 181.866V180.404C255.856 179.562 255.221 178.88 254.438 178.88Z" fill="#DDE3E9"/>
<path d="M219.213 185.186H149.082C148.299 185.186 147.665 185.868 147.665 186.709V188.171C147.665 189.013 148.299 189.695 149.082 189.695H219.213C219.996 189.695 220.631 189.013 220.631 188.171V186.709C220.631 185.868 219.996 185.186 219.213 185.186Z" fill="#DDE3E9"/>
<path d="M272.629 190.591C275.407 190.591 277.658 188.171 277.658 185.186C277.658 182.202 275.407 179.782 272.629 179.782C269.851 179.782 267.599 182.202 267.599 185.186C267.599 188.171 269.851 190.591 272.629 190.591Z" fill="#EDEDED"/>
<path d="M272.629 187.892C274.019 187.892 275.147 186.681 275.147 185.187C275.147 183.693 274.019 182.481 272.629 182.481C271.239 182.481 270.111 183.693 270.111 185.187C270.111 186.681 271.239 187.892 272.629 187.892Z" fill="#DDE2E8"/>
<path d="M286.805 205.012H142.72C142.21 205.012 141.796 205.456 141.796 206.005V231.953C141.796 232.502 142.21 232.947 142.72 232.947H286.805C287.315 232.947 287.729 232.502 287.729 231.953V206.005C287.729 205.456 287.315 205.012 286.805 205.012Z" fill="white"/>
<path d="M254.438 213.127H149.082C148.299 213.127 147.665 213.809 147.665 214.651V216.113C147.665 216.954 148.299 217.636 149.082 217.636H254.438C255.221 217.636 255.856 216.954 255.856 216.113V214.651C255.856 213.809 255.221 213.127 254.438 213.127Z" fill="#DDE3E9"/>
<path d="M219.213 219.433H149.082C148.299 219.433 147.665 220.115 147.665 220.956V222.418C147.665 223.26 148.299 223.942 149.082 223.942H219.213C219.996 223.942 220.631 223.26 220.631 222.418V220.956C220.631 220.115 219.996 219.433 219.213 219.433Z" fill="#DDE3E9"/>
<path d="M272.629 224.837C275.407 224.837 277.658 222.418 277.658 219.433C277.658 216.448 275.407 214.029 272.629 214.029C269.851 214.029 267.599 216.448 267.599 219.433C267.599 222.418 269.851 224.837 272.629 224.837Z" fill="#EDEDED"/>
<path d="M272.629 222.138C274.019 222.138 275.147 220.927 275.147 219.433C275.147 217.939 274.019 216.728 272.629 216.728C271.239 216.728 270.111 217.939 270.111 219.433C270.111 220.927 271.239 222.138 272.629 222.138Z" fill="#DDE2E8"/>
<path d="M328.465 109.491H309.9C308.772 109.491 307.858 110.473 307.858 111.685V125.32C307.858 126.531 308.772 127.513 309.9 127.513H328.465C329.592 127.513 330.506 126.531 330.506 125.32V111.685C330.506 110.473 329.592 109.491 328.465 109.491Z" fill="#DDE3E9"/>
<path d="M328.465 132.923H309.9C308.772 132.923 307.858 133.905 307.858 135.117V148.752C307.858 149.963 308.772 150.945 309.9 150.945H328.465C329.592 150.945 330.506 149.963 330.506 148.752V135.117C330.506 133.905 329.592 132.923 328.465 132.923Z" fill="#AFB8C5"/>
<path d="M328.465 156.35H309.9C308.772 156.35 307.858 157.332 307.858 158.543V172.178C307.858 173.39 308.772 174.372 309.9 174.372H328.465C329.592 174.372 330.506 173.39 330.506 172.178V158.543C330.506 157.332 329.592 156.35 328.465 156.35Z" fill="#DDE3E9"/>
<path d="M328.465 179.782H309.9C308.772 179.782 307.858 180.764 307.858 181.975V195.61C307.858 196.822 308.772 197.804 309.9 197.804H328.465C329.592 197.804 330.506 196.822 330.506 195.61V181.975C330.506 180.764 329.592 179.782 328.465 179.782Z" fill="#C5CFD7"/>
<path d="M328.465 203.214H309.9C308.772 203.214 307.858 204.196 307.858 205.408V219.043C307.858 220.254 308.772 221.236 309.9 221.236H328.465C329.592 221.236 330.506 220.254 330.506 219.043V205.408C330.506 204.196 329.592 203.214 328.465 203.214Z" fill="#AFB8C5"/>
<path d="M319.596 68.0429C326.082 68.0429 331.34 62.3937 331.34 55.425C331.34 48.4563 326.082 42.8071 319.596 42.8071C313.111 42.8071 307.853 48.4563 307.853 55.425C307.853 62.3937 313.111 68.0429 319.596 68.0429Z" fill="#DDE3E9"/>
<path d="M329.372 76.0791H308.992C308.366 76.0791 307.858 76.6247 307.858 77.2976V78.6015C307.858 79.2744 308.366 79.82 308.992 79.82H329.372C329.998 79.82 330.506 79.2744 330.506 78.6015V77.2976C330.506 76.6247 329.998 76.0791 329.372 76.0791Z" fill="#DDE3E9"/>
<path d="M319.596 62.6325C323.301 62.6325 326.304 59.4055 326.304 55.4249C326.304 51.4442 323.301 48.2173 319.596 48.2173C315.891 48.2173 312.888 51.4442 312.888 55.4249C312.888 59.4055 315.891 62.6325 319.596 62.6325Z" fill="white"/>
<path d="M436.888 249.969C424.68 257.945 427.05 278.513 427.901 279.354C427.957 279.415 428.02 279.464 428.02 279.464C428.791 280.14 429.732 280.201 429.851 280.189C431.445 280.079 428.66 259.51 436.491 252.906C436.865 252.589 440.937 249.25 445.088 250.39C446.443 250.761 447.475 251.517 447.429 251.651C447.339 251.913 442.933 249.64 441.572 251.23C441.118 251.754 441.164 252.522 441.181 252.912C441.305 255.294 443.494 256.878 444.696 257.951C448.518 261.356 449.822 266.304 450.168 267.607C451.716 273.456 449.045 277.112 451.733 280.201C452 280.512 452.992 281.645 454.466 281.883C458.163 282.467 462.371 276.99 463.845 272.226C466.42 263.891 462.036 253.82 455.249 249.555C451.546 247.228 447.792 247.051 446.653 247.039C446.046 247.033 441.407 247.02 436.888 249.975V249.969Z" fill="#1F9030"/>
<path d="M429.902 248.397C428.275 252.735 427.464 254.91 427.362 255.221C424.725 263.385 425.117 274.851 426.092 277.971C426.2 278.312 426.625 279.567 426.092 280.243C425.752 280.676 425.111 280.767 424.822 280.7C422.956 280.256 422.004 271.001 423.977 262.045C425.757 253.948 427.368 249.756 427.368 249.756C428.269 247.398 429.409 244.851 428.638 242.018C428.014 239.739 426.789 239.599 426.098 237.924C424.396 233.787 429.318 228.365 435.414 218.811C439.474 212.457 441.487 209.27 442.615 206.522C447.016 195.818 443.29 191.772 447.696 183.315C448.859 181.079 452.499 174.097 459.553 172.391C466.397 170.74 473.23 174.834 476.916 179.672C482.274 186.703 481.112 195.44 480.306 201.514C479.79 205.407 478.481 215.259 471.415 221.992C465.478 227.646 462.337 224.569 455.742 231.094C450.599 236.187 450.616 239.124 445.156 242.469C440.404 245.375 434.15 246.77 432.874 244.742C431.853 243.121 434.762 239.179 436.684 237.004C438.085 235.426 446.511 226.683 446.426 226.537C446.352 226.415 445.054 226.957 443.886 227.901C442.508 229.01 433.985 238.168 432.029 242.92C431.292 244.717 430.764 246.1 429.914 248.379L429.902 248.397Z" fill="#67CE69"/>
<path d="M418.391 251.602C420.144 255.599 421.017 257.597 421.13 257.89C424.016 265.426 424.124 276.222 423.319 279.202C423.228 279.531 422.871 280.725 423.415 281.34C423.761 281.73 424.385 281.785 424.657 281.706C426.432 281.2 426.959 272.451 424.68 264.134C422.621 256.616 420.898 252.76 420.898 252.76C419.928 250.591 418.72 248.257 419.344 245.552C419.849 243.377 421.022 243.188 421.618 241.58C423.081 237.607 418.114 232.757 411.836 224.088C407.657 218.318 405.582 215.424 404.386 212.908C399.696 203.068 403.11 199.083 398.511 191.358C397.292 189.317 393.498 182.938 386.632 181.689C379.969 180.482 373.567 184.668 370.221 189.402C365.362 196.275 366.848 204.427 367.885 210.093C368.549 213.724 370.227 222.918 377.315 228.889C383.269 233.909 386.167 230.85 392.79 236.657C397.955 241.183 398.063 243.943 403.467 246.813C408.162 249.305 414.246 250.304 415.392 248.336C416.305 246.764 414.156 243.164 412.211 241.214C410.799 239.8 406.121 237.162 406.2 237.022C406.268 236.9 410.538 238.472 411.706 239.295C413.078 240.27 414.048 242.207 416.135 246.575C416.923 248.227 417.484 249.5 418.403 251.602H418.391Z" fill="#46AF4C"/>
<path d="M422.281 222.455C422.281 223.35 422.423 229.571 422.707 242.024C422.763 244.407 422.724 242.762 423.132 257.494C423.262 262.221 423.568 269.843 425.247 279.336C425.876 282.882 426.041 282.979 426.092 282.979C426.727 282.912 425.128 266.267 424.822 242.481C424.674 231.173 424.861 221.303 425.701 210.215C425.984 206.425 426.29 203.275 426.517 201.07C427.447 200.899 428.995 200.533 430.753 199.705C450.894 190.212 452.073 141.685 446.845 140.094C444.696 139.442 441.113 146.613 436.259 156.477C428.728 171.782 426.296 185.277 424.822 193.795C422.446 207.564 422.293 218.842 422.281 222.461V222.455Z" fill="#67CE69"/>
<path d="M424.396 303.359C439.601 303.359 451.926 296.782 451.926 288.669C451.926 280.557 439.601 273.98 424.396 273.98C409.192 273.98 396.867 280.557 396.867 288.669C396.867 296.782 409.192 303.359 424.396 303.359Z" fill="#67CE69"/>
<path d="M406.663 250.816C404.846 250.759 402.931 250.638 400.931 250.448C398.485 250.207 396.182 249.883 394.034 249.495C394.114 246.523 394.194 243.557 394.274 240.585C396.205 240.769 398.331 241.074 400.6 241.563C403.411 242.166 405.926 242.947 408.12 243.76C408.269 244.459 408.429 245.583 408.24 246.936C407.966 248.879 407.114 250.213 406.669 250.823L406.663 250.816Z" fill="#B38B66"/>
<path d="M356.856 197.963C357.455 202.756 358.379 204.219 359.538 209.294C360.513 213.569 361.527 219.819 361.381 227.892C379.633 226.351 393.753 230.855 396.587 239.573C397.539 242.499 397.606 247.093 395.304 249.874C392.381 253.402 388.186 250.91 375.741 251.349C365.441 251.716 362.613 253.619 355.573 251.65C355.573 251.65 351.227 250.434 347.015 247.815C337.208 241.716 329.888 216.965 330.555 184.676C348.891 178.89 354.57 180.696 356.295 183.526C357.897 186.151 355.747 189.113 356.856 197.963Z" fill="#E68ED9"/>
<path d="M372.605 198.367C373.286 200.943 373.626 202.229 373.706 203.44C373.972 207.424 371.69 209.92 372.451 210.667C373.052 211.26 374.855 210.043 375.217 209.798C376.393 209.002 376.35 208.482 376.983 208.182C378.803 207.32 380.489 211.003 383.612 211.517C386.07 211.921 389.098 210.257 389.263 208.568C389.529 205.827 382.054 205.386 379.537 198.661C378.659 196.317 378.872 194.5 377.377 193.447C375.579 192.181 372.573 192.927 371.908 194.573C371.621 195.289 371.935 195.84 372.6 198.361L372.605 198.367Z" fill="#B38B66"/>
<path d="M272.973 162.412C270.862 162.332 269.806 162.294 268.892 162.028C265.877 161.147 264.782 158.219 263.991 158.747C263.359 159.162 263.675 161.259 263.732 161.674C263.935 163.045 264.33 163.15 264.347 163.851C264.392 165.861 261.141 166.444 259.752 169.322C258.657 171.592 258.905 174.997 260.09 175.642C262.016 176.684 264.765 169.564 270.512 169.049C272.516 168.869 273.786 169.595 275.04 168.447C276.553 167.064 276.976 163.944 275.982 162.828C275.548 162.344 275.04 162.493 272.973 162.419V162.412Z" fill="#B38B66"/>
<path d="M288.43 294.4C286.392 299.784 286.255 300.794 284.987 301.495C282.645 302.795 279.537 301.324 278.108 300.523C279.761 295.398 281.42 290.272 283.073 285.153C283.738 285.052 289.232 284.244 290.599 286.731C291.189 287.804 290.58 288.713 288.424 294.407L288.43 294.4Z" fill="#B38B66"/>
<path d="M332.856 219.045C322.688 240.521 317.598 251.265 314.015 257.706C308.615 267.421 301.251 279.743 291.676 293.48C287.681 292.438 283.691 291.401 279.696 290.359C283.347 275.355 287.76 259.431 293.109 242.788C302.425 213.822 311.245 192.955 314.089 186.337C315.996 181.906 317.627 178.262 318.766 175.757C326.091 175.635 339.989 176.434 343.972 184.996C346.286 189.975 344.147 195.21 332.862 219.045H332.856Z" fill="#EEAFE4"/>
<path d="M367.134 195.768C379.664 197.361 383.616 194.442 385.148 191.952C388.535 186.439 383.288 180.042 361.751 139.431C361.751 139.431 356.198 128.957 345.393 122.542C343.73 121.555 341.734 120.719 339.693 121.385C337.177 122.209 335.82 124.923 335.469 125.801C332.902 132.259 356.99 146.937 348.995 150.571C346.563 151.674 364.702 196.877 367.128 195.768H367.134Z" fill="#2DD246"/>
<path d="M273.652 158.642C272.246 171.959 275.978 174.865 278.344 176.474C283.573 180.028 289.563 174.409 327.712 151.233C327.712 151.233 337.548 145.26 343.52 133.738C344.44 131.967 345.212 129.835 344.566 127.68C343.772 125.014 341.2 123.591 340.365 123.225C334.25 120.547 324.614 133.005 317.099 137.773C308.469 143.254 294.221 151.173 273.646 158.642H273.652Z" fill="#27B53C"/>
<path d="M329.166 116.33C330.064 117.172 327.734 119.542 328.772 121.208C330.116 123.372 336.617 123.517 338.1 120.936C339.079 119.239 337.81 116.487 336.866 114.427C336.049 112.651 335.661 112.609 335.493 111.615C335.035 108.924 337.659 107.748 338.164 105.415C339.085 101.118 332.665 93.5855 326.106 93.8521C322.352 94.0036 319.936 96.658 319.414 97.2338C313.452 103.791 316.83 116.845 321.477 118.233C324.449 119.118 328.042 115.269 329.171 116.33H329.166Z" fill="#B38B66"/>
<path d="M315.541 170.093C313.591 177.515 312.76 178.061 313.131 180.525C315.204 194.362 345.705 206.081 355.893 195.612C358.517 192.918 358.966 188.257 359.753 179.038C360.956 165.001 362.293 150.467 354.701 135.532C351.122 128.498 346.868 123.667 344.014 120.827C343.575 119.225 343.143 117.629 342.704 116.027C337.108 116.682 331.505 117.338 325.909 117.999C323.414 127.8 321.503 136.157 320.104 142.553C317.53 154.345 318.491 158.872 315.541 170.093Z" fill="#2DD246"/>
<path d="M317.968 98.4618C317.218 97.8557 319.102 91.6528 323.974 88.2947C325.073 87.5402 327.997 85.5179 331.451 86.1055C335.236 86.7486 335.48 89.8161 338.591 90.1191C342.481 90.5025 343.504 85.8581 348.295 85.3572C351.69 85.0047 356.005 86.8352 357.202 89.915C358.417 93.0319 355.568 95.1841 356.476 101.09C356.853 103.545 357.435 103.78 357.226 105.388C356.784 108.759 353.673 111.981 350.522 112.494C349.475 112.661 349.248 112.401 347.615 112.624C345.277 112.939 344.103 113.749 343.016 114.065C340.358 114.838 336.538 113.842 335.341 111.307C334.847 110.261 334.492 108.579 335.195 107.602C335.713 106.885 336.393 107.095 336.887 106.291C337.451 105.376 337.213 104.052 336.765 103.199C336.329 102.376 335.422 101.474 334.37 101.449C332.312 101.399 331.724 104.745 329.84 104.745C328.823 104.745 327.939 103.564 326.212 101.189C323.892 98.0103 323.77 96.7425 322.532 96.4024C320.416 95.821 318.538 98.9256 317.956 98.4618H317.968Z" fill="black"/>
<path d="M405.809 243.531C406.06 243.171 406.514 243.107 407.011 242.904C409.839 241.75 413.421 242.336 415.028 243.751C417.089 245.561 416.243 249.019 414.899 254.792C413.998 258.649 412.581 264.828 410.79 272.956C409.416 273.083 407.63 273.025 406.447 271.964C404.741 270.438 405.717 268.164 405.502 264.451C405.073 257.048 400.49 254.153 402.466 251.218C403.729 249.332 406.342 249.448 406.6 247.569C406.821 245.968 405.091 244.575 405.809 243.537V243.531Z" fill="#FAEAF8"/>
<path d="M286.922 298.662C287.319 298.826 287.474 299.268 287.773 299.723C289.457 302.3 289.612 306.039 288.566 307.984C287.227 310.479 283.716 310.435 277.86 310.435C273.946 310.435 267.688 310.448 259.458 310.542C259.056 309.191 258.757 307.378 259.544 305.944C260.677 303.873 263.073 304.321 266.619 303.241C273.693 301.081 275.572 295.794 278.814 297.095C280.894 297.929 281.308 300.582 283.175 300.405C284.773 300.253 285.767 298.188 286.917 298.668L286.922 298.662Z" fill="#FAEAF8"/>
<path d="M180.127 291.07C179.632 294.198 179.026 298.049 181.166 299.631C182.85 300.874 185.646 300.278 187.281 298.814C189.393 296.923 189.232 293.895 189.126 291.823C189.037 290.149 188.97 288.83 188.02 287.838C186.28 286.023 182.606 286.379 181.038 288.334C180.805 288.62 180.421 289.197 180.127 291.065V291.07Z" fill="#B38B66"/>
<path d="M154.337 287.504C152.439 290.268 150.096 293.664 151.489 296.217C152.585 298.229 155.615 299.005 157.892 298.396C160.831 297.608 162.042 294.627 162.87 292.59C163.539 290.938 164.069 289.647 163.582 288.237C162.687 285.654 158.902 284.213 156.467 285.331C156.108 285.498 155.469 285.859 154.331 287.51L154.337 287.504Z" fill="#B38B66"/>
<path d="M151.389 286.796C152.06 287.985 153.362 287.828 156.752 288.914C161.938 290.566 162.351 292.026 164.129 291.736C167.204 291.23 168.517 286.441 170.835 280.457C173.095 274.613 176.238 269.197 178.883 263.533C187.717 244.631 195.615 240.252 193.636 235.33C192.512 232.544 188.376 229.956 175.533 230.396C168.575 247.453 163.911 257.061 160.779 262.833C157.853 268.22 156.494 274.468 153.402 279.758C152.255 281.718 150.293 284.86 151.389 286.809V286.796Z" fill="#67CE69"/>
<path d="M151.194 225.344C172.694 227.73 188.414 229.757 191.871 230.414C192.803 230.594 194.571 231.003 195.805 232.589C196.748 233.798 197.023 235.229 197.118 236.215C197.13 240.218 197.034 246.255 196.462 253.605C195.575 264.971 194.677 264.909 193.835 275.339C192.853 287.555 193.886 291.125 191.209 293.455C187.308 296.845 180.669 294.515 176.774 292.73C177.599 284.667 178.273 276.201 178.744 267.37C179.086 260.899 179.3 254.615 179.401 248.535C168.384 247.091 158.389 248.789 150.2 249.899C140.918 251.157 113.008 254.888 109.792 251.758C104.298 246.403 102.188 226.435 110.915 222.63C117.167 219.903 150.621 224.861 151.188 225.351L151.194 225.344Z" fill="#A9FFA5"/>
<path d="M181.459 192.451C182.372 191.113 182.177 189.317 184.213 186.89C184.313 186.771 184.413 186.658 184.508 186.551C184.949 186.064 185.749 186.302 185.879 186.95C186.014 187.628 186.143 188.3 186.279 188.978C186.396 189.911 186.702 190.244 186.967 190.369C188.056 190.893 189.556 188.478 193.158 186.89C194.664 186.224 195.941 185.665 196.6 186.195C197.854 187.2 196.8 192.088 193.846 195.234C191.598 197.624 190.21 196.928 182.842 200.098C177.552 202.376 176.499 203.494 174.586 202.881C171.45 201.87 169.249 197.244 170.461 195.234C172.091 192.528 179.123 195.894 181.465 192.451H181.459Z" fill="#B38B66"/>
<path d="M166.268 183.927C167.585 183.783 170.196 183.251 172.734 182.719C172.74 182.719 172.746 182.719 172.752 182.719C173.414 182.576 176.018 180.861 175.49 180.437C175.138 180.15 172.388 180.742 172.035 180.461C171.41 180.024 171.295 179.678 171.301 179.439C171.349 178.459 173.669 178.304 176.213 176.332C177.275 175.507 178.174 174.808 178.052 174.133C177.815 172.854 173.893 171.754 170.481 172.675C167.889 173.374 167.846 174.635 162.698 178.698C159 181.614 157.786 181.943 157.482 183.544C156.991 186.167 159.462 189.502 161.374 189.394C163.954 189.257 162.874 184.297 166.262 183.921L166.268 183.927Z" fill="#B38B66"/>
<path d="M163.771 189.452C161.625 192.024 158.21 195.388 153.32 197.865C152.571 198.242 149.341 199.837 144.825 200.671C140.991 201.378 139.046 201.732 136.984 200.671C133.418 198.83 131.02 193.529 132.412 190.855C133.401 188.954 135.587 189.8 143.517 188.049C149.156 186.802 151.979 186.184 154.622 184.541C157.646 182.671 159.965 180.194 161.156 181.034C161.619 181.363 161.625 181.987 161.809 183.138C162.055 184.655 162.564 186.832 163.771 189.446V189.452Z" fill="#8A1E7A"/>
<path d="M148.149 301.039C148.702 302.463 150.056 302.924 153.535 303.989C159.969 305.949 163.189 306.927 167.002 307.677C175.44 309.328 176.247 308.862 176.431 308.414C176.708 307.727 175.659 306.674 173.735 304.726C164.917 295.794 162.088 292.629 160.268 293.67C159.398 294.168 159.577 295.157 158.246 295.882C157.227 296.437 155.499 296.733 154.209 295.882C153.414 295.359 153.189 294.666 152.187 294.407C152.187 294.407 151.507 294.231 150.839 294.407C148.909 294.911 147.239 298.713 148.143 301.039H148.149Z" fill="#F0F0F0"/>
<path d="M188.989 296.938C190.233 296.7 190.696 297.301 196.258 300.6C200.751 303.267 201.655 303.587 202.865 303.53C204.244 303.461 205.029 302.961 206.171 303.53C207.499 304.194 208.539 305.99 208.155 307.192C207.827 308.206 206.555 308.551 206.171 308.657C205.476 308.851 205.137 308.707 203.526 308.657C202.865 308.638 202.203 308.657 201.542 308.657H190.312C188.989 308.657 187.667 308.613 186.35 308.657C183.569 308.751 182.122 309.008 179.743 308.657C178.375 308.457 177.686 308.357 177.098 307.925C174.973 306.366 174.08 302.034 175.775 299.874C176.821 298.547 178.528 298.441 179.082 298.409C181.636 298.259 182.298 300.05 184.366 299.874C186.672 299.68 186.729 297.383 188.989 296.945V296.938Z" fill="#F0F0F0"/>
<path d="M161.098 197.108C169.877 193.993 171.013 193.507 171.013 193.507C175.53 191.574 176.785 190.62 178.283 191.346C180.211 192.288 179.696 194.627 182.246 202.144C183.879 206.964 184.841 208.202 184.23 210.061C183.337 212.776 180.098 213.804 178.283 214.376C157.881 220.84 158.158 220.809 157.797 220.852C135.501 223.567 124.297 224.854 121.448 221.573C116.677 216.075 116.513 204.963 120.786 200.703C124.687 196.813 129.39 201.516 145.897 199.983C150.945 199.515 155.485 199.097 161.098 197.102V197.108Z" fill="#B527A0"/>
<path d="M140.821 139.395C139.838 137.269 138.086 136.383 137.077 135.892C130.059 132.49 120.77 137.826 120.845 140.79C120.861 141.353 121.219 142.108 120.845 142.892C120.45 143.718 119.654 143.718 118.97 144.293C117.817 145.257 117.758 147.216 117.72 148.491C117.63 151.701 120.407 156.336 125.214 160.39C126.069 159.222 127.351 157.51 128.958 155.492C131.81 151.91 133.242 150.126 134.577 149.192C137.846 146.916 139.592 147.856 140.821 145.689C141.889 143.814 141.659 141.203 140.821 139.389V139.395Z" fill="black"/>
<path d="M125.968 160.995C125.401 166.531 125.742 167.153 125.968 167.466C127.498 169.638 132.193 169.263 133.365 167.11C134.097 165.763 133.2 164.188 134.009 163.511C134.791 162.859 135.952 164.071 137.868 164.231C139.882 164.403 141.737 163.327 142.694 162.435C147.455 157.981 142.425 146.349 141.539 145.309L141.528 145.297C141.528 145.297 141.373 145.119 141.208 144.953C141.054 144.799 140.053 143.999 139.475 143.735C138.137 143.107 134.042 142.947 133.041 145.174C132.281 146.859 133.795 148.797 133.041 149.486C132.529 149.954 131.703 149.191 129.182 148.766C127.74 148.52 127.025 148.403 126.607 148.766C125.687 149.578 126.629 151.473 126.607 155.238C126.596 156.886 126.414 156.609 125.963 160.989L125.968 160.995Z" fill="#B38B66"/>
<path d="M138.101 167.328C135.51 166.26 128.563 163.833 123.088 167.328C120.256 169.133 118.698 173.049 115.581 180.874C112.948 187.492 111.22 191.829 110.806 197.989C110.455 203.155 111.436 203.6 110.806 207.974C109.918 214.097 106.947 216.244 105.348 221.52C102.627 230.499 99.7554 239.971 103.982 245.765C107.35 250.383 113.695 250.547 121.722 250.755C129.024 250.944 139.24 251.212 145.608 244.338C149.969 239.629 151.037 233.164 151.066 224.375C151.101 213.39 149.531 193.396 138.101 167.334V167.328Z" fill="#B527A0"/>
<path d="M137.898 250.823H81.6587C77.8938 250.823 74.8418 254.097 74.8418 258.135V303.23C74.8418 307.268 77.8938 310.542 81.6587 310.542H137.898C141.663 310.542 144.715 307.268 144.715 303.23V258.135C144.715 254.097 141.663 250.823 137.898 250.823Z" fill="#CACECC"/>
<path d="M128.486 259.354H91.0712C87.3703 259.354 84.3701 262.515 84.3701 266.414V294.95C84.3701 298.85 87.3703 302.011 91.0712 302.011H128.486C132.187 302.011 135.187 298.85 135.187 294.95V266.414C135.187 262.515 132.187 259.354 128.486 259.354Z" fill="white"/>
<path d="M30.8664 241.512C31.4335 241.512 40.7953 263.397 41.6402 279.287C41.8216 282.711 41.8046 285.97 41.6402 289.035C42.7175 289.455 44.4697 289.943 45.6094 289.035C47.4126 287.603 46.6868 283.503 46.1765 281.115C38.3457 244.437 25.7631 223.844 25.7631 223.844C17.2575 209.922 5.20226 190.194 1.38042 192.162C-2.0048 193.904 0.768022 212.822 10.453 226.89C15.4883 234.207 21.7938 239.685 26.3301 240.903" fill="#46AF4C"/>
<path d="M37.7222 191.108C38.2439 191.126 45.7118 234.713 45.6437 266.194C45.6324 272.981 45.4396 279.427 45.1277 285.489C46.0973 286.348 47.685 287.366 48.7851 285.605C50.5202 282.821 50.0723 274.681 49.7264 269.941C44.4529 197.115 34.7963 148.435 34.7963 148.435C27.6969 120.628 16.7985 88.7821 13.1751 92.5717C9.95997 95.9287 5.15148 117.21 13.3282 145.334C17.581 159.969 29.7099 182.432 33.821 184.979" fill="#67CE69"/>
<path d="M54.064 200.795C53.5933 200.808 47.458 239.874 47.5147 268.314C47.526 274.443 47.7018 280.268 47.9796 285.751C47.1007 286.531 45.6718 287.445 44.6738 285.855C43.1088 283.339 43.5114 275.985 43.8232 271.702C48.5864 205.907 57.3131 161.93 57.3131 161.93C63.7263 136.81 77.0234 122.938 80.3008 126.356C83.2041 129.39 83.1757 140.186 75.7872 165.592C71.9427 178.813 60.6189 183.87 56.8992 186.167" fill="#1F9030"/>
<path d="M60.3521 232.374C59.8814 241.385 56.9669 241.074 47.3102 268.32C43.7492 278.379 41.3053 286.434 43.3409 287.817C43.925 288.213 44.6962 287.945 45.0421 287.817C50.6274 285.788 49.5727 271.476 54.1147 254.916C54.4776 253.6 57.3865 246.728 63.1873 232.983C75.906 202.83 74.908 207.644 75.0951 206.785C75.39 205.408 75.8833 202.635 77.9303 201.301C79.5407 200.247 80.9299 200.802 84.3945 199.668C85.3245 199.364 86.3565 198.931 87.5699 198.255C89.2427 197.323 92.8377 195.038 96.6426 189.725C102.324 181.799 111.414 157.988 107.416 155.606C103.078 153.017 83.8955 176.047 82.4666 186.679C82.3645 187.422 82.1774 189.427 80.7655 190.944C77.8396 194.094 73.3713 191.175 68.8577 192.771C62.3934 195.056 60.0402 205.103 59.218 208.612C56.7571 219.11 60.9191 221.48 60.3521 232.374Z" fill="#67CE69"/>
<path d="M63.0797 257.122C66.0737 252.114 69.0336 247.276 71.693 243.34C71.9312 242.987 73.3431 240.855 76.2293 236.638C78.4521 233.385 79.779 231.502 81.8997 231.155C83.1642 230.948 83.4761 231.496 84.7349 231.155C86.6345 230.643 88.914 228.602 88.7042 226.281C88.4603 223.618 85.0127 221.309 82.4667 222.625C80.8053 223.484 79.813 225.733 80.1986 228.109C78.781 230.04 76.8134 232.751 74.5282 236.029C71.6533 240.154 66.2778 248.02 58.0841 261.618C43.8514 285.246 44.5148 287.341 45.0365 287.835C45.4448 288.219 46.1933 288.03 46.7433 287.817C47.7696 284.984 49.4254 280.816 51.8977 276.015C53.423 273.06 54.3473 271.824 57.517 266.492C59.3429 263.422 61.2141 260.235 63.0797 257.122Z" fill="#88EF87"/>
<path d="M59.7854 287.817C60.0065 288.719 62.5525 299.655 56.3832 306.095C55.4475 307.076 53.9959 308.27 51.8469 309.141H37.6709C36.1342 308.172 35.0455 307.076 34.2687 306.095C28.8818 299.289 31.6036 289.206 32.0005 287.817H59.7854Z" fill="#C8FFC3"/>
<path d="M101.246 44.3633H56.377C52.542 44.3633 49.4331 47.6265 49.4331 51.6519V79.7315C49.4331 83.7569 52.542 87.0202 56.377 87.0202H101.246C105.081 87.0202 108.19 83.7569 108.19 79.7315V51.6519C108.19 47.6265 105.081 44.3633 101.246 44.3633Z" fill="#F2F2F2"/>
<path d="M104.22 56.3071C109.044 56.3071 112.954 52.1055 112.954 46.9226C112.954 41.7397 109.044 37.5381 104.22 37.5381C99.3962 37.5381 95.4858 41.7397 95.4858 46.9226C95.4858 52.1055 99.3962 56.3071 104.22 56.3071Z" fill="#2DD246"/>
<path d="M55.7852 52.8945L78.9381 69.9573L100.25 52.8945" stroke="#B3BCC8" stroke-width="2" stroke-miterlimit="10"/>
<path d="M101.838 81.9014L82.7817 66.5449" stroke="#B3BCC8" stroke-width="2" stroke-miterlimit="10"/>
<path d="M57.373 81.9014L74.8413 66.5449" stroke="#B3BCC8" stroke-width="2" stroke-miterlimit="10"/>
<path d="M366.145 71.284H419.702C421.091 71.284 422.225 70.0654 422.225 68.5727V29.1289C422.225 27.6362 421.091 26.4177 419.702 26.4177L392.813 0L366.145 26.4177C364.756 26.4177 363.622 27.6362 363.622 29.1289V68.5727C363.622 70.0654 364.756 71.284 366.145 71.284Z" fill="#E0E0E0"/>
<path d="M370.948 37.6341L392.546 37.7377L413.254 37.8291L412.886 8.11523H370.948V37.6341Z" fill="#F2F2F2"/>
<path d="M392.722 54.9252L413.254 37.8292L370.948 37.6343L392.722 54.9252Z" fill="#F2F2F2"/>
<path d="M415.636 66.5619L396.742 51.5801" stroke="#B3BCC8" stroke-miterlimit="10"/>
<path d="M388.583 51.5923L369.797 66.7325" stroke="#B3BCC8" stroke-miterlimit="10"/>
<path d="M377.65 35.0752H408.293" stroke="#B3BCC8" stroke-miterlimit="10"/>
<path d="M377.571 25.4736H408.208" stroke="#B3BCC8" stroke-miterlimit="10"/>
<path d="M377.571 15.8286H408.208" stroke="#B3BCC8" stroke-miterlimit="10"/>
</svg>
