<svg width="27" height="24" viewBox="0 0 27 24" fill="none" xmlns="http://www.w3.org/2000/svg">
<path d="M11.1857 4C12.9589 4 14.6594 4.62612 15.9132 5.74062C17.167 6.85512 17.8714 8.36671 17.8714 9.94286C17.8714 11.4149 17.2646 12.768 16.2669 13.8103L16.5446 14.0571H17.3571L22.5 18.6286L20.9571 20L15.8143 15.4286V14.7063L15.5366 14.4594C14.364 15.3463 12.8417 15.8857 11.1857 15.8857C9.41255 15.8857 7.71201 15.2596 6.4582 14.1451C5.20439 13.0306 4.5 11.519 4.5 9.94286C4.5 8.36671 5.20439 6.85512 6.4582 5.74062C7.71201 4.62612 9.41255 4 11.1857 4ZM11.1857 5.82857C8.61429 5.82857 6.55714 7.65714 6.55714 9.94286C6.55714 12.2286 8.61429 14.0571 11.1857 14.0571C13.7571 14.0571 15.8143 12.2286 15.8143 9.94286C15.8143 7.65714 13.7571 5.82857 11.1857 5.82857Z" fill="black"/>
</svg>
